<svg height="20" viewBox="0 0 145 21" fill="none" xmlns="http://www.w3.org/2000/svg">
    <path fill-rule="evenodd" clip-rule="evenodd" d="M5.6224 11.4537H4.58888V16.9854H0V2.7764H4.5896V7.94912H5.71766L8.24237 2.7764H12.9086L9.65692 9.42643L13.4057 16.9854H8.35625L5.62169 11.4537H5.6224ZM21.2842 11.7943H21.0163L18.1099 14.3139V16.9854H13.7115V5.6182H18.1099V9.89971H18.4923L21.2842 7.47442V5.6182H25.6826V16.9854H21.2849V11.7943H21.2842ZM34.5946 12.9693H31.6108V16.9854H27.2131V5.6182H31.6108V9.4832H34.5946V5.6182H38.9922V16.9854H34.5946V12.9693ZM46.2591 5.40959C47.0498 5.40959 47.7825 5.53022 48.4579 5.76934C49.1181 5.99936 49.7167 6.37522 50.2084 6.86846C50.699 7.36089 51.0851 7.9768 51.3651 8.71545C51.6459 9.45482 51.7863 10.3162 51.7863 11.3018C51.7863 12.2995 51.6459 13.168 51.3651 13.9066C51.0851 14.6453 50.699 15.2583 50.2084 15.7444C49.717 16.2309 49.1225 16.603 48.468 16.8336C47.7714 17.0783 47.0369 17.2003 46.2978 17.194H45.7048C44.8882 17.194 44.1362 17.0734 43.4486 16.8336C42.781 16.6066 42.173 16.2345 41.6695 15.7444C41.1724 15.2583 40.7835 14.6453 40.5035 13.9066C40.2227 13.168 40.0824 12.2995 40.0824 11.3018C40.0824 10.3162 40.2227 9.45482 40.5035 8.71545C40.7835 7.9768 41.1696 7.36089 41.6602 6.86846C42.1517 6.37531 42.7501 5.99945 43.41 5.76934C44.0861 5.52951 44.8252 5.40959 45.6281 5.40959H46.2591ZM46.0106 13.5561C46.4955 13.5561 46.8872 13.3638 47.1866 12.9785C47.4867 12.5932 47.6364 12.0348 47.6364 11.3018C47.6364 10.5695 47.486 10.0104 47.1866 9.62511C46.8872 9.23982 46.4955 9.04753 46.0106 9.04753H45.858C45.3481 9.04753 44.9463 9.23982 44.6533 9.62511C44.3597 10.0104 44.2136 10.5688 44.2136 11.3018C44.2136 12.0341 44.3597 12.5932 44.6533 12.9785C44.947 13.3638 45.3481 13.5561 45.858 13.5561H46.0106ZM52.6851 2.7764H64.924V16.9854H60.3344V6.4711H57.2747V16.9854H52.6851V2.7764ZM71.9997 5.40959C72.7897 5.40959 73.5231 5.53022 74.1985 5.76934C74.8584 5.9993 75.4568 6.37518 75.9482 6.86846C76.4389 7.36089 76.8249 7.9768 77.105 8.71545C77.3857 9.45482 77.5261 10.3162 77.5261 11.3018C77.5261 12.2995 77.3857 13.168 77.105 13.9066C76.8249 14.6453 76.4389 15.2583 75.9482 15.7444C75.457 16.231 74.8624 16.6031 74.2078 16.8336C73.5388 17.0734 72.8155 17.194 72.0376 17.194H71.4446C70.6288 17.194 69.8761 17.0734 69.1885 16.8336C68.5211 16.6065 67.9134 16.2344 67.4101 15.7444C66.9123 15.2583 66.5241 14.6453 66.2426 13.9066C65.9633 13.168 65.8222 12.2995 65.8222 11.3018C65.8222 10.3162 65.9626 9.45482 66.2433 8.71545C66.5241 7.9768 66.9094 7.36089 67.4 6.86846C67.8916 6.37531 68.4899 5.99945 69.1498 5.76934C69.8259 5.52951 70.5651 5.40959 71.368 5.40959H71.9997ZM71.7512 13.5561C72.2353 13.5561 72.6271 13.3638 72.9272 12.9785C73.2266 12.5932 73.3763 12.0348 73.3763 11.3018C73.3763 10.5688 73.2266 10.0104 72.9272 9.62511C72.6271 9.23982 72.2353 9.04753 71.7512 9.04753H71.5979C71.0879 9.04753 70.6861 9.23982 70.3932 9.62511C70.0995 10.0104 69.9534 10.5688 69.9534 11.3018C69.9534 12.0341 70.0995 12.5932 70.3932 12.9785C70.6868 13.3638 71.0879 13.5561 71.5979 13.5561H71.7512ZM86.1889 11.7943H85.921L83.0146 14.3139V16.9854H78.6162V5.6182H83.0146V9.89971H83.397L86.1889 7.47513V5.6182H90.5873V16.9854H86.1889V11.7943ZM103.457 11.8893C103.419 12.8238 103.253 13.6256 102.96 14.2948C102.667 14.9646 102.278 15.5173 101.793 15.953C101.304 16.3917 100.723 16.7182 100.092 16.9095C99.4413 17.1117 98.7337 17.2125 97.9687 17.2125H97.3764C96.5599 17.2125 95.805 17.0897 95.1103 16.8435C94.4358 16.61 93.8218 16.2315 93.3125 15.7352C92.809 15.242 92.4165 14.6268 92.1365 13.8875C91.8557 13.1495 91.7218 12.2867 91.7347 11.3018C91.7476 10.3162 91.8944 9.45482 92.1744 8.71545C92.4552 7.9768 92.8405 7.36089 93.3311 6.86846C93.8242 6.37462 94.4222 5.99597 95.0816 5.76012C95.757 5.5139 96.4962 5.39114 97.2998 5.39114H97.9308C98.6828 5.39114 99.3869 5.49474 100.044 5.70335C100.679 5.89948 101.265 6.22532 101.765 6.65984C102.255 7.08984 102.651 7.62343 102.951 8.26062C103.25 8.89923 103.419 9.64072 103.457 10.4872H99.2694C99.2057 10.0069 99.0302 9.64711 98.7437 9.40728C98.4565 9.16744 98.1027 9.04753 97.6822 9.04753H97.5096C97.0126 9.04753 96.6172 9.23982 96.3243 9.62511C96.0313 10.0104 95.8845 10.5688 95.8845 11.3018C95.8845 12.0341 96.0313 12.5932 96.3243 12.9785C96.6172 13.3638 97.0126 13.5561 97.5096 13.5561H97.6822C98.1284 13.5561 98.498 13.4142 98.791 13.1304C99.0846 12.8458 99.2501 12.4321 99.2887 11.8886H103.457V11.8893ZM109.711 12.7039H108.908V16.9854H104.509V5.6182H108.908V9.59673H109.73L111.948 5.6182H116.518L113.573 10.9045L117.092 16.9854H112.197L109.711 12.7039Z" fill="black" fill-opacity="0.9"/>
    <path d="M126.337 19.2845L129.448 19.8219L132.357 5.11326L129.247 4.57586L126.337 19.2845ZM118.912 8.75559V11.6217H129.307V8.75559H118.912ZM123.588 16.8762L126.297 3.103L123.227 2.5258L120.497 16.3189L123.588 16.8762ZM145 7.99926C145 2.94377 139.963 -0.400012 133.301 0.316514L132.658 3.58069C137.515 2.92387 141.609 4.49625 141.548 8.49685C141.508 11.761 139.04 14.5674 135.809 15.8611L137.736 6.04872L134.645 5.51132L131.735 20.22C140.364 18.5879 145 13.4329 145 7.99926Z" fill="#FF6600"/>
</svg>
