<svg height="15" xmlns="http://www.w3.org/2000/svg" viewBox="0 0 118 15" fill="none">
    <path fill-rule="evenodd" clip-rule="evenodd" d="M5.6224 9.23366H4.58888V14.7654H0V0.556396H4.5896V5.72912H5.71766L8.24237 0.556396H12.9086L9.65692 7.20643L13.4057 14.7654H8.35625L5.62168 9.23366H5.6224ZM21.2842 9.57425H21.0163L18.1099 12.0939V14.7654H13.7115V3.3982H18.1099V7.67971H18.4923L21.2842 5.25442V3.3982H25.6826V14.7654H21.2849V9.57425H21.2842ZM34.5946 10.7493H31.6108V14.7654H27.2131V3.3982H31.6108V7.2632H34.5946V3.3982H38.9922V14.7654H34.5946V10.7493ZM46.2591 3.18959C47.0498 3.18959 47.7825 3.31022 48.4579 3.54934C49.1181 3.77936 49.7167 4.15522 50.2084 4.64845C50.699 5.14089 51.0851 5.75679 51.3651 6.49545C51.6459 7.23482 51.7863 8.09623 51.7863 9.08181C51.7863 10.0795 51.6459 10.948 51.3651 11.6866C51.0851 12.4253 50.699 13.0383 50.2084 13.5244C49.717 14.0109 49.1225 14.383 48.468 14.6136C47.7714 14.8583 47.0369 14.9803 46.2978 14.974H45.7047C44.8882 14.974 44.1362 14.8534 43.4486 14.6136C42.781 14.3866 42.173 14.0145 41.6695 13.5244C41.1724 13.0383 40.7835 12.4253 40.5035 11.6866C40.2227 10.948 40.0824 10.0795 40.0824 9.08181C40.0824 8.09623 40.2227 7.23482 40.5035 6.49545C40.7835 5.75679 41.1696 5.14089 41.6602 4.64845C42.1517 4.15531 42.7501 3.77945 43.41 3.54934C44.0861 3.30951 44.8252 3.18959 45.6281 3.18959H46.2591ZM46.0106 11.3361C46.4955 11.3361 46.8872 11.1438 47.1866 10.7585C47.4867 10.3732 47.6364 9.81479 47.6364 9.08181C47.6364 8.34954 47.486 7.7904 47.1866 7.40511C46.8872 7.01982 46.4955 6.82753 46.0106 6.82753H45.858C45.3481 6.82753 44.9463 7.01982 44.6533 7.40511C44.3597 7.7904 44.2136 8.34883 44.2136 9.08181C44.2136 9.81408 44.3597 10.3732 44.6533 10.7585C44.947 11.1438 45.3481 11.3361 45.858 11.3361H46.0106ZM52.6851 0.556396H64.924V14.7654H60.3344V4.2511H57.2747V14.7654H52.6851V0.556396ZM71.9997 3.18959C72.7897 3.18959 73.5231 3.31022 74.1985 3.54934C74.8584 3.77929 75.4568 4.15518 75.9482 4.64845C76.4389 5.14089 76.8249 5.75679 77.105 6.49545C77.3857 7.23482 77.5261 8.09623 77.5261 9.08181C77.5261 10.0795 77.3857 10.948 77.105 11.6866C76.8249 12.4253 76.4389 13.0383 75.9482 13.5244C75.457 14.011 74.8624 14.3831 74.2078 14.6136C73.5388 14.8534 72.8155 14.974 72.0376 14.974H71.4446C70.6288 14.974 69.8761 14.8534 69.1885 14.6136C68.5211 14.3865 67.9134 14.0144 67.4101 13.5244C66.9123 13.0383 66.5241 12.4253 66.2426 11.6866C65.9633 10.948 65.8222 10.0795 65.8222 9.08181C65.8222 8.09623 65.9626 7.23482 66.2433 6.49545C66.5241 5.75679 66.9094 5.14089 67.4001 4.64845C67.8916 4.15531 68.4899 3.77945 69.1498 3.54934C69.8259 3.30951 70.5651 3.18959 71.368 3.18959H71.9997ZM71.7511 11.3361C72.2353 11.3361 72.6271 11.1438 72.9272 10.7585C73.2266 10.3732 73.3763 9.81479 73.3763 9.08181C73.3763 8.34883 73.2266 7.7904 72.9272 7.40511C72.6271 7.01982 72.2353 6.82753 71.7511 6.82753H71.5979C71.0879 6.82753 70.6861 7.01982 70.3932 7.40511C70.0995 7.7904 69.9534 8.34883 69.9534 9.08181C69.9534 9.81408 70.0995 10.3732 70.3932 10.7585C70.6868 11.1438 71.0879 11.3361 71.5979 11.3361H71.7511ZM86.1889 9.57425H85.921L83.0146 12.0939V14.7654H78.6162V3.3982H83.0146V7.67971H83.397L86.1889 5.25513V3.3982H90.5873V14.7654H86.1889V9.57425ZM103.457 9.66933C103.419 10.6038 103.253 11.4056 102.96 12.0748C102.667 12.7446 102.278 13.2973 101.793 13.733C101.304 14.1717 100.723 14.4982 100.092 14.6895C99.4413 14.8917 98.7337 14.9925 97.9687 14.9925H97.3764C96.5599 14.9925 95.805 14.8697 95.1103 14.6235C94.4358 14.39 93.8218 14.0115 93.3125 13.5152C92.809 13.022 92.4165 12.4068 92.1365 11.6675C91.8557 10.9295 91.7218 10.0667 91.7347 9.08181C91.7476 8.09623 91.8944 7.23482 92.1744 6.49545C92.4552 5.75679 92.8405 5.14089 93.3311 4.64845C93.8241 4.15461 94.4222 3.77597 95.0816 3.54011C95.757 3.2939 96.4962 3.17114 97.2998 3.17114H97.9308C98.6828 3.17114 99.3869 3.27474 100.044 3.48335C100.679 3.67948 101.265 4.00532 101.765 4.43984C102.255 4.86984 102.651 5.40343 102.951 6.04062C103.25 6.67923 103.419 7.42072 103.457 8.26723H99.2694C99.2057 7.78686 99.0302 7.42711 98.7437 7.18728C98.4565 6.94744 98.1027 6.82753 97.6822 6.82753H97.5096C97.0126 6.82753 96.6172 7.01982 96.3243 7.40511C96.0313 7.7904 95.8845 8.34883 95.8845 9.08181C95.8845 9.81408 96.0313 10.3732 96.3243 10.7585C96.6172 11.1438 97.0126 11.3361 97.5096 11.3361H97.6822C98.1284 11.3361 98.498 11.1942 98.791 10.9104C99.0846 10.6258 99.2501 10.2121 99.2887 9.66862H103.457V9.66933ZM109.711 10.4839H108.908V14.7654H104.509V3.3982H108.908V7.37673H109.73L111.948 3.3982H116.518L113.573 8.68446L117.092 14.7654H112.197L109.711 10.4839Z" fill="black" fill-opacity="0.9"/>
</svg>
