<svg xmlns="http://www.w3.org/2000/svg" height="27" viewBox="0 0 95 27" fill="none">
    <mask id="mask0_38:13683" style="mask-type:alpha" maskUnits="userSpaceOnUse" x="0" y="3" width="20" height="21">
        <circle cx="10" cy="13.33" r="10" fill="white"/>
    </mask>
    <g mask="url(#mask0_38:13683)">
        <path d="M0.000976562 3.32996H20.7289V23.33H0.000976562V3.32996Z" fill="url(#paint0_linear_38:13683)"/>
        <path d="M13.0572 20.9921C13.0485 20.9042 13.0399 20.8163 13.0312 20.7242C12.6102 16.4329 12.4019 14.2852 10.8873 12.8283C9.37696 11.3672 7.15058 11.1662 2.70215 10.7601C2.61101 10.7518 2.51554 10.7434 2.4244 10.735C0.96184 10.601 -0.101442 9.31996 0.0851747 7.91327C0.0157359 8.21889 -0.02332 8.54125 0.0157394 8.85106C0.0938581 9.5544 0.306511 10.2619 0.558227 10.8062C1.26564 12.3385 2.74989 14.7876 5.80086 17.735C8.85183 20.6781 11.395 22.1099 12.9791 22.7923C13.5433 23.0351 14.2767 23.2403 15.0059 23.3156C15.327 23.3533 15.6612 23.3115 15.978 23.2487C14.5241 23.4287 13.1961 22.403 13.0572 20.9921Z" fill="url(#paint1_linear_38:13683)"/>
    </g>
    <path d="M24.8151 18.56V20.98C24.8151 20.98 25.1891 21.2 25.9151 21.2C28.5111 21.2 29.2371 19.066 29.3691 13.478L29.5231 7.75798H33.2631V20.98H35.9251V5.68998H27.1251L26.9271 13.522C26.8391 17.24 26.6411 18.758 25.5631 18.758C25.0351 18.758 24.8151 18.56 24.8151 18.56ZM46.404 13.434C46.404 10.75 45.04 9.73798 42.268 9.73798C40.53 9.73798 39.166 10.288 38.374 10.75V12.928C39.078 12.4 40.618 11.828 41.96 11.828C43.214 11.828 43.786 12.268 43.786 13.456V14.072H43.368C39.364 14.072 37.582 15.392 37.582 17.636C37.582 19.88 38.946 21.134 40.97 21.134C42.51 21.134 43.17 20.628 43.676 20.1H43.786C43.808 20.386 43.896 20.76 43.984 20.98H46.536C46.448 20.078 46.404 19.176 46.404 18.274V13.434ZM43.786 18.34C43.456 18.824 42.84 19.22 41.916 19.22C40.816 19.22 40.266 18.56 40.266 17.57C40.266 16.272 41.168 15.81 43.412 15.81H43.786V18.34ZM52.8649 20.98C55.4609 20.98 57.0009 19.88 57.0009 17.768C57.0009 16.316 56.1209 15.48 54.6469 15.216C55.8349 14.886 56.5829 14.05 56.5829 12.73C56.5829 10.838 55.3289 9.91398 52.9089 9.91398H48.5089V20.98H52.8649ZM52.5349 11.894C53.4809 11.894 54.0089 12.29 54.0089 13.126C54.0089 13.896 53.4369 14.358 52.4469 14.358H51.1269V11.894H52.5349ZM52.5789 16.272C53.7009 16.272 54.2949 16.668 54.2949 17.592C54.2949 18.604 53.6349 19 52.5789 19H51.1269V16.272H52.5789ZM65.247 20.98H68.217L64.015 15.018L67.711 9.91398H65.071L61.375 15.018V9.91398H58.757V20.98H61.375V15.546L65.247 20.98ZM77.1266 13.434C77.1266 10.75 75.7626 9.73798 72.9906 9.73798C71.2526 9.73798 69.8886 10.288 69.0966 10.75V12.928C69.8006 12.4 71.3406 11.828 72.6826 11.828C73.9366 11.828 74.5086 12.268 74.5086 13.456V14.072H74.0906C70.0866 14.072 68.3046 15.392 68.3046 17.636C68.3046 19.88 69.6686 21.134 71.6926 21.134C73.2326 21.134 73.8926 20.628 74.3986 20.1H74.5086C74.5306 20.386 74.6186 20.76 74.7066 20.98H77.2586C77.1706 20.078 77.1266 19.176 77.1266 18.274V13.434ZM74.5086 18.34C74.1786 18.824 73.5626 19.22 72.6386 19.22C71.5386 19.22 70.9886 18.56 70.9886 17.57C70.9886 16.272 71.8906 15.81 74.1346 15.81H74.5086V18.34Z" fill="black"/>
    <defs>
        <linearGradient id="paint0_linear_38:13683" x1="0.000976135" y1="23.33" x2="22.2123" y2="5.14153" gradientUnits="userSpaceOnUse">
            <stop stop-color="#00BFFF"/>
            <stop offset="1" stop-color="#80FFEA"/>
        </linearGradient>
        <linearGradient id="paint1_linear_38:13683" x1="6.17593" y1="17.6249" x2="10.3791" y2="13.7014" gradientUnits="userSpaceOnUse">
            <stop stop-color="#E6FBFF"/>
            <stop offset="1" stop-color="white"/>
        </linearGradient>
    </defs>
</svg>
