<svg xmlns="http://www.w3.org/2000/svg" height="26" fill="none" viewBox="0 0 78 21"><path fill="#000" d="M24.815 16.56v2.42s.374.22 1.1.22c2.596 0 3.322-2.134 3.454-7.722l.154-5.72h3.74V18.98h2.662V3.69h-8.8l-.198 7.832c-.088 3.718-.286 5.236-1.364 5.236-.528 0-.748-.198-.748-.198Zm21.589-5.126c0-2.684-1.364-3.696-4.136-3.696-1.738 0-3.102.55-3.894 1.012v2.178c.704-.528 2.244-1.1 3.586-1.1 1.254 0 1.826.44 1.826 1.628v.616h-.418c-4.004 0-5.786 1.32-5.786 3.564 0 2.244 1.364 3.498 3.388 3.498 1.54 0 2.2-.506 2.706-1.034h.11c.022.286.11.66.198.88h2.552a27.852 27.852 0 0 1-.132-2.706v-4.84Zm-2.618 4.906c-.33.484-.946.88-1.87.88-1.1 0-1.65-.66-1.65-1.65 0-1.298.902-1.76 3.146-1.76h.374v2.53Zm9.079 2.64c2.596 0 4.136-1.1 4.136-3.212 0-1.452-.88-2.288-2.354-2.552 1.188-.33 1.936-1.166 1.936-2.486 0-1.892-1.254-2.816-3.674-2.816h-4.4V18.98h4.356Zm-.33-9.086c.946 0 1.474.396 1.474 1.232 0 .77-.572 1.232-1.562 1.232h-1.32V9.894h1.408Zm.044 4.378c1.122 0 1.716.396 1.716 1.32 0 1.012-.66 1.408-1.716 1.408h-1.452v-2.728h1.452Zm12.668 4.708h2.97l-4.202-5.962 3.696-5.104h-2.64l-3.696 5.104V7.914h-2.618V18.98h2.618v-5.434l3.872 5.434Zm11.88-7.546c0-2.684-1.364-3.696-4.136-3.696-1.738 0-3.102.55-3.894 1.012v2.178c.704-.528 2.244-1.1 3.586-1.1 1.254 0 1.826.44 1.826 1.628v.616h-.418c-4.004 0-5.786 1.32-5.786 3.564 0 2.244 1.364 3.498 3.388 3.498 1.54 0 2.2-.506 2.706-1.034h.11c.022.286.11.66.198.88h2.552a27.852 27.852 0 0 1-.132-2.706v-4.84Zm-2.618 4.906c-.33.484-.946.88-1.87.88-1.1 0-1.65-.66-1.65-1.65 0-1.298.902-1.76 3.146-1.76h.374v2.53Z"/><g clip-path="url(#a)"><path fill="url(#b)" d="M.001 10.33c0-5.523 4.477-10 10-10h.728c5.523 0 10 4.477 10 10s-4.477 10-10 10H10c-5.523 0-10-4.477-10-10Z"/><path fill="url(#c)" d="M13.057 17.992a59.293 59.293 0 0 1-.026-.268c-.421-4.291-.63-6.439-2.144-7.896-1.51-1.46-3.737-1.662-8.185-2.068l-.278-.025C.962 7.601-.102 6.32.084 4.913a2.75 2.75 0 0 0-.069.938c.079.703.291 1.41.543 1.955.707 1.532 2.192 3.982 5.243 6.929 3.05 2.943 5.594 4.375 7.178 5.057a7.205 7.205 0 0 0 2.027.524c.32.037.655-.005.972-.067-1.454.18-2.782-.846-2.921-2.257Z"/></g><defs><linearGradient id="b" x1=".001" x2="22.212" y1="20.33" y2="2.142" gradientUnits="userSpaceOnUse"><stop stop-color="#00BFFF"/><stop offset="1" stop-color="#80FFEA"/></linearGradient><linearGradient id="c" x1="6.176" x2="10.379" y1="14.625" y2="10.701" gradientUnits="userSpaceOnUse"><stop stop-color="#E6FBFF"/><stop offset="1" stop-color="#fff"/></linearGradient><clipPath id="a"><rect width="20.729" height="20" y=".33" fill="#fff" rx="10"/></clipPath></defs></svg>
