<svg viewBox="0 0 360 271" fill="none" xmlns="http://www.w3.org/2000/svg">
    <g clip-path="url(#clip0_38:13528)">
        <path d="M180.524 223.646L173.458 221.743C171.099 221.103 168.741 220.476 166.382 219.862C161.664 218.62 156.95 217.371 152.222 216.162L138.047 212.513L137.161 212.289C136.856 212.208 136.595 212.15 136.243 212.047C135.573 211.849 134.937 211.553 134.354 211.169C133.185 210.401 132.266 209.309 131.709 208.026C131.152 206.744 130.98 205.327 131.216 203.949C131.242 203.776 131.283 203.607 131.323 203.438L131.433 202.99L131.661 202.104L132.113 200.33L139.333 171.962L146.475 143.575C148.871 134.114 151.2 124.642 153.559 115.174L157.086 100.966L158.846 93.8635L159.739 90.3143L159.959 89.4288C160.045 89.0881 160.151 88.753 160.279 88.4258C160.542 87.7643 160.901 87.1452 161.345 86.5887C162.231 85.4626 163.427 84.6195 164.786 84.1627C166.145 83.7059 167.607 83.6552 168.994 84.0168L176.085 85.8245L190.268 89.4472L204.435 93.1214L218.592 96.847C218.795 96.8986 218.969 97.0288 219.076 97.209C219.183 97.3892 219.215 97.6046 219.163 97.8077C219.111 98.0109 218.981 98.1853 218.801 98.2924C218.621 98.3996 218.405 98.4307 218.202 98.3791L203.98 94.9254L189.768 91.4165L175.571 87.8636L168.458 86.0853C167.469 85.8191 166.425 85.8481 165.452 86.1687C164.48 86.4893 163.623 87.0874 162.987 87.8893C162.671 88.2871 162.414 88.729 162.226 89.201C162.13 89.4399 162.052 89.6855 161.991 89.9359L161.763 90.825L160.863 94.3706L159.026 101.458L155.378 115.629C152.949 125.079 150.498 134.525 148.107 143.986L140.898 172.355L133.766 200.745L133.318 202.52L133.098 203.409L132.987 203.846C132.958 203.975 132.929 204.103 132.91 204.235C132.727 205.275 132.855 206.347 133.278 207.314C133.594 208.038 134.065 208.684 134.658 209.207C135.251 209.729 135.951 210.115 136.709 210.338C136.941 210.404 137.275 210.485 137.558 210.559L138.447 210.779L152.655 214.303C157.387 215.482 162.131 216.621 166.874 217.771C169.244 218.344 171.618 218.917 173.991 219.476L181.115 221.151C181.285 221.185 181.446 221.252 181.589 221.349C181.732 221.446 181.854 221.571 181.947 221.716C182.041 221.861 182.104 222.024 182.134 222.194C182.163 222.364 182.158 222.539 182.118 222.707C182.079 222.875 182.006 223.034 181.904 223.173C181.802 223.312 181.672 223.43 181.524 223.518C181.375 223.606 181.211 223.664 181.039 223.687C180.868 223.71 180.694 223.699 180.527 223.653L180.524 223.646Z" fill="#1E22AA"/>
        <path d="M222.416 97.2989C224.182 97.7503 225.727 98.822 226.768 100.318C227.809 101.815 228.277 103.635 228.086 105.448C228.064 105.672 228.027 105.896 227.983 106.117C227.939 106.337 227.884 106.561 227.84 106.73L227.56 107.833L227.006 110.015L225.903 114.376L221.446 131.821L212.537 166.707L203.623 201.612L199.152 219.024L198.872 220.126C198.778 220.531 198.655 220.929 198.505 221.317C198.191 222.128 197.732 222.875 197.149 223.521C195.983 224.82 194.388 225.658 192.656 225.88C191.797 225.991 190.926 225.945 190.084 225.744L187.879 225.174L183.522 224.021C183.291 223.962 183.093 223.814 182.971 223.61C182.849 223.405 182.813 223.16 182.871 222.93C182.93 222.699 183.078 222.5 183.282 222.378C183.487 222.256 183.732 222.221 183.963 222.279L188.335 223.348L190.503 223.874C191.124 224.02 191.766 224.051 192.399 223.966C193.674 223.796 194.847 223.176 195.705 222.217C196.128 221.742 196.461 221.194 196.686 220.6C196.803 220.286 196.899 219.964 196.973 219.637L197.245 218.535L201.617 201.068L210.358 166.138L219.102 131.208L223.475 113.741L224.577 109.376L225.124 107.19L225.396 106.087C225.448 105.893 225.477 105.753 225.51 105.606C225.543 105.459 225.562 105.312 225.576 105.162C225.697 103.959 225.381 102.753 224.686 101.763C223.991 100.774 222.964 100.067 221.792 99.7716C221.469 99.6815 221.195 99.4693 221.027 99.1801C220.858 98.8908 220.809 98.5473 220.89 98.2225C220.971 97.8977 221.175 97.6172 221.459 97.4406C221.744 97.264 222.086 97.2053 222.413 97.2768L222.416 97.2989Z" fill="#1E22AA"/>
        <path d="M183.327 97.4495C186.608 98.4268 189.966 99.1911 193.284 100.021C196.602 100.852 199.93 101.712 203.281 102.461C203.437 102.503 203.603 102.482 203.742 102.402C203.882 102.323 203.985 102.19 204.027 102.035C204.07 101.879 204.048 101.714 203.969 101.574C203.889 101.434 203.756 101.331 203.601 101.289C200.294 100.356 196.987 99.5254 193.655 98.684C190.323 97.8427 187.016 96.9168 183.665 96.2187C183.506 96.1841 183.34 96.2116 183.201 96.2957C183.062 96.3797 182.96 96.5138 182.917 96.6705C182.874 96.8271 182.892 96.9944 182.968 97.1379C183.045 97.2815 183.173 97.3903 183.327 97.4422V97.4495Z" fill="#1E22AA"/>
        <path d="M167.998 206.12C164.49 204.518 160.132 207.781 160.705 211.58C160.877 212.548 161.295 213.455 161.919 214.215C162.543 214.974 163.353 215.56 164.269 215.916C165.154 216.247 166.116 216.314 167.038 216.109C167.96 215.905 168.803 215.436 169.464 214.762C170.2 214.037 170.734 213.133 171.015 212.139C171.268 211.216 171.382 209.897 170.835 209.06C170.548 208.633 169.755 208.751 169.791 209.342C169.843 210.077 170.045 210.724 169.894 211.47C169.75 212.171 169.447 212.829 169.009 213.395C168.595 213.96 168.032 214.398 167.383 214.662C166.734 214.925 166.025 215.003 165.335 214.887C164.581 214.715 163.885 214.352 163.313 213.833C162.74 213.313 162.312 212.655 162.068 211.922C161.856 211.24 161.847 210.51 162.043 209.823C162.239 209.136 162.631 208.521 163.171 208.053C163.752 207.513 164.469 207.139 165.245 206.972C166.021 206.806 166.827 206.851 167.58 207.105C168.149 207.296 168.55 206.37 167.995 206.128L167.998 206.12Z" fill="#1E22AA"/>
        <path d="M136.404 196.619C144.072 198.823 151.817 200.749 159.552 202.692L182.68 208.516C184.844 209.063 187.009 209.618 189.18 210.125C190.253 210.379 191.326 210.628 192.395 210.897C193.519 211.176 194.643 211.514 195.79 211.683C195.958 211.732 196.139 211.711 196.293 211.627C196.447 211.542 196.56 211.4 196.609 211.231C196.658 211.062 196.638 210.881 196.553 210.728C196.468 210.574 196.326 210.46 196.157 210.412C195.209 210.066 194.214 209.857 193.24 209.603C192.266 209.35 191.289 209.093 190.301 208.832C188.412 208.325 186.52 207.835 184.624 207.362L172.977 204.423C165.261 202.464 157.575 200.48 149.863 198.544C145.498 197.442 141.133 196.402 136.735 195.447C136.578 195.403 136.41 195.424 136.269 195.504C136.127 195.585 136.023 195.718 135.98 195.875C135.937 196.032 135.957 196.199 136.038 196.341C136.118 196.483 136.251 196.586 136.408 196.63L136.404 196.619Z" fill="#1E22AA"/>
        <path d="M161.576 99.1213C162.63 99.4409 163.67 99.7899 164.728 100.091C165.787 100.393 166.841 100.683 167.903 100.958C169.96 101.491 172.018 102.009 174.079 102.531L186.571 105.665C194.875 107.752 203.18 109.834 211.486 111.911C216.203 113.098 220.921 114.332 225.679 115.343C226.554 115.526 226.917 114.24 226.047 113.998C221.902 112.774 217.699 111.753 213.518 110.691C209.336 109.629 205.199 108.579 201.04 107.509C192.74 105.404 184.451 103.269 176.151 101.16C173.8 100.562 171.452 99.959 169.093 99.3784C167.94 99.0919 166.79 98.8089 165.629 98.5554C164.401 98.2835 163.167 98.0631 161.936 97.8206C161.762 97.7719 161.576 97.7942 161.419 97.8828C161.261 97.9713 161.145 98.1188 161.097 98.2927C161.048 98.4667 161.07 98.6528 161.159 98.8103C161.247 98.9677 161.395 99.0836 161.569 99.1323L161.576 99.1213Z" fill="#1E22AA"/>
        <path d="M158.148 100.495L157.167 100.227L156.678 100.095L156.439 100.029C156.39 100.015 156.34 100.006 156.289 99.9994C156.085 99.976 155.878 100.014 155.696 100.108C155.513 100.202 155.363 100.349 155.264 100.528C155.239 100.574 155.217 100.62 155.198 100.668C155.179 100.731 155.168 100.749 155.146 100.844L155.025 101.337L154.786 102.325L154.312 104.294L153.357 108.233L153.118 109.222L153.059 109.468C153.038 109.541 153.021 109.616 153.008 109.692C152.981 109.812 152.973 109.936 152.986 110.059C153.01 110.299 153.105 110.527 153.258 110.714C153.411 110.901 153.615 111.039 153.846 111.11C153.962 111.15 154.059 111.233 154.116 111.342C154.174 111.452 154.188 111.578 154.155 111.697C154.122 111.816 154.045 111.918 153.94 111.982C153.835 112.047 153.709 112.068 153.588 112.043C153.166 111.925 152.787 111.685 152.5 111.353C152.213 111.021 152.031 110.612 151.975 110.177C151.94 109.959 151.94 109.737 151.975 109.519C151.975 109.398 152.008 109.335 152.027 109.247L152.082 109.001L152.291 108.009L153.133 104.045L153.555 102.061L153.765 101.069L153.871 100.573C153.871 100.503 153.923 100.363 153.952 100.26C153.99 100.149 154.035 100.041 154.088 99.9369C154.304 99.515 154.641 99.1673 155.056 98.9382C155.471 98.7091 155.945 98.6091 156.417 98.651C156.541 98.6593 156.664 98.6777 156.785 98.7061L157.035 98.7649L157.527 98.8861L158.512 99.1249C158.693 99.1743 158.849 99.2914 158.946 99.452C159.044 99.6126 159.077 99.8045 159.037 99.9884C158.989 100.17 158.87 100.326 158.708 100.421C158.546 100.516 158.352 100.542 158.17 100.495H158.148Z" fill="#1E22AA"/>
        <path d="M78.6244 64.7678C73.1902 68.4625 68.3403 72.9507 64.2364 78.083C59.9059 83.5662 56.4254 89.67 53.912 96.1893C51.2372 103.075 49.5728 110.298 49.503 117.701C49.4222 125.219 50.7412 132.74 52.9641 139.904C55.2264 147.163 58.3783 154.113 62.3479 160.597C62.8231 161.376 63.313 162.149 63.8176 162.916C64.5524 164.018 66.3307 162.993 65.6032 161.872C61.5712 155.676 58.3043 149.014 55.874 142.032C53.4564 135.073 51.8692 127.791 51.6193 120.42C51.4755 116.907 51.6711 113.388 52.2035 109.912C52.7978 106.335 53.6988 102.816 54.8967 99.3931C57.0938 92.9287 60.2522 86.8322 64.2658 81.3089C68.0305 76.1379 72.5541 71.5647 77.6839 67.7439C78.3085 67.281 78.9404 66.8303 79.5797 66.3918C79.7921 66.2606 79.9459 66.0529 80.0095 65.8115C80.0731 65.5702 80.0416 65.3136 79.9214 65.0948C79.7935 64.8789 79.5857 64.722 79.343 64.6581C79.1003 64.5942 78.8422 64.6283 78.6244 64.7531V64.7678Z" fill="#1E22AA"/>
        <path d="M170.199 81.5808C166.276 76.1105 161.553 71.2604 156.19 67.1928C151.26 63.3911 145.817 60.3061 140.023 58.0294C134.148 55.7447 127.982 54.2916 121.704 53.7123C115.325 53.0958 108.891 53.3977 102.598 54.6088C95.8392 55.9792 89.3415 58.4176 83.3494 61.8322C82.5668 62.2731 81.7952 62.725 81.031 63.1953C79.9839 63.8383 80.9502 65.4953 81.9936 64.8413C87.7768 61.22 94.0905 58.5249 100.706 56.8537C106.769 55.3383 113.023 54.7315 119.264 55.0534C125.442 55.3677 131.543 56.5578 137.385 58.5879C143.081 60.5324 148.465 63.2935 153.368 66.785C158.725 70.5757 163.503 75.1239 167.554 80.2875C168.061 80.9415 168.55 81.6065 169.024 82.2826C169.497 82.9586 170.706 82.312 170.196 81.5955L170.199 81.5808Z" fill="#1E22AA"/>
        <path d="M183.926 89.7521C180.419 81.2796 175.303 73.5673 168.861 67.0421C162.402 60.4953 154.792 55.1944 146.412 51.4049C137.301 47.2515 127.472 44.9033 117.467 44.4901C107.741 44.1387 98.049 45.827 89.0146 49.4465C80.1424 53.0236 72.0082 58.2106 65.0223 64.7458C57.3782 71.8373 51.3679 80.5066 47.4084 90.1526C43.3025 100.321 41.4498 111.26 41.9779 122.213C42.5159 133.156 45.2801 143.874 50.1015 153.712C54.7383 163.217 61.3445 171.781 68.4356 179.578C72.1428 183.656 76.0558 187.544 80.1305 191.258C82.1292 193.085 84.1696 194.867 86.2516 196.604C87.2657 197.452 88.2871 198.288 89.3159 199.114C90.1898 199.891 91.156 200.559 92.1927 201.101C94.5589 202.185 96.8038 201.524 98.7438 199.922C99.2692 199.492 99.192 198.599 98.7438 198.155C98.5067 197.925 98.1899 197.797 97.8601 197.797C97.5304 197.797 97.2136 197.925 96.9765 198.155C96.2159 198.779 95.279 199.294 94.2613 199.161C93.3317 199.044 92.494 198.456 91.7739 197.894C89.7531 196.314 87.7837 194.664 85.8401 192.989C81.7985 189.506 77.9113 185.854 74.1783 182.032C66.9402 174.589 60.1944 166.483 55.0139 157.445C49.8303 148.498 46.4711 138.613 45.1304 128.36C43.7976 117.849 44.7029 107.175 47.7868 97.038C50.751 87.3787 55.8007 78.4884 62.579 70.9955C68.8155 64.1025 76.2671 58.4158 84.5615 54.2193C92.8427 50.0711 101.864 47.6048 111.104 46.9628C120.873 46.3044 130.673 47.6626 139.894 50.953C148.284 53.9234 156.059 58.4065 162.832 64.1799C169.579 69.9231 175.195 76.8732 179.395 84.6744C180.409 86.5703 181.338 88.5102 182.18 90.4943C182.599 91.479 184.341 90.7625 183.926 89.7595V89.7521Z" fill="#1E22AA"/>
        <path d="M161.58 74.813C159.901 76.1467 157.424 75.963 155.528 75.2539C153.258 74.4052 151.373 72.7187 149.455 71.2895C145.733 68.5092 141.683 66.1979 137.396 64.4078C128.846 60.8754 119.577 59.4344 110.358 60.2045C101.527 60.9483 92.9993 63.7833 85.4804 68.4751C74.3719 75.3318 65.9176 85.7536 61.4992 98.0374C60.7386 100.08 59.9083 102.259 58.2218 103.725C57.0241 104.768 55.4221 105.084 53.8533 104.926C52.6859 104.773 51.5463 104.454 50.4693 103.979C50.2258 103.912 49.9657 103.945 49.7461 104.069C49.5264 104.194 49.3651 104.4 49.2973 104.644C49.2367 104.886 49.2719 105.143 49.3958 105.361C49.5196 105.578 49.7225 105.74 49.9623 105.812C52.0309 106.661 54.3382 107.186 56.5574 106.653C58.3945 106.212 59.8642 105.007 60.9664 103.49C62.3626 101.561 63.0534 99.2205 63.9058 97.0233C64.6753 95.0558 65.5636 93.1368 66.5658 91.2769C70.6519 83.7123 76.4081 77.1784 83.3972 72.1713C90.5487 67.0143 98.8447 63.6694 107.573 62.4237C116.789 61.1859 126.168 62.2293 134.887 65.4623C139.244 67.0377 143.384 69.16 147.206 71.7781C150.914 74.3501 154.808 78.3916 159.772 77.271C160.81 77.028 161.768 76.5219 162.553 75.8013C163.218 75.1951 162.259 74.2949 161.583 74.8314L161.58 74.813Z" fill="#1E22AA"/>
        <path d="M76.2802 150.633C75.8035 150.222 75.2126 149.965 74.5864 149.898C73.6826 149.898 72.8486 150.424 72.1505 150.934C70.5443 152.04 69.2853 153.579 68.5204 155.373C67.5562 157.763 66.763 160.218 66.1469 162.721C65.9739 163.293 65.8836 163.887 65.8787 164.485C65.9128 165.126 66.0845 165.752 66.382 166.322C66.8471 167.155 67.3856 167.946 67.9913 168.684C70.0525 171.451 72.2827 174.096 74.5534 176.694C77.4608 180.028 80.459 183.266 83.5477 186.408C86.7699 189.715 90.0914 192.908 93.5598 195.935C95.136 197.313 96.738 198.68 98.4207 199.926C100.217 201.259 102.738 201.145 104.828 200.789C106.682 200.515 108.471 199.912 110.112 199.007C110.811 198.564 111.466 198.056 112.07 197.49C112.945 196.707 113.97 195.932 114.642 194.973C115.315 194.014 115.763 192.724 115.498 191.607C115.201 190.347 114.062 189.454 113.198 188.572C111.163 186.489 109.186 184.34 107.173 182.231C98.9033 173.565 90.6303 164.9 82.3536 156.236C81.3518 155.185 80.3512 154.132 79.3518 153.076C78.5986 152.286 77.3972 153.488 78.154 154.278C86.0853 162.513 93.9885 170.782 101.863 179.086L107.742 185.258C108.722 186.287 109.702 187.322 110.681 188.363C111.563 189.304 112.541 190.178 113.378 191.155C114.969 193.025 112.39 194.918 111.13 196.064C110.108 197.067 108.882 197.839 107.536 198.327C105.651 198.978 103.653 199.477 101.658 199.316C100.723 199.25 99.8291 198.912 99.0857 198.342C98.3509 197.784 97.6308 197.212 96.9253 196.626C93.6186 193.915 90.4625 190.997 87.4093 187.992C81.6608 182.368 76.2468 176.411 71.1952 170.154C70.2987 169.052 69.5198 168.012 68.6563 166.821C68.0611 165.998 67.4108 165.102 67.5541 164.029C67.75 162.919 68.0313 161.826 68.3955 160.759C68.7629 159.506 69.1854 158.264 69.6337 157.037C69.865 156.286 70.1651 155.558 70.5302 154.862C71.0128 154.085 71.6099 153.385 72.3011 152.786C72.911 152.217 73.6936 151.353 74.5717 151.221C74.4505 151.239 74.6636 151.221 74.6673 151.221H74.7334C74.6268 151.199 74.6709 151.221 74.8583 151.221C74.7481 151.221 75.02 151.247 75.0604 151.261C75.2971 151.34 75.5269 151.439 75.7475 151.555C75.8709 151.617 76.0132 151.629 76.1453 151.59C76.2775 151.55 76.3898 151.462 76.4594 151.343C76.529 151.224 76.5507 151.083 76.5201 150.948C76.4896 150.814 76.4091 150.696 76.2949 150.618L76.2802 150.633Z" fill="#1E22AA"/>
        <path d="M112.783 189.642C114.004 190.202 115.348 190.441 116.687 190.336C118.027 190.232 119.317 189.786 120.436 189.043C121.557 188.307 122.489 187.319 123.158 186.158C123.827 184.996 124.213 183.694 124.287 182.356C124.471 179.442 122.964 176.903 121.105 174.791C120.095 173.644 118.992 172.586 117.916 171.484L114.37 167.909C109.55 163.054 104.733 158.201 99.9198 153.348C97.5573 150.967 95.2058 148.572 92.836 146.213C90.8336 144.211 88.5887 142.293 85.6567 142.013C84.3551 141.9 83.0455 142.105 81.8409 142.611C80.6362 143.116 79.5726 143.908 78.7419 144.916C77.162 146.893 76.2435 149.637 77.0114 152.132C77.2183 152.803 77.5376 153.434 77.9557 153.999C78.0783 154.195 78.2714 154.337 78.4954 154.396C78.7195 154.455 78.9575 154.426 79.1608 154.315C79.3607 154.196 79.5057 154.003 79.5642 153.778C79.6227 153.553 79.5899 153.314 79.4731 153.113C78.0732 151.221 78.3304 148.855 79.4731 146.904C80.0172 145.973 80.7879 145.194 81.7136 144.641C82.6393 144.088 83.6899 143.778 84.7676 143.74C87.3395 143.663 89.3566 145.276 91.0981 146.974C93.3026 149.108 95.4153 151.313 97.5683 153.484C101.999 157.945 106.429 162.407 110.858 166.873L117.567 173.633C119.338 175.419 121.366 177.285 122.185 179.736C122.54 180.824 122.621 181.983 122.422 183.11C122.224 184.237 121.751 185.298 121.046 186.199C119.595 188.036 117.273 188.811 114.984 188.664C114.41 188.634 113.84 188.547 113.283 188.403C112.581 188.216 112.078 189.282 112.772 189.616L112.783 189.642Z" fill="#1E22AA"/>
        <path d="M214.976 92.2212C214.582 88.1845 214.175 84.1601 213.756 80.1479C213.512 77.5907 213.252 75.0347 212.978 72.4799C212.812 70.9037 212.412 69.1732 212.978 67.6557C213.3 66.8032 213.849 66.0551 214.566 65.4923C215.283 64.9295 216.14 64.5735 217.045 64.4629C217.71 64.3784 218.379 64.3086 219.044 64.2314L220.094 64.1102L220.462 64.0697H220.601C220.805 64.0633 220.998 63.9794 221.141 63.8353C221.285 63.6912 221.367 63.4977 221.373 63.2945C221.371 63.0905 221.289 62.8953 221.145 62.751C221.001 62.6067 220.805 62.5248 220.601 62.5229C219.473 62.6331 218.342 62.7066 217.214 62.7985C215.398 62.8926 213.687 63.682 212.437 65.003C211.832 65.6854 211.37 66.4827 211.079 67.3475C210.788 68.2123 210.674 69.1268 210.744 70.0366C210.777 70.5106 210.817 70.9845 210.861 71.4622C211.351 76.7456 211.852 82.0303 212.364 87.3162L212.838 92.2359C212.846 92.5168 212.962 92.784 213.16 92.9827C213.359 93.1814 213.626 93.2967 213.907 93.3051C214.19 93.3031 214.462 93.19 214.662 92.99C214.863 92.79 214.977 92.5192 214.98 92.2359L214.976 92.2212Z" fill="#1E22AA"/>
        <path d="M225.337 197.684C225.216 196.119 225.062 194.554 224.908 192.989L223.805 181.808L222.468 168.247L221.318 156.523C221.131 154.623 220.95 152.72 220.756 150.824C220.756 150.798 220.756 150.769 220.756 150.743C220.749 150.453 220.631 150.176 220.426 149.971C220.22 149.766 219.944 149.648 219.654 149.641C219.361 149.641 219.081 149.757 218.874 149.964C218.667 150.171 218.551 150.451 218.551 150.743C218.701 152.308 218.854 153.874 219.011 155.439L220.113 166.619L221.446 180.184L222.597 191.909C222.721 193.195 222.854 194.48 222.964 195.763L223.034 196.439C223.034 196.531 223.034 196.623 223.063 196.714C223.085 196.916 223.107 197.306 223.063 196.839C223.063 196.883 223.063 196.931 223.063 196.979C223.089 197.188 223.111 197.398 223.137 197.607V197.684C223.145 197.965 223.26 198.231 223.458 198.43C223.656 198.629 223.922 198.744 224.202 198.754C224.485 198.752 224.756 198.638 224.956 198.438C225.156 198.238 225.269 197.967 225.271 197.684H225.337Z" fill="#1E22AA"/>
        <path d="M224.966 63.684C226.62 63.684 228.273 63.5076 229.901 63.3533C231.528 63.199 233.189 63.0557 234.831 62.8977L244.696 61.9608C251.277 61.3435 257.854 60.6858 264.427 60.0392C269.346 59.5579 274.262 59.0839 279.178 58.5879L293.758 57.1182L296.8 56.8133C297.321 56.7582 297.843 56.6957 298.365 56.6847C298.846 56.6641 299.328 56.7073 299.798 56.8133C300.198 56.8942 300.582 57.0381 300.937 57.2395C301.276 57.4118 301.579 57.6475 301.83 57.9339C302.371 58.5498 302.762 59.2831 302.972 60.0759C303.114 60.5593 303.223 61.0515 303.299 61.5493C303.428 62.409 304.861 62.2069 304.813 61.3472C304.699 59.3778 304.126 57.2505 302.517 55.9645C301.633 55.2747 300.574 54.8447 299.46 54.7227C298.398 54.6369 297.329 54.669 296.274 54.8182L281.897 56.1923C277.111 56.6479 272.325 57.1133 267.539 57.5885C260.841 58.2499 254.139 58.8855 247.441 59.5726C240.743 60.2596 234.041 60.9247 227.347 61.6338C226.473 61.7293 225.613 61.8689 224.749 62.0379C223.812 62.218 224.044 63.684 224.97 63.6766L224.966 63.684Z" fill="#1E22AA"/>
        <path d="M224.709 203.372C224.834 204.783 225.076 205.988 226.16 206.987C227.483 208.222 229.177 208.615 230.937 208.534C233.09 208.435 235.254 208.141 237.4 207.932L243.822 207.303C252.383 206.466 260.944 205.606 269.512 204.79C281.703 203.632 293.892 202.468 306.081 201.3C308.586 201.057 311.225 201.006 313.675 200.425C315.88 199.904 317.765 198.588 318.15 196.251C318.374 194.885 318.194 193.521 318.062 192.155C317.849 189.975 317.635 187.796 317.419 185.618L316.166 172.818C314.546 156.251 312.86 139.695 311.21 123.132C309.556 106.448 307.903 89.7632 306.154 73.0898C305.93 70.9514 305.673 68.8168 305.419 66.6784C305.291 65.5761 303.582 65.5394 303.667 66.6784C304.956 83.0982 306.669 99.485 308.267 115.872C309.842 132.038 311.406 148.204 312.959 164.371C313.752 172.613 314.563 180.855 315.391 189.098C315.564 190.883 315.828 192.68 315.898 194.473C315.938 195.45 315.876 196.174 315.479 196.858C315.336 197.075 315.156 197.265 314.946 197.42C314.521 197.711 314.049 197.928 313.55 198.059C312.355 198.364 311.133 198.556 309.902 198.632C299.137 199.715 288.371 200.801 277.606 201.891C269.229 202.739 260.852 203.574 252.475 204.397L239.909 205.635L233.626 206.264C231.929 206.436 229.809 206.94 228.207 206.117C227.049 205.521 226.686 204.606 226.542 203.379C226.41 202.218 224.58 202.182 224.705 203.379L224.709 203.372Z" fill="#1E22AA"/>
        <path d="M224.566 60.7814C224.779 59.8849 225.047 59.0031 225.275 58.1102C225.565 56.9566 225.716 55.8212 226.689 55.024C226.988 54.7798 227.328 54.5907 227.692 54.4655C227.88 54.4034 228.073 54.3579 228.269 54.3295C228.376 54.3265 228.483 54.3179 228.589 54.3038L229.133 54.2524L233.428 53.8335C239.431 53.264 245.428 52.6615 251.431 52.0736C257.592 51.4661 263.753 50.8538 269.916 50.2365C273.144 49.9083 276.373 49.5813 279.601 49.2555C281.14 49.0975 282.684 48.8881 284.23 48.7889C285.134 48.7264 286.038 48.7889 286.733 49.329C287.427 49.8691 287.835 50.7325 288.202 51.5335C288.57 52.3345 288.996 53.1611 289.385 53.9805C290.086 55.4502 290.783 56.9259 291.476 58.4079C291.52 58.496 291.564 58.5879 291.604 58.6797C291.939 59.4146 293.045 58.7826 292.707 58.0331C292.655 57.9192 292.758 58.1617 292.729 58.0845L292.63 57.8457L292.284 57.019C291.917 56.1482 291.549 55.2738 291.182 54.403C290.79 53.4673 290.391 52.5329 289.984 51.5996C289.665 50.7559 289.268 49.944 288.797 49.1747C288.205 48.2535 287.301 47.5756 286.251 47.2641C284.995 46.9187 283.679 47.1355 282.408 47.2641L272.536 48.2157C266.103 48.8305 259.67 49.4539 253.235 50.0859C247.037 50.6921 240.835 51.2873 234.637 51.923L230.15 52.3639C228.934 52.4888 227.678 52.4925 226.553 53.0326C225.542 53.529 224.737 54.3653 224.279 55.395C223.706 56.6883 223.651 58.1727 223.438 59.5542C223.394 59.8445 223.339 60.1347 223.287 60.425C223.14 61.2517 224.367 61.6227 224.566 60.7924V60.7814Z" fill="#1E22AA"/>
        <path d="M310.163 200.014C310.244 200.341 310.347 200.663 310.471 200.976L310.365 200.583C310.449 201.465 310.523 202.347 310.604 203.229L311.405 202.428C301.025 203.39 290.653 204.456 280.281 205.474L249.59 208.486L231.988 210.221L232.8 211.033C232.722 210.254 232.638 209.478 232.557 208.699C232.498 208.123 232.443 207.546 232.359 206.973C232.333 206.789 232.307 206.605 232.274 206.422C232.23 206.139 232.274 206.502 232.274 206.363C232.269 206.169 232.191 205.985 232.054 205.848C231.917 205.711 231.733 205.633 231.539 205.628C231.344 205.628 231.157 205.705 231.02 205.843C230.882 205.981 230.804 206.168 230.804 206.363C230.959 207.917 231.036 209.478 231.172 211.033C231.212 211.437 231.514 211.892 231.988 211.848L263.111 208.791L293.798 205.771C299.677 205.194 305.555 204.64 311.405 204.03C311.798 203.989 312.25 203.695 312.202 203.229C312.143 202.652 312.084 202.075 312.022 201.498C312 201.289 311.978 201.079 311.952 200.87C311.926 200.688 311.926 200.504 311.952 200.322C311.97 200.139 311.981 199.955 311.996 199.764C311.994 199.632 311.963 199.503 311.907 199.384C311.851 199.265 311.77 199.159 311.67 199.073C311.57 198.988 311.453 198.924 311.327 198.887C311.2 198.85 311.068 198.84 310.937 198.857C310.807 198.875 310.682 198.92 310.57 198.99C310.458 199.059 310.362 199.152 310.289 199.261C310.215 199.37 310.166 199.494 310.143 199.624C310.121 199.753 310.126 199.886 310.159 200.014H310.163Z" fill="#1E22AA"/>
        <path d="M236.364 112.988C236.786 119.234 237.561 125.48 238.296 131.726C238.498 133.449 238.708 135.165 239.031 136.87C239.182 137.652 240.449 137.472 240.42 136.682C240.306 133.6 239.876 130.524 239.523 127.46C239.158 124.288 238.791 121.118 238.421 117.951C238.223 116.232 237.94 114.527 237.686 112.808C237.569 112.073 236.33 112.238 236.382 112.984L236.364 112.988Z" fill="#1E22AA"/>
        <path d="M241.371 113.572C242.106 113.796 243.036 113.531 243.778 113.45L246.35 113.164C248.022 112.977 249.693 112.796 251.354 112.525C252.089 112.403 251.931 111.147 251.174 111.198C249.502 111.308 247.845 111.503 246.181 111.698L243.682 111.984L242.466 112.128C242.03 112.141 241.602 112.242 241.206 112.425C241.103 112.49 241.02 112.583 240.968 112.693C240.916 112.803 240.897 112.926 240.913 113.047C240.929 113.168 240.979 113.281 241.058 113.374C241.137 113.467 241.24 113.536 241.357 113.572H241.371Z" fill="#1E22AA"/>
        <path d="M250.623 111.716C250.549 112.676 250.595 113.641 250.759 114.589L251.075 117.488L251.7 123.194C251.905 125.098 252.13 126.997 252.346 128.9C252.563 130.804 252.714 132.791 253.081 134.706C253.224 135.495 254.518 135.312 254.481 134.514C254.389 132.578 254.114 130.646 253.882 128.72C253.651 126.795 253.467 124.976 253.246 123.103L252.585 117.488L252.247 114.589C252.137 113.649 252.111 112.609 251.766 111.716C251.582 111.25 250.726 111.081 250.634 111.716H250.623Z" fill="#1E22AA"/>
        <path d="M243.888 135.969C244.285 135.969 244.682 136.025 245.082 136.01C245.483 135.995 245.916 135.944 246.331 135.896L248.756 135.631C250.373 135.451 252.085 135.385 253.654 134.966C253.816 134.918 253.956 134.814 254.048 134.672C254.14 134.53 254.178 134.359 254.155 134.192C254.133 134.024 254.051 133.87 253.924 133.757C253.798 133.645 253.636 133.581 253.467 133.578C251.857 133.522 250.193 133.838 248.595 134.026L246.173 134.309C245.74 134.36 245.303 134.404 244.876 134.489C244.45 134.573 244.116 134.709 243.726 134.794C243.065 134.941 243.219 135.973 243.888 135.969Z" fill="#1E22AA"/>
        <path d="M243.987 124.341C244.325 124.341 244.66 124.392 245.005 124.37C245.351 124.348 245.63 124.311 245.942 124.278L248.018 124.047C249.377 123.892 250.733 123.731 252.082 123.488C252.798 123.36 252.633 122.18 251.909 122.213C250.557 122.279 249.219 122.423 247.867 122.581L245.795 122.82C245.464 122.86 245.134 122.9 244.803 122.952C244.472 123.003 244.153 123.139 243.822 123.205C243.175 123.33 243.326 124.366 243.976 124.344L243.987 124.341Z" fill="#1E22AA"/>
        <path d="M259.022 113.811C258.467 114.199 258.035 114.739 257.776 115.365C257.576 115.919 257.543 116.519 257.681 117.092C257.807 117.66 258.112 118.173 258.551 118.556C258.99 118.939 259.54 119.171 260.121 119.219C261.41 119.329 262.692 118.389 263.229 117.257C263.503 116.691 263.588 116.051 263.472 115.433C263.355 114.814 263.044 114.25 262.582 113.822C261.627 112.925 260.01 112.466 258.868 113.267C258.737 113.346 258.639 113.47 258.591 113.615C258.543 113.761 258.549 113.919 258.607 114.06C258.665 114.2 258.771 114.313 258.906 114.381C259.041 114.448 259.195 114.465 259.342 114.428C259.536 114.36 259.735 114.307 259.937 114.27C259.966 114.27 260.15 114.237 259.974 114.27H260.139C260.253 114.27 260.363 114.27 260.473 114.27C260.657 114.27 260.334 114.237 260.514 114.27C260.55 114.27 260.591 114.27 260.628 114.292C260.739 114.314 260.848 114.345 260.955 114.384L261.061 114.42C260.907 114.365 261.083 114.42 261.105 114.443C261.209 114.49 261.311 114.543 261.41 114.601L261.55 114.692C261.429 114.608 261.579 114.718 261.594 114.729C261.664 114.792 261.733 114.858 261.796 114.924L261.91 115.052C261.825 114.953 261.91 115.052 261.91 115.074C261.976 115.177 262.038 115.28 262.094 115.387C262.035 115.273 262.094 115.387 262.094 115.413C262.094 115.438 262.123 115.504 262.134 115.548C262.145 115.593 262.16 115.659 262.174 115.714C262.218 115.883 262.174 115.585 262.174 115.776C262.174 115.883 262.174 115.986 262.174 116.092C262.174 116.283 262.207 115.978 262.174 116.166C262.174 116.228 262.149 116.287 262.13 116.349C262.112 116.412 262.094 116.467 262.075 116.526C262.016 116.713 262.13 116.43 262.046 116.599C261.994 116.695 261.947 116.787 261.891 116.875C261.891 116.875 261.763 117.051 261.844 116.945C261.812 116.987 261.777 117.027 261.741 117.066C261.648 117.168 261.549 117.264 261.443 117.352C261.293 117.485 261.506 117.312 261.406 117.378C261.366 117.411 261.322 117.441 261.278 117.47C261.234 117.499 261.076 117.584 260.969 117.635C260.863 117.687 261.124 117.591 260.936 117.635L260.756 117.694L260.572 117.735C260.422 117.768 260.69 117.735 260.521 117.735H260.154C260.124 117.735 260.01 117.716 260.154 117.735C260.094 117.727 260.035 117.716 259.977 117.702C259.922 117.702 259.775 117.668 259.738 117.624L259.823 117.657L259.735 117.613C259.676 117.584 259.625 117.547 259.566 117.51C259.507 117.474 259.566 117.51 259.599 117.54L259.489 117.441L259.386 117.338C259.386 117.319 259.257 117.224 259.345 117.297C259.433 117.371 259.345 117.275 259.316 117.253L259.235 117.125C259.209 117.081 259.184 117.036 259.162 116.992C259.14 116.948 259.088 116.801 259.162 116.992C259.123 116.888 259.09 116.781 259.062 116.673C259.062 116.629 259.062 116.588 259.033 116.544C259.004 116.5 259.033 116.474 259.033 116.581C259.031 116.545 259.031 116.51 259.033 116.474C259.027 116.367 259.027 116.259 259.033 116.151C259.033 116.096 259.033 116.041 259.033 115.986C259.011 116.177 259.033 115.986 259.033 115.956C259.061 115.825 259.097 115.695 259.14 115.567L259.184 115.46C259.125 115.604 259.231 115.372 259.242 115.346C259.253 115.321 259.408 115.038 259.327 115.177C259.356 115.122 259.389 115.071 259.426 115.016C259.536 114.865 259.364 115.074 259.496 114.935C259.558 114.865 259.621 114.799 259.687 114.733C259.791 114.632 259.855 114.497 259.865 114.353C259.876 114.209 259.833 114.066 259.745 113.951C259.657 113.836 259.529 113.758 259.387 113.732C259.245 113.705 259.098 113.732 258.974 113.807L259.022 113.811Z" fill="#1E22AA"/>
        <path d="M261.91 125.917C260.892 125.505 259.705 126.284 259.276 127.21C259.051 127.705 258.999 128.261 259.128 128.789C259.257 129.317 259.56 129.785 259.988 130.12C260.408 130.472 260.921 130.692 261.465 130.753C262.008 130.815 262.558 130.715 263.045 130.466C263.514 130.218 263.914 129.857 264.206 129.415C264.458 129.063 264.632 128.661 264.718 128.237C264.804 127.813 264.799 127.376 264.704 126.954C264.609 126.531 264.426 126.134 264.167 125.788C263.907 125.441 263.578 125.153 263.2 124.943C263.056 124.859 262.886 124.836 262.725 124.878C262.565 124.92 262.427 125.024 262.344 125.167C262.26 125.311 262.236 125.481 262.278 125.642C262.32 125.802 262.424 125.94 262.568 126.023C262.852 126.204 263.101 126.434 263.302 126.703C263.35 126.78 263.391 126.854 263.431 126.931C263.431 126.931 263.483 127.038 263.431 126.964L263.475 127.085C263.501 127.166 263.523 127.251 263.541 127.331C263.541 127.331 263.56 127.453 263.541 127.361C263.541 127.416 263.541 127.471 263.541 127.523C263.547 127.609 263.547 127.697 263.541 127.783C263.541 127.894 263.541 127.71 263.541 127.82C263.541 127.864 263.541 127.908 263.512 127.949C263.48 128.113 263.416 128.269 263.325 128.408C263.299 128.452 263.211 128.584 263.211 128.584L263.067 128.746C263.009 128.809 262.946 128.871 262.884 128.93L262.784 129.014C262.729 129.058 262.836 128.981 262.737 129.047C262.637 129.113 262.593 129.139 262.516 129.18C262.439 129.22 262.266 129.293 262.391 129.246L262.145 129.33L262.02 129.36C261.829 129.407 262.145 129.36 261.947 129.36C261.864 129.365 261.78 129.365 261.697 129.36H261.572C261.605 129.36 261.704 129.385 261.572 129.36C261.49 129.344 261.409 129.322 261.329 129.293L261.208 129.253C261.304 129.29 261.208 129.253 261.179 129.231C261.104 129.194 261.032 129.152 260.962 129.106C260.962 129.106 260.837 129.018 260.903 129.069C260.969 129.121 260.87 129.036 260.855 129.025C260.793 128.97 260.734 128.911 260.679 128.849C260.679 128.849 260.587 128.731 260.635 128.797C260.683 128.864 260.595 128.731 260.587 128.717C260.542 128.648 260.503 128.575 260.47 128.5C260.525 128.625 260.451 128.419 260.44 128.375C260.429 128.331 260.44 128.294 260.418 128.254C260.44 128.397 260.418 128.254 260.418 128.221C260.418 128.188 260.418 128.14 260.418 128.096C260.418 128.052 260.389 128.195 260.418 128.066C260.418 128.026 260.418 127.985 260.448 127.945C260.477 127.905 260.525 127.747 260.466 127.879C260.505 127.793 260.55 127.711 260.602 127.633C260.602 127.633 260.69 127.515 260.639 127.578C260.587 127.64 260.698 127.515 260.709 127.504L260.797 127.416C260.797 127.416 260.962 127.295 260.852 127.368C260.929 127.317 261.009 127.271 261.091 127.229C261.186 127.181 260.995 127.258 261.091 127.229L261.234 127.185L261.352 127.159C261.208 127.188 261.385 127.159 261.414 127.159C261.515 127.151 261.617 127.151 261.719 127.159C261.871 127.158 262.017 127.102 262.131 127.002C262.244 126.901 262.317 126.762 262.336 126.611C262.355 126.461 262.32 126.309 262.237 126.182C262.154 126.055 262.029 125.961 261.884 125.917H261.91Z" fill="#1E22AA"/>
        <path d="M267.267 110.463C269.104 110.39 270.919 110.096 272.734 109.909L275.464 109.604C276.368 109.501 277.301 109.46 278.183 109.284C278.892 109.148 278.727 108.009 278.014 108.035C277.106 108.064 276.177 108.237 275.284 108.34L272.55 108.652C270.743 108.861 268.906 108.997 267.116 109.335C266.477 109.457 266.624 110.489 267.267 110.463Z" fill="#1E22AA"/>
        <path d="M276.919 108.729C277.022 109.688 277.176 110.654 277.228 111.613C277.279 112.572 277.338 113.509 277.441 114.461C277.639 116.335 277.84 118.211 278.043 120.09C278.455 123.878 278.833 127.677 279.406 131.447C279.517 132.181 280.766 132.016 280.711 131.27C280.428 127.504 279.947 123.753 279.502 120.002C279.286 118.155 279.066 116.308 278.841 114.461C278.609 112.543 278.29 110.647 278.062 108.729C277.974 107.994 276.842 107.994 276.919 108.729Z" fill="#1E22AA"/>
        <path d="M269.824 133.045C270.644 132.982 271.459 132.946 272.282 132.861L275.016 132.56C276.754 132.361 278.499 132.192 280.226 131.92C280.961 131.799 280.799 130.55 280.046 130.601C278.312 130.715 276.585 130.947 274.858 131.145C273.971 131.243 273.087 131.346 272.205 131.454C271.349 131.557 270.508 131.711 269.659 131.821C268.979 131.924 269.133 133.085 269.824 133.03V133.045Z" fill="#1E22AA"/>
        <path d="M268.95 121.905C269.718 121.999 270.497 121.972 271.257 121.824L273.686 121.552C275.277 121.372 276.867 121.207 278.462 120.961C279.197 120.847 279.024 119.608 278.286 119.664C276.691 119.774 275.108 119.972 273.509 120.156L271.172 120.42C270.37 120.451 269.577 120.604 268.821 120.876C268.728 120.934 268.653 121.017 268.606 121.115C268.559 121.214 268.542 121.324 268.556 121.433C268.57 121.542 268.615 121.644 268.685 121.727C268.756 121.811 268.849 121.873 268.953 121.905H268.95Z" fill="#1E22AA"/>
        <path d="M281.567 107.844C281.725 109.791 281.861 111.735 282.063 113.678C282.265 115.622 282.478 117.569 282.698 119.517C283.143 123.411 283.58 127.302 284.168 131.175C284.275 131.887 285.487 131.726 285.432 131.006C285.134 127.104 284.697 123.22 284.245 119.333C284.027 117.373 283.798 115.428 283.558 113.498C283.316 111.551 283.014 109.622 282.731 107.686C282.636 107.032 281.519 107.182 281.57 107.844H281.567Z" fill="#1E22AA"/>
        <path d="M285.013 131.289C285.432 131.266 285.844 131.307 286.27 131.27C286.637 131.241 287.005 131.197 287.346 131.156L289.775 130.884C291.362 130.708 292.946 130.517 294.533 130.337C294.718 130.331 294.895 130.254 295.026 130.123C295.158 129.993 295.235 129.817 295.242 129.631C295.24 129.444 295.165 129.265 295.032 129.134C294.899 129.002 294.72 128.927 294.533 128.926C292.916 129.106 291.3 129.293 289.683 129.47L287.346 129.738C286.927 129.786 286.501 129.83 286.082 129.892C285.664 129.955 285.27 130.083 284.859 130.157C284.22 130.267 284.367 131.322 285.013 131.289Z" fill="#1E22AA"/>
        <path d="M295.584 129.47C295.7 129.004 295.715 128.52 295.628 128.048C295.587 127.563 295.529 127.078 295.481 126.597C295.385 125.685 295.286 124.782 295.183 123.874C294.965 121.995 294.744 120.12 294.518 118.249C294.07 114.505 293.677 110.746 293.129 107.017C293.027 106.315 291.832 106.477 291.891 107.182C292.193 110.937 292.652 114.685 293.056 118.433C293.254 120.306 293.458 122.18 293.666 124.054C293.769 124.96 293.877 125.868 293.989 126.777C294.048 127.262 294.103 127.743 294.166 128.246C294.19 128.726 294.315 129.196 294.533 129.624C294.592 129.718 294.678 129.793 294.778 129.841C294.879 129.888 294.991 129.906 295.102 129.891C295.212 129.877 295.316 129.832 295.402 129.76C295.487 129.689 295.55 129.594 295.584 129.488V129.47Z" fill="#1E22AA"/>
        <path d="M282.445 108.766C284.12 108.648 285.796 108.399 287.464 108.218C289.132 108.038 290.807 107.851 292.483 107.642C292.675 107.642 292.859 107.567 292.996 107.433C293.133 107.299 293.213 107.117 293.218 106.925C293.213 106.733 293.133 106.551 292.996 106.417C292.859 106.284 292.675 106.209 292.483 106.209L287.372 106.778C285.667 106.973 283.951 107.12 282.258 107.384C281.479 107.506 281.655 108.825 282.445 108.766Z" fill="#1E22AA"/>
        <path d="M232.789 121.475C233.325 120.975 233.556 120.149 233.891 119.502C234.225 118.855 234.559 118.172 234.909 117.514C235.258 116.856 235.618 116.202 235.992 115.559C236.367 114.916 236.837 114.329 237.205 113.686C237.572 113.043 236.698 112.356 236.198 112.907C235.705 113.51 235.247 114.142 234.828 114.799C234.383 115.424 233.964 116.07 233.567 116.732C233.171 117.393 232.833 118.029 232.513 118.697C232.193 119.366 231.657 120.215 231.675 121.008C231.679 121.137 231.72 121.262 231.793 121.369C231.866 121.475 231.969 121.558 232.088 121.607C232.207 121.656 232.338 121.67 232.465 121.647C232.592 121.623 232.709 121.564 232.803 121.475H232.789Z" fill="#1E22AA"/>
        <path d="M187.13 135.94C186.723 137.076 186.377 138.232 186.094 139.405C185.759 140.599 185.428 141.793 185.09 142.983L184.095 146.474C183.76 147.65 183.331 148.84 183.103 150.041C183.048 150.249 183.078 150.47 183.185 150.656C183.292 150.842 183.468 150.978 183.675 151.035C183.882 151.092 184.103 151.065 184.29 150.961C184.477 150.856 184.616 150.681 184.675 150.475C185.101 149.373 185.348 148.149 185.667 146.996L186.663 143.417C186.986 142.251 187.315 141.086 187.648 139.923C188.03 138.748 188.348 137.554 188.599 136.344C188.636 136.155 188.601 135.959 188.499 135.795C188.398 135.631 188.238 135.511 188.052 135.46C187.866 135.409 187.668 135.43 187.497 135.519C187.326 135.608 187.194 135.758 187.13 135.94Z" fill="#FC3F1D"/>
        <path d="M184.466 149.685C182.082 147.084 177.735 146.533 174.84 148.616C171.945 150.699 170.754 154.8 172.36 158.059C173.196 159.678 174.571 160.954 176.248 161.668C177.925 162.382 179.798 162.488 181.545 161.968C184.58 161.02 186.222 158.319 187.111 155.431C187.633 153.73 188.07 151.996 188.548 150.288C189.026 148.579 189.558 146.768 189.992 144.99C190.044 144.763 190.007 144.525 189.888 144.326C189.769 144.126 189.578 143.981 189.354 143.919C189.13 143.857 188.891 143.885 188.687 143.995C188.482 144.106 188.329 144.291 188.258 144.512C187.343 147.363 186.586 150.273 185.763 153.15C185.594 153.745 185.432 154.34 185.245 154.928C185.081 155.457 184.886 155.976 184.661 156.482C184.217 157.564 183.508 158.516 182.6 159.253C181.47 160.055 180.093 160.432 178.712 160.317C177.331 160.203 176.035 159.605 175.053 158.628C174.041 157.638 173.461 156.288 173.44 154.873C173.444 153.483 173.928 152.137 174.81 151.063C176.949 148.491 181.005 148.52 183.32 150.842C184.055 151.577 185.157 150.475 184.466 149.696V149.685Z" fill="#FC3F1D"/>
        <path d="M188.665 145.493C188.879 145.647 189.099 145.783 189.308 145.937C189.308 145.937 189.492 146.081 189.411 146.015C189.33 145.948 189.518 146.103 189.514 146.099L189.834 146.375C190.26 146.763 190.659 147.18 191.028 147.624C191.724 148.453 192.272 149.397 192.648 150.413C192.711 150.62 192.85 150.795 193.039 150.901C193.227 151.008 193.449 151.038 193.659 150.986C193.867 150.926 194.044 150.786 194.151 150.597C194.258 150.409 194.287 150.185 194.232 149.975C193.813 148.72 193.183 147.546 192.369 146.503C191.983 145.988 191.55 145.509 191.076 145.074C190.628 144.63 190.113 144.258 189.551 143.972C189.351 143.854 189.112 143.821 188.887 143.88C188.663 143.938 188.471 144.084 188.353 144.284C188.236 144.484 188.203 144.723 188.261 144.948C188.32 145.172 188.465 145.364 188.665 145.482V145.493Z" fill="#FC3F1D"/>
        <path d="M193.85 150.887C194.754 150.203 195.555 149.354 196.392 148.59C197.23 147.826 198.06 147.073 198.865 146.286C198.981 146.174 199.064 146.033 199.106 145.876C199.147 145.72 199.145 145.556 199.1 145.401C198.229 143.233 196.918 141.269 195.25 139.633C193.227 137.774 190.84 136.358 188.239 135.473C188 135.41 187.746 135.443 187.531 135.565C187.316 135.688 187.157 135.889 187.089 136.127C187.029 136.366 187.062 136.619 187.184 136.833C187.305 137.047 187.504 137.206 187.74 137.277C190.057 138.069 192.184 139.334 193.986 140.992C195.465 142.451 196.641 144.188 197.447 146.103L197.59 145.001C196.8 145.805 195.984 146.58 195.169 147.359C194.303 148.106 193.498 148.921 192.762 149.795C192.288 150.42 193.232 151.364 193.864 150.898L193.85 150.887Z" fill="#FC3F1D"/>
        <path d="M181.104 134.698C180.798 135.808 180.564 136.935 180.402 138.075L179.807 141.484L180.814 140.911C177.507 140.22 174.266 141.132 171.628 143.182C171.469 143.343 171.38 143.56 171.38 143.786C171.38 144.013 171.469 144.23 171.628 144.391C171.792 144.545 172.008 144.632 172.233 144.632C172.458 144.632 172.674 144.545 172.837 144.391C172.69 144.505 172.947 144.306 172.988 144.28L173.26 144.086C173.48 143.935 173.704 143.795 173.932 143.659C174.47 143.341 175.036 143.071 175.622 142.855C177.146 142.303 178.79 142.176 180.38 142.487C180.59 142.542 180.812 142.512 181 142.405C181.188 142.298 181.327 142.122 181.387 141.914L181.96 138.453C182.096 137.63 182.239 136.803 182.328 135.973L182.383 135.54C182.423 135.235 182.357 135.852 182.412 135.33V135.198C182.412 135.091 182.412 134.981 182.412 134.875C182.438 134.092 181.31 133.982 181.082 134.695L181.104 134.698Z" fill="#FCCA00"/>
        <path d="M193.923 156.923C196.212 156.302 198.512 155.707 200.798 155.064L199.806 154.307C199.989 161.464 196.297 168.53 190.22 172.351C185.444 175.306 179.691 176.247 174.222 174.967C168.832 173.714 164.016 170.374 161.249 165.535C157.777 159.458 157.942 151.724 161.359 145.658C164.905 139.372 171.908 135.488 179.094 135.525C179.983 135.525 180.869 135.562 181.758 135.573C181.924 135.569 182.084 135.506 182.208 135.395C182.331 135.284 182.412 135.133 182.434 134.968C182.456 134.803 182.419 134.636 182.328 134.496C182.238 134.356 182.101 134.253 181.942 134.206C180.053 133.71 178.077 133.787 176.155 134.044C172.799 134.452 169.584 135.635 166.764 137.5C163.943 139.364 161.595 141.859 159.905 144.787C158.215 147.715 157.229 150.996 157.024 154.37C156.82 157.745 157.404 161.121 158.728 164.231C161.113 169.845 165.948 174.059 171.698 175.988C177.469 177.92 183.768 177.496 189.228 174.809C195.966 171.447 200.496 164.628 201.275 157.173C201.373 156.221 201.405 155.264 201.371 154.307C201.367 154.189 201.337 154.073 201.282 153.968C201.227 153.863 201.149 153.772 201.054 153.701C200.959 153.63 200.849 153.582 200.733 153.56C200.617 153.538 200.497 153.542 200.382 153.572C198.101 154.234 195.834 154.943 193.56 155.626C192.722 155.876 193.071 157.173 193.927 156.942L193.923 156.923Z" fill="#FCCA00"/>
        <path d="M193.133 156.096C192.583 157.591 191.95 159.055 191.237 160.48C190.563 161.763 189.704 162.94 188.688 163.974C186.689 165.995 183.963 167.538 181.078 167.791C177.544 168.063 174.028 167.07 171.158 164.988C169.926 164.071 168.897 162.907 168.138 161.571C167.379 160.235 166.906 158.756 166.749 157.228C166.454 153.732 167.429 150.247 169.494 147.411C170.03 146.676 168.876 145.849 168.267 146.463C167.075 147.734 166.195 149.265 165.695 150.934C165.126 152.637 164.841 154.422 164.85 156.218C164.871 157.977 165.238 159.714 165.932 161.331C166.625 162.947 167.631 164.411 168.891 165.638C171.68 168.309 175.821 169.724 179.638 169.794C183.124 169.8 186.492 168.528 189.103 166.219C191.95 163.772 194.033 160.032 194.316 156.265C194.375 155.501 193.321 155.487 193.078 156.096H193.133Z" fill="#FCCA00"/>
    </g>
    <defs>
        <clipPath id="clip0_38:13528">
            <rect width="276.363" height="181.478" fill="white" transform="translate(41.9084 44.446)"/>
        </clipPath>
    </defs>
</svg>
