<svg viewBox="0 0 360 271" fill="none" xmlns="http://www.w3.org/2000/svg">
    <g clip-path="url(#clip0_38:13687)">
        <path d="M36.0913 128.125C37.5103 134.747 39.1808 141.314 40.7575 147.898L45.4451 167.39C48.5502 180.359 51.6497 193.329 54.7435 206.301C56.4907 213.677 58.2421 221.049 59.9211 228.46C59.9662 228.641 60.0472 228.811 60.1591 228.96C60.2711 229.11 60.4118 229.235 60.5729 229.329C60.7341 229.423 60.9125 229.484 61.0975 229.508C61.2825 229.532 61.4705 229.519 61.6503 229.469C61.8302 229.419 61.9982 229.334 62.1445 229.218C62.2909 229.102 62.4126 228.958 62.5024 228.795C62.5922 228.631 62.6484 228.451 62.6677 228.266C62.6869 228.08 62.6687 227.893 62.6143 227.714C59.3245 214.674 56.2009 201.592 53.0645 188.509L43.732 149.607C41.9678 142.239 40.3229 134.837 38.3669 127.516C37.9791 126.054 35.81 126.663 36.1126 128.138L36.0913 128.125Z" fill="#1E22AA"/>
        <path d="M112.656 113.005C113.082 119.432 113.687 125.854 114.275 132.263C114.878 138.797 115.496 145.313 116.129 151.81C117.41 164.978 118.702 178.144 120.003 191.309L121.081 202.124C121.26 203.937 121.44 205.748 121.622 207.558C121.805 209.386 121.886 211.248 122.317 213.034C122.611 214.252 124.4 213.941 124.447 212.744C124.444 211.138 124.33 209.535 124.106 207.945L123.621 203.096L122.658 193.482C122.004 186.968 121.348 180.454 120.689 173.939C119.342 160.772 118.025 147.6 116.606 134.44C115.809 127.226 115.085 119.998 114.105 112.805C113.99 111.978 112.588 112.17 112.643 113.005H112.656Z" fill="#1E22AA"/>
        <path d="M36.8711 127.303C37.0227 127.278 37.1606 127.2 37.2601 127.083C37.3595 126.966 37.4141 126.817 37.4141 126.663C37.4141 126.51 37.3595 126.361 37.2601 126.244C37.1606 126.127 37.0227 126.049 36.8711 126.024C36.7195 126.049 36.5817 126.127 36.4822 126.244C36.3827 126.361 36.3281 126.51 36.3281 126.663C36.3281 126.817 36.3827 126.966 36.4822 127.083C36.5817 127.2 36.7195 127.278 36.8711 127.303Z" fill="#1E22AA"/>
        <path d="M32.6522 128.726C35.4093 128.785 38.192 128.129 40.9065 127.665L49.1012 126.246L65.7591 123.352C76.8388 121.417 87.8716 119.342 98.93 117.361C105.058 116.261 111.143 114.978 117.254 113.853C118.153 113.687 117.761 112.345 116.875 112.49C111.42 113.376 105.936 114.101 100.481 115.017C94.9413 115.946 89.4014 116.832 83.8829 117.753C72.8032 119.602 61.7164 121.487 50.6226 123.408C47.5501 123.94 44.4819 124.464 41.4094 125.006C38.4264 125.53 35.2474 125.858 32.3965 126.932C31.4718 127.285 31.5442 128.7 32.6394 128.722L32.6522 128.726Z" fill="#1E22AA"/>
        <path d="M114.335 106.52C112.985 106.571 111.641 106.733 110.317 107.005L106.332 107.691L98.5679 109.034L82.8348 111.757L51.2662 117.237C45.3599 118.26 39.455 119.292 33.5515 120.335C33.3652 120.388 33.2009 120.499 33.0827 120.653C32.9646 120.806 32.8988 120.994 32.8953 121.187C32.9421 122.248 32.9975 123.318 33.0529 124.371C33.0913 125.087 33.1254 125.807 33.1637 126.523C33.1637 126.766 33.1936 127.004 33.2149 127.247C33.2149 127.388 33.249 127.524 33.2575 127.673C33.2575 127.631 33.2319 127.443 33.2362 127.571C33.2788 128.594 34.8768 128.602 34.8342 127.571C34.7532 125.44 34.749 123.31 34.6765 121.2L34.0245 122.052C44.5204 120.28 55.0077 118.443 65.4951 116.628L96.9614 111.173C99.8677 110.682 102.77 110.18 105.667 109.669L110.069 108.902C111.582 108.7 113.074 108.372 114.531 107.922C115.268 107.666 115.187 106.511 114.339 106.515L114.335 106.52Z" fill="#1E22AA"/>
        <path d="M114.016 106.933C114.391 108.032 114.744 109.14 115.128 110.236C115.32 110.773 115.507 111.309 115.699 111.851C115.887 112.443 116.107 113.025 116.359 113.594C116.786 114.446 118.115 113.845 117.881 112.954C117.702 112.388 117.493 111.832 117.254 111.288L116.662 109.75C116.236 108.684 115.788 107.619 115.354 106.566C115.301 106.392 115.183 106.244 115.024 106.154C114.865 106.065 114.678 106.04 114.501 106.085C114.326 106.136 114.177 106.253 114.087 106.413C113.996 106.572 113.973 106.76 114.02 106.937L114.016 106.933Z" fill="#1E22AA"/>
        <path d="M38.175 120.582C38.2006 116.969 38.1963 113.338 38.1025 109.728C38.077 108.663 36.4491 108.654 36.4406 109.728C36.4065 113.346 36.4406 116.973 36.5386 120.582C36.5386 120.799 36.6248 121.007 36.7782 121.161C36.9317 121.314 37.1398 121.4 37.3568 121.4C37.5738 121.4 37.7819 121.314 37.9353 121.161C38.0888 121.007 38.175 120.799 38.175 120.582Z" fill="#1E22AA"/>
        <path d="M37.6936 108.808C46.9025 107.372 56.0859 105.744 65.2735 104.167C74.4611 102.591 83.6402 101.018 92.8235 99.4287L108.327 96.7482L107.261 96.1431L110.453 106.217C110.794 107.282 112.477 106.826 112.136 105.753L108.932 95.6957C108.864 95.4782 108.717 95.2946 108.519 95.1822C108.321 95.0698 108.088 95.037 107.866 95.0905L80.329 99.8846C71.15 101.478 61.9737 103.089 52.8003 104.717C47.6397 105.633 42.4792 106.532 37.3314 107.513C36.4791 107.679 36.8456 108.953 37.6936 108.821V108.808Z" fill="#1E22AA"/>
        <path d="M44.759 105.608C44.8485 104.399 44.8485 103.186 44.759 101.977C44.7377 101.316 44.6951 100.656 44.6695 99.9954C44.6631 99.879 44.6631 99.7624 44.6695 99.646C44.6695 99.5948 44.6695 99.5437 44.6695 99.4968C44.6695 99.3051 44.6098 99.6715 44.6695 99.4968C44.6951 99.4073 44.7121 99.3178 44.7419 99.2284C44.6695 99.4499 44.7164 99.2838 44.7419 99.2284C44.7675 99.173 44.6226 99.3477 44.7931 99.173C44.8186 99.1431 44.8527 99.1175 44.8826 99.0877C44.7291 99.2241 44.8826 99.0877 44.9294 99.0622L45.1297 98.9556C45.3556 98.8363 45.0488 98.9812 45.2022 98.9215C45.6066 98.7688 46.0268 98.6616 46.455 98.6019C46.7664 98.5494 47.0811 98.5195 47.3968 98.5124H47.6269C47.6269 98.5124 47.8656 98.538 47.7164 98.5124C47.5673 98.4869 47.7675 98.5124 47.7846 98.5124C47.8016 98.5124 48.0616 98.6318 47.84 98.5124C47.9252 98.5593 48.0914 98.7042 47.9209 98.5337C47.9934 98.6062 48.134 98.832 48.019 98.6147C48.0616 98.6957 48.1127 98.7724 48.1596 98.8533C48.2065 98.9343 48.2491 99.0835 48.1596 98.8533C48.1809 98.9173 48.2065 98.9769 48.2278 99.0408C48.4621 99.7056 48.6198 100.396 48.8286 101.069C49.1653 102.152 49.4977 103.238 49.8258 104.321C50.0005 104.9 50.1156 105.957 50.7207 106.26L50.3542 105.791C50.6568 106.818 52.2633 106.379 51.9565 105.365L51.8713 106.004C52.225 105.403 51.8031 104.581 51.6241 103.984C51.296 102.914 50.9679 101.853 50.6312 100.775C50.3968 100.034 50.2051 99.271 49.9238 98.5465C49.7422 97.9421 49.3508 97.4222 48.8201 97.0806C48.1806 96.7871 47.4645 96.7036 46.7746 96.842C45.8583 96.9087 44.9638 97.1533 44.1411 97.5621C43.8536 97.7212 43.6032 97.9394 43.4064 98.2024C43.2095 98.4654 43.0707 98.7671 42.999 99.0877C42.9074 99.7042 42.8902 100.329 42.9479 100.95C42.9734 101.973 43.0203 102.991 43.0544 104.014C43.065 104.615 43.1205 105.215 43.2206 105.808C43.2713 105.989 43.3853 106.145 43.5419 106.248C43.6984 106.351 43.8869 106.395 44.0729 106.37C44.2583 106.342 44.4276 106.249 44.5515 106.108C44.6753 105.967 44.7457 105.787 44.7505 105.599L44.759 105.608Z" fill="#1E22AA"/>
        <path d="M61.2634 229.342C63.3302 229.223 65.3927 228.72 67.4297 228.387C69.4666 228.055 71.4908 227.723 73.5192 227.378C77.5889 226.683 81.6415 225.92 85.7026 225.191C89.7638 224.463 93.7993 223.772 97.8221 223.061C101.845 222.349 105.919 221.544 109.993 220.794C114.54 219.941 119.082 219.144 123.604 218.16C124.375 217.994 124.217 216.652 123.412 216.758C119.334 217.287 115.281 217.926 111.229 218.599C107.176 219.272 103.055 219.877 98.9812 220.559C90.8632 221.957 82.7282 223.248 74.6144 224.68C72.3516 225.081 70.0845 225.477 67.8217 225.895C66.6925 226.103 65.5674 226.321 64.4382 226.504C63.2727 226.671 62.1175 226.903 60.9779 227.199C59.8358 227.535 60.002 229.41 61.2634 229.329V229.342Z" fill="#1E22AA"/>
        <path d="M62.6355 228.208C62.7311 229.33 62.9629 230.437 63.3258 231.503C63.6369 232.602 63.948 233.697 64.2506 234.797C64.8429 236.927 65.4352 239.092 66.0105 241.244C66.103 241.565 66.3176 241.838 66.6084 242.002C66.8991 242.167 67.2428 242.212 67.566 242.126L89.0691 238.38C96.2368 237.136 103.417 235.981 110.572 234.656C114.608 233.906 118.669 233.224 122.67 232.287C123.727 232.044 123.523 230.224 122.406 230.352C118.75 230.778 115.119 231.409 111.484 231.993C107.849 232.576 104.27 233.177 100.664 233.799C93.4626 235.04 86.2693 236.356 79.0632 237.584L66.8927 239.684L68.4523 240.571C67.8856 238.415 67.2932 236.267 66.7052 234.119C66.4154 233.054 66.1256 231.988 65.8529 230.914C65.6221 229.783 65.2603 228.681 64.7747 227.633C64.2463 226.636 62.6099 227.092 62.644 228.208H62.6355Z" fill="#1E22AA"/>
        <path d="M120.885 218.378C120.871 220.085 120.951 221.792 121.123 223.491L121.281 225.788C121.311 226.253 121.349 226.721 121.375 227.186C121.413 227.77 121.375 228.281 121.775 228.746C121.86 228.826 121.962 228.887 122.073 228.924C122.184 228.96 122.302 228.971 122.418 228.956C122.534 228.941 122.646 228.9 122.744 228.836C122.842 228.773 122.925 228.688 122.986 228.588C123.288 228.123 123.143 227.621 123.097 227.101C123.05 226.581 123.016 226.176 122.977 225.711L122.773 223.355C122.676 221.627 122.486 219.906 122.202 218.199C122.048 217.431 120.923 217.649 120.885 218.378Z" fill="#1E22AA"/>
        <path d="M151.959 49.5401C152.044 47.3711 152.138 45.202 152.215 43.0287C152.215 42.496 152.253 41.9591 152.279 41.4264C152.238 40.8884 152.276 40.3473 152.389 39.8199C152.632 39.1253 153.395 38.8483 154.06 38.7375C155.172 38.5542 156.387 38.7375 157.503 38.7758L161.492 38.9122C164.117 39.0002 166.743 39.0855 169.371 39.1679L173.765 39.3128C174.191 39.3128 174.817 39.2446 175.171 39.5812C175.273 39.6926 175.352 39.8238 175.402 39.9667C175.452 40.1096 175.472 40.2612 175.461 40.4122C175.461 41.4477 177.063 41.4477 177.072 40.4122C177.089 39.942 176.98 39.4758 176.755 39.0626C176.53 38.6494 176.198 38.3044 175.793 38.0642C175.256 37.8046 174.663 37.6844 174.067 37.7147L171.868 37.6423C168.885 37.5485 165.902 37.4463 162.945 37.3568L158.534 37.2247C157.171 37.1863 155.76 37.0372 154.401 37.1309C153.386 37.1552 152.41 37.5267 151.635 38.1835C150.753 39.0102 150.757 40.1182 150.727 41.2389C150.651 44.0088 150.587 46.7787 150.514 49.5444C150.493 50.4691 151.908 50.4649 151.942 49.5444L151.959 49.5401Z" fill="#1E22AA"/>
        <path d="M175.525 42.8114C175.405 44.8995 175.316 46.9876 175.231 49.0757C175.209 49.6083 175.197 50.1368 175.179 50.6694C175.224 51.2503 175.183 51.8345 175.06 52.4038C174.804 53.1112 173.999 53.4095 173.309 53.4862C172.721 53.5288 172.132 53.5288 171.544 53.4862L169.465 53.4181L165.493 53.2902C162.868 53.2021 160.24 53.1212 157.61 53.0473C156.169 53.009 154.678 53.0942 153.246 52.9408C153.058 52.9449 152.871 52.9089 152.698 52.835C152.525 52.761 152.369 52.651 152.242 52.5122C152.115 52.3734 152.019 52.209 151.961 52.0301C151.902 51.8512 151.883 51.6619 151.904 51.4748C151.89 51.3017 151.812 51.14 151.684 51.0221C151.556 50.9042 151.389 50.8387 151.215 50.8387C151.042 50.8387 150.874 50.9042 150.747 51.0221C150.619 51.14 150.541 51.3017 150.527 51.4748C150.489 51.9561 150.582 52.4388 150.796 52.8717C151.009 53.3045 151.336 53.6715 151.742 53.9337C152.735 54.5345 154.017 54.411 155.125 54.4664C158.078 54.607 161.032 54.6922 163.985 54.786C166.938 54.8797 169.904 55.0757 172.857 55.063C173.941 55.1 174.999 54.7221 175.814 54.0061C176.714 53.1198 176.667 51.9521 176.701 50.7802C176.782 48.1339 176.846 45.4833 176.858 42.8327C176.858 41.9804 175.58 41.9804 175.525 42.8327V42.8114Z" fill="#1E22AA"/>
        <path d="M170.219 54.0658C169.512 57.1766 171.302 60.6412 173.147 63.0574C174.194 64.4072 175.38 65.644 176.684 66.7478C177.323 67.2975 177.962 67.8174 178.644 68.333C179.31 68.9134 180.023 69.4379 180.775 69.9012C180.973 70.0074 181.202 70.0398 181.422 69.9929C181.642 69.9459 181.838 69.8225 181.975 69.6447C182.113 69.4669 182.183 69.2461 182.173 69.0215C182.163 68.797 182.074 68.5833 181.921 68.4183C181.313 67.8695 180.668 67.3626 179.991 66.9012C179.398 66.4367 178.806 65.9637 178.231 65.4736C177 64.4509 175.86 63.3247 174.822 62.1071C173.883 60.9971 173.12 59.7496 172.559 58.4082C172.062 57.0001 171.709 55.5452 171.506 54.0658C171.387 53.4181 170.369 53.4479 170.228 54.0658H170.219Z" fill="#1E22AA"/>
        <path d="M153.736 53.8443C153.608 55.0801 153.6 56.2562 153.216 57.4622C152.818 58.6389 152.231 59.7428 151.478 60.7307C149.931 62.8103 147.821 64.3699 145.763 65.8998C145.647 65.9763 145.548 66.0759 145.472 66.1925C145.396 66.309 145.345 66.44 145.322 66.5771C145.299 66.7143 145.305 66.8547 145.339 66.9895C145.373 67.1244 145.434 67.2508 145.519 67.3608C145.604 67.4708 145.711 67.5621 145.833 67.6289C145.955 67.6958 146.09 67.7367 146.228 67.7492C146.367 67.7616 146.506 67.7454 146.638 67.7014C146.77 67.6574 146.891 67.5866 146.995 67.4936C149.245 65.7166 151.524 63.8841 153.199 61.5276C154.012 60.3869 154.625 59.1158 155.01 57.769C155.368 56.4906 155.586 54.9181 155.061 53.6653C155.015 53.5116 154.914 53.3795 154.779 53.2928C154.644 53.2061 154.482 53.1703 154.323 53.1918C154.164 53.2133 154.017 53.2907 153.91 53.4102C153.802 53.5298 153.741 53.6836 153.736 53.8443Z" fill="#1E22AA"/>
        <path d="M180.647 69.2023C180.76 69.2023 180.868 69.1574 180.948 69.0775C181.028 68.9976 181.073 68.8892 181.073 68.7762C181.073 68.6632 181.028 68.5548 180.948 68.4749C180.868 68.3949 180.76 68.35 180.647 68.35C180.534 68.35 180.425 68.3949 180.345 68.4749C180.266 68.5548 180.221 68.6632 180.221 68.7762C180.221 68.8892 180.266 68.9976 180.345 69.0775C180.425 69.1574 180.534 69.2023 180.647 69.2023Z" fill="#1E22AA"/>
        <path d="M194.936 56.9423C197.147 55.3357 199.342 53.8016 201.843 52.6809C203.067 52.1285 204.33 51.6698 205.623 51.3087C207.008 50.9081 208.448 50.7462 209.821 50.3499C209.986 50.2982 210.127 50.1899 210.22 50.0441C210.312 49.8983 210.351 49.7245 210.328 49.5532C210.305 49.3819 210.222 49.2242 210.094 49.108C209.966 48.9918 209.802 48.9245 209.629 48.918C208.18 48.918 206.68 49.3655 205.291 49.7703C203.903 50.1795 202.545 50.6821 201.225 51.2746C198.597 52.3756 196.172 53.9081 194.049 55.8087C193.457 56.367 194.254 57.4579 194.936 56.9593V56.9423Z" fill="#1E22AA"/>
        <path d="M190.602 36.9775C189.83 41.2688 189.187 45.5856 188.445 49.8811C187.704 54.1766 186.928 58.4892 186.123 62.7506C185.667 65.1711 185.194 67.5915 184.747 69.995C184.644 70.5575 185.492 70.8046 185.599 70.2336C187.444 61.6767 188.94 53.0303 190.367 44.3967C190.768 41.9591 191.173 39.5216 191.497 37.0713C191.565 36.5599 190.683 36.4363 190.589 36.9477L190.602 36.9775Z" fill="#1E22AA"/>
        <path d="M190.964 37.2843C189.979 45.445 189.157 53.6269 188.292 61.8045L187.934 65.1838C187.81 66.3728 187.597 67.5873 187.593 68.7805C187.593 69.3004 188.411 69.441 188.522 68.904C188.727 67.9324 188.778 66.914 188.884 65.921L189.217 62.8571L189.886 56.6184C190.312 52.4976 190.738 48.3768 191.164 44.2603C191.407 41.9335 191.658 39.6111 191.871 37.2843C191.927 36.6877 191.019 36.7048 190.951 37.2843H190.964Z" fill="#1E22AA"/>
        <path d="M191.424 69.7819C191.421 67.843 191.525 65.9053 191.735 63.9778C192.009 62.0663 192.445 60.1816 193.039 58.3442C194.218 54.7057 196.011 51.2957 198.34 48.2617C199.695 46.5356 201.191 44.9263 202.815 43.4506C203.271 43.0245 202.61 42.4023 202.146 42.7815C199.098 45.3326 196.572 48.4478 194.705 51.9564C192.799 55.4363 191.502 59.2167 190.87 63.1341C190.525 65.2861 190.256 67.6128 190.504 69.7861C190.504 69.9105 190.553 70.0297 190.641 70.1176C190.729 70.2055 190.848 70.2549 190.972 70.2549C191.097 70.2549 191.216 70.2055 191.304 70.1176C191.392 70.0297 191.441 69.9105 191.441 69.7861L191.424 69.7819Z" fill="#1E22AA"/>
        <path d="M201.745 42.9733C200.441 43.4762 199.188 44.4094 198.076 45.2276C196.91 46.0724 195.797 46.989 194.744 47.972C192.619 49.9396 190.773 52.1876 189.255 54.6539C188.936 55.1823 189.745 55.6468 190.082 55.1354C191.597 52.8043 193.381 50.6589 195.396 48.7433C196.404 47.7957 197.47 46.9118 198.588 46.097C199.154 45.6708 199.73 45.2958 200.322 44.9208C200.914 44.5458 201.554 44.2432 202.112 43.8299C202.5 43.5444 202.291 42.756 201.745 42.9776V42.9733Z" fill="#1E22AA"/>
        <path d="M181.009 69.0447C181.112 68.4175 181.124 67.7788 181.043 67.1483C181.005 66.4878 180.95 65.8315 180.877 65.1753C180.741 63.8969 180.545 62.5886 180.293 61.3102C179.818 58.7329 179.043 56.2201 177.984 53.8229C177.766 53.3541 176.982 53.6865 177.131 54.1766C177.975 56.5743 178.673 59.0205 179.224 61.502C179.475 62.7463 179.671 64.0077 179.807 65.2733C179.871 65.8955 179.927 66.5219 179.969 67.1483C179.96 67.7847 180.017 68.4203 180.14 69.0447C180.14 69.1577 180.185 69.2661 180.265 69.346C180.345 69.4259 180.453 69.4708 180.566 69.4708C180.679 69.4708 180.787 69.4259 180.867 69.346C180.947 69.2661 180.992 69.1577 180.992 69.0447H181.009Z" fill="#1E22AA"/>
        <path d="M177.468 54.6539C178.631 56.1641 179.618 57.8026 180.408 59.5375C181.148 61.3123 181.719 63.1528 182.113 65.0347C182.228 65.5205 183.055 65.431 182.999 64.9154C182.754 62.9351 182.195 61.0063 181.346 59.2008C180.531 57.3652 179.464 55.6525 178.175 54.1127C177.851 53.7249 177.161 54.249 177.472 54.6539H177.468Z" fill="#1E22AA"/>
        <path d="M183.102 69.6711C183.195 68.691 183.136 67.681 183.136 66.6881C183.136 65.6952 183.136 64.7108 183.136 63.7051L183.11 57.982C183.085 54.0914 183.11 50.2007 182.978 46.3185C182.978 46.1931 182.928 46.0728 182.839 45.9841C182.751 45.8954 182.63 45.8455 182.505 45.8455C182.38 45.8455 182.259 45.8954 182.171 45.9841C182.082 46.0728 182.032 46.1931 182.032 46.3185C181.938 50.2049 181.998 54.0956 182.032 57.982L182.058 63.7051C182.058 64.6966 182.066 65.6909 182.083 66.6881C182.083 67.6682 182.041 68.6824 182.147 69.6711C182.147 69.8011 182.199 69.9257 182.291 70.0176C182.383 70.1095 182.507 70.1612 182.637 70.1612C182.767 70.1612 182.892 70.1095 182.984 70.0176C183.076 69.9257 183.127 69.8011 183.127 69.6711H183.102Z" fill="#1E22AA"/>
        <path d="M182.462 46.5572C182.889 49.847 183.434 53.124 183.873 56.4138C184.312 59.7036 184.683 62.9551 185.087 66.2151C185.168 66.8799 186.217 66.9097 186.153 66.2151C185.85 62.8869 185.42 59.5673 184.96 56.2562C184.499 52.945 184.018 49.5956 183.366 46.2972C183.246 45.6921 182.381 45.9691 182.462 46.5487V46.5572Z" fill="#1E22AA"/>
        <path d="M327.806 201.204C326.315 200.867 324.823 200.624 323.315 200.394C322.011 200.194 320.136 199.542 319.254 200.88C318.853 201.49 318.857 202.406 318.712 203.109C318.568 203.812 318.389 204.579 318.184 205.303C317.777 206.799 317.274 208.266 316.68 209.697C314.413 215.122 310.68 220.146 305.873 223.547C303.218 225.422 300.052 227.344 299.289 230.757C299.194 231.099 299.24 231.465 299.415 231.774C299.591 232.083 299.882 232.31 300.224 232.404C300.567 232.498 300.933 232.453 301.241 232.277C301.55 232.102 301.777 231.811 301.871 231.469C302.146 230.322 302.779 229.292 303.678 228.528C304.669 227.645 305.725 226.836 306.836 226.108C309.246 224.417 311.419 222.41 313.296 220.142C317.157 215.506 319.776 209.964 320.907 204.038C320.984 203.612 321.048 203.215 321.107 202.806C321.146 202.568 321.188 202.329 321.21 202.086C321.21 201.937 321.282 201.958 321.21 201.997C321.21 201.997 320.937 202.303 320.92 202.269C321.083 202.317 321.252 202.343 321.423 202.346L322.518 202.487C324.222 202.708 325.867 202.913 327.559 203.024C328.612 203.083 328.838 201.413 327.811 201.183L327.806 201.204Z" fill="#1E22AA"/>
        <path d="M303.158 230.727C301.156 230.225 299.127 229.834 297.082 229.555C294.994 229.21 292.893 228.912 290.8 228.609C286.641 228.004 282.469 227.406 278.285 226.815L253.142 223.257L228.042 219.707L202.858 216.162L177.856 212.625C176.799 212.475 175.751 212.339 174.69 212.25C173.343 212.13 173.036 214.351 174.366 214.61C178.469 215.42 182.667 215.855 186.809 216.439L199.333 218.207L224.476 221.761L249.571 225.311L274.76 228.865C283.117 230.045 291.469 231.307 299.856 232.274C300.877 232.393 301.904 232.458 302.933 232.47C303.141 232.462 303.34 232.38 303.494 232.24C303.648 232.1 303.748 231.91 303.776 231.703C303.804 231.497 303.758 231.287 303.647 231.111C303.535 230.935 303.366 230.803 303.167 230.74L303.158 230.727Z" fill="#1E22AA"/>
        <path d="M157.324 171.152C157.158 172.972 156.936 174.783 156.681 176.594C156.613 177.084 156.796 177.762 157.392 177.847C159.37 178.124 161.334 178.469 163.307 178.746L162.604 177.506C161.884 182.675 161.556 187.93 162.404 193.103C163.15 197.692 164.905 202.059 167.543 205.887C169.039 208.044 171.131 210.081 170.867 212.91C170.867 213.136 170.957 213.353 171.117 213.513C171.276 213.673 171.493 213.762 171.719 213.762C171.945 213.762 172.162 213.673 172.322 213.513C172.482 213.353 172.572 213.136 172.572 212.91C172.853 210.379 171.527 208.299 170.117 206.33C168.731 204.423 167.541 202.38 166.567 200.232C164.696 196.065 163.942 191.501 163.908 186.958C163.908 183.979 164.126 181.003 164.56 178.056C164.628 177.574 164.445 176.901 163.857 176.816C161.884 176.535 159.919 176.181 157.946 175.895L158.658 177.148C158.931 175.248 159.229 173.356 159.591 171.468C159.633 171.311 159.641 171.146 159.614 170.986C159.587 170.825 159.527 170.672 159.436 170.537C159.346 170.402 159.228 170.287 159.09 170.201C158.952 170.115 158.797 170.059 158.636 170.038C158.475 170.016 158.311 170.029 158.155 170.076C157.999 170.122 157.855 170.202 157.732 170.308C157.609 170.415 157.51 170.546 157.442 170.694C157.374 170.842 157.338 171.003 157.337 171.165L157.324 171.152Z" fill="#1E22AA"/>
        <path d="M158.389 172.022C160.299 172.307 162.225 172.618 164.121 172.904C164.581 172.972 165.208 172.793 165.293 172.239C166.145 166.755 168.131 161.232 171.651 156.898C175.012 152.791 179.59 149.856 184.725 148.516C187.853 147.709 191.109 147.52 194.309 147.962C194.859 148.039 195.617 147.838 195.715 147.165L194.313 147.962C206.873 149.766 219.433 151.563 231.993 153.353L269.647 158.688L288.32 161.343C291.439 161.79 294.559 162.25 297.695 162.676C300.073 163 302.506 163.047 304.842 163.601C307.343 164.198 309.278 165.57 311.123 167.313C314.09 170.112 316.428 173.509 317.983 177.28C319.538 181.052 320.273 185.11 320.14 189.187C320.119 189.877 320.076 190.563 320.008 191.254C319.94 191.944 319.761 192.6 319.761 193.265C319.767 193.737 319.942 194.19 320.255 194.543C320.568 194.896 320.998 195.124 321.465 195.187C322.1 195.302 322.744 195.37 323.383 195.46C323.809 195.519 324.661 195.822 325.088 195.702C325.309 195.639 325.088 195.66 325.232 195.421C325.204 195.53 325.188 195.641 325.186 195.754C325.109 196.299 325.019 196.849 324.938 197.394C324.713 198.916 324.482 200.433 324.286 201.958C324.257 202.167 324.227 202.384 324.201 202.589C324.167 202.879 324.248 202.278 324.201 202.589C324.123 202.913 324.171 203.255 324.336 203.546C324.5 203.836 324.769 204.053 325.088 204.153C325.684 204.323 326.549 203.94 326.651 203.262C326.992 200.957 327.38 198.651 327.717 196.342C327.955 194.701 327.167 193.359 325.467 193.141L323.336 192.839C323.221 192.839 321.994 192.558 321.943 192.643L322.151 192.928C322.33 193.316 322.416 193.312 322.403 192.928C322.442 192.776 322.463 192.621 322.467 192.464C322.514 192.114 322.556 191.761 322.595 191.407C322.667 190.674 322.718 189.932 322.735 189.195C322.776 187.764 322.715 186.331 322.552 184.908C322.107 180.735 320.825 176.694 318.784 173.026C316.743 169.359 313.983 166.141 310.671 163.563C308.665 162.072 306.307 161.126 303.827 160.819C301.151 160.426 298.454 160.235 295.773 159.855L276.597 157.162L238.282 151.793C225.433 149.989 212.592 148.191 199.759 146.398L194.94 145.725C194.394 145.652 193.627 145.852 193.533 146.526L194.633 145.673C188.675 144.866 182.62 146.097 177.451 149.168C172.49 152.137 168.577 156.577 166.256 161.871C164.866 164.999 163.93 168.309 163.478 171.702L164.39 171.033C162.476 170.777 160.554 170.547 158.641 170.292C157.665 170.16 157.422 171.873 158.407 172.022H158.389Z" fill="#1E22AA"/>
        <path d="M327.078 197.556C321.649 196.947 316.245 196.073 310.837 195.289L302.851 194.134C302.188 194.017 301.508 194.017 300.844 194.134C300.092 194.268 299.334 194.396 298.573 194.518C297.113 194.754 295.648 194.975 294.18 195.183C282.442 196.848 270.582 197.498 258.733 197.126C247.418 196.791 236.153 195.469 225.068 193.176C214.73 191.011 204.558 187.891 195.025 183.306C192.604 182.143 190.218 180.89 187.891 179.543C186.755 178.878 185.619 178.191 184.482 177.481C183.974 177.094 183.432 176.753 182.863 176.462C182.194 176.198 181.299 176.211 180.587 176.113C174.672 175.295 168.752 174.516 162.826 173.778C161.343 173.594 159.843 173.428 158.377 173.253C157.478 173.151 157.264 174.694 158.164 174.843C164.13 175.84 170.096 176.773 176.062 177.643L180.506 178.286C181.218 178.388 181.895 178.418 182.509 178.819C183.123 179.219 183.664 179.573 184.248 179.94C186.489 181.346 188.785 182.66 191.134 183.881C200.543 188.782 210.686 192.225 221.011 194.586C231.906 197.048 242.995 198.555 254.152 199.09C266.026 199.653 277.927 199.192 289.722 197.714C292.637 197.356 295.545 196.943 298.445 196.474C299.766 196.261 301.173 195.818 302.498 196.001L306.444 196.542C311.95 197.301 317.455 198.065 322.961 198.835C324.24 199.018 325.548 199.227 326.839 199.444C326.968 199.474 327.102 199.477 327.232 199.452C327.362 199.428 327.486 199.376 327.595 199.301C327.704 199.226 327.796 199.128 327.865 199.015C327.935 198.902 327.979 198.776 327.997 198.645C328.015 198.514 328.005 198.38 327.968 198.253C327.93 198.126 327.867 198.008 327.782 197.906C327.697 197.805 327.591 197.723 327.472 197.665C327.353 197.607 327.223 197.574 327.09 197.569L327.078 197.556Z" fill="#1E22AA"/>
        <path d="M190.964 146.7C188.867 154.499 186.873 162.319 184.414 170.019C183.724 172.187 183.005 174.349 182.258 176.505C181.832 177.719 183.766 178.239 184.18 177.033C186.809 169.405 189.165 161.654 191.04 153.804C191.569 151.58 192.05 149.36 192.464 147.114C192.643 146.142 191.228 145.716 190.964 146.688V146.7Z" fill="#1E22AA"/>
        <path d="M301.854 194.901C302.006 194.428 302.075 193.932 302.059 193.435C302.085 192.869 302.106 192.302 302.127 191.731C302.166 190.704 302.2 189.681 302.229 188.654L302.413 182.398C302.535 178.194 302.658 173.988 302.783 169.78L302.886 166.303C302.916 165.131 303.112 163.836 302.886 162.685C302.72 161.833 301.467 161.914 301.262 162.685C300.998 163.686 301.104 164.841 301.075 165.877L300.981 168.954C300.921 171.036 300.86 173.121 300.798 175.209L300.435 187.827C300.401 188.995 300.367 190.158 300.346 191.326L300.308 193.031C300.241 193.664 300.284 194.304 300.435 194.923C300.482 195.076 300.576 195.21 300.705 195.305C300.833 195.401 300.989 195.452 301.149 195.452C301.309 195.452 301.465 195.401 301.594 195.305C301.722 195.21 301.817 195.076 301.863 194.923L301.854 194.901Z" fill="#1E22AA"/>
        <path d="M210.051 194.778C209.369 196.146 208.909 197.612 208.201 198.975C207.507 200.323 206.694 201.607 205.772 202.81C204.83 204.027 203.774 205.152 202.619 206.168C201.468 207.195 200.19 208.022 198.988 208.972C198.855 209.105 198.776 209.281 198.765 209.468C198.754 209.655 198.812 209.84 198.928 209.987C199.044 210.132 199.208 210.232 199.39 210.269C199.573 210.306 199.762 210.277 199.926 210.187C201.384 209.486 202.723 208.56 203.893 207.443C205.119 206.349 206.235 205.139 207.225 203.829C208.206 202.566 209.062 201.212 209.782 199.785C210.507 198.34 211.222 196.759 211.414 195.14C211.495 194.428 210.379 194.164 210.072 194.773L210.051 194.778Z" fill="#1E22AA"/>
        <path d="M214.896 197.373C214.763 200.347 215.135 203.323 215.995 206.173C216.775 208.649 218.032 211.308 220.014 213.051C220.163 213.199 220.365 213.283 220.576 213.282C220.786 213.282 220.988 213.198 221.137 213.049C221.285 212.899 221.369 212.697 221.368 212.487C221.368 212.276 221.284 212.074 221.135 211.926C220.336 211.017 219.623 210.037 219.004 208.998C218.393 207.91 217.9 206.76 217.534 205.568C216.681 202.904 216.49 200.143 216.315 197.373C216.301 197.194 216.22 197.027 216.089 196.906C215.957 196.784 215.785 196.716 215.605 196.716C215.426 196.716 215.254 196.784 215.122 196.906C214.991 197.027 214.91 197.194 214.896 197.373Z" fill="#1E22AA"/>
        <path d="M280.991 220.384C280.424 219.826 279.712 219.464 279.081 218.957C278.468 218.445 277.898 217.884 277.377 217.278C276.328 216.06 275.467 214.692 274.82 213.221C274.116 211.583 273.612 209.866 273.32 208.107C273.145 207.123 273.026 206.13 272.941 205.124C272.925 204.116 272.841 203.109 272.689 202.112C272.544 201.438 271.411 201.391 271.287 202.112C271.177 203.181 271.194 204.259 271.338 205.325C271.424 206.399 271.552 207.455 271.731 208.534C272.044 210.44 272.59 212.301 273.358 214.073C274.055 215.682 274.984 217.179 276.115 218.518C276.669 219.17 277.284 219.766 277.952 220.299C278.634 220.845 279.38 221.45 280.249 221.642C280.411 221.685 280.583 221.673 280.738 221.608C280.893 221.543 281.023 221.429 281.106 221.284C281.19 221.138 281.223 220.969 281.2 220.802C281.178 220.636 281.101 220.482 280.982 220.363L280.991 220.384Z" fill="#1E22AA"/>
        <path d="M265.117 202.056C264.725 203.518 264.422 204.992 263.958 206.433C263.482 207.889 262.913 209.312 262.253 210.694C261.606 212.061 260.87 213.383 260.05 214.653C259.624 215.288 259.198 215.91 258.772 216.515C258.371 217.056 257.493 217.794 257.561 218.505C257.564 218.691 257.638 218.869 257.77 219C257.901 219.131 258.079 219.206 258.264 219.208C259.117 219.14 259.59 218.207 260.059 217.581C260.527 216.954 261.017 216.26 261.461 215.578C262.316 214.258 263.08 212.881 263.749 211.457C265.091 208.602 266.263 205.41 266.574 202.252C266.655 201.4 265.326 201.259 265.113 202.052L265.117 202.056Z" fill="#1E22AA"/>
        <path d="M105.787 101.449C107.025 93.1729 108.251 84.8972 109.464 76.6215C110.746 67.8885 112.005 59.154 113.244 50.4181C113.812 46.4209 114.381 42.4208 114.949 38.4179C115.213 36.5386 115.336 34.5145 116.257 32.8142C116.644 32.0093 117.279 31.3493 118.068 30.9306C118.863 30.5977 119.712 30.4143 120.574 30.3894C122.551 30.2573 124.558 30.432 126.54 30.4917C128.96 30.5641 131.381 30.6622 133.784 30.7602C136.073 30.8497 138.378 30.871 140.654 31.084C142.405 31.246 144.263 31.6806 144.987 33.4747C145.746 35.3582 145.269 37.6168 145.056 39.56C144.796 41.9805 144.6 44.4052 144.408 46.83C144.229 49.1695 144.054 51.5175 143.841 53.8485C143.637 56.073 143.317 58.2889 143.125 60.5134C142.959 62.4608 142.963 64.4935 143.73 66.3259C144.088 67.2135 144.662 67.9978 145.399 68.608C146.137 69.2181 147.014 69.6348 147.953 69.8203C149.982 70.2976 152.155 70.2251 154.23 70.3061C156.655 70.4084 159.084 70.4893 161.513 70.5703C171.366 70.8899 181.222 71.1669 191.079 71.4609L198.268 71.6783C200.428 71.7465 202.695 72.032 204.848 71.7848C206.761 71.5632 208.777 70.8942 210.14 69.4666C211.504 68.039 211.802 65.9637 211.845 64.0418C211.968 59.6014 211.687 55.1227 211.546 50.6823C211.474 48.2788 211.397 45.8797 211.329 43.4762C211.269 41.4734 211.048 39.4108 211.278 37.4208C211.453 35.925 212.028 34.7233 213.383 34.0116C214.564 33.3895 216.328 33.5514 217.755 33.6068C222.443 33.7943 227.13 33.9221 231.792 34.0329C234.775 34.1096 237.814 34.0755 239.702 36.6963C241.125 38.6779 240.903 41.4989 241.104 43.8129C241.27 45.7476 241.423 47.6822 241.581 49.6212C241.865 53.0474 242.138 56.475 242.399 59.904C242.757 64.3984 243.114 68.8927 243.469 73.3871C243.875 78.5008 244.278 83.6301 244.679 88.7751C245.102 94.1104 245.521 99.4457 245.936 104.781C246.337 109.875 246.736 114.967 247.134 120.058C247.483 124.524 247.834 128.991 248.186 133.46L248.979 143.628C249.126 145.509 249.268 147.391 249.405 149.274L249.46 150.003C249.588 151.627 252.136 151.639 252.017 150.003C251.936 148.985 251.859 147.966 251.778 146.948C251.563 144.186 251.347 141.425 251.131 138.663C250.813 134.601 250.494 130.54 250.176 126.48C249.79 121.56 249.403 116.636 249.017 111.71L247.739 95.6146L246.486 79.6599L245.335 65.0986C245.02 61.1526 244.706 57.2065 244.393 53.2604C244.183 50.661 243.973 48.0615 243.763 45.462C243.707 44.8058 243.656 44.1495 243.597 43.4975C243.303 40.0884 243.401 36.4492 240.614 33.9988C239.52 32.994 238.19 32.2803 236.748 31.9235C235.014 31.607 233.253 31.4642 231.49 31.4974C226.734 31.3738 221.978 31.2034 217.223 31.0457C215.518 30.986 213.814 30.986 212.258 31.7147C211.483 32.0863 210.796 32.6173 210.241 33.2731C209.685 33.9289 209.275 34.6947 209.036 35.5202C208.495 37.3355 208.61 39.3 208.67 41.1665C208.764 43.5444 208.815 45.9265 208.892 48.3044C209.036 52.992 209.19 57.6795 209.262 62.4012C209.288 63.9651 209.497 66.1725 208.461 67.4893C207.426 68.8061 205.529 69.2578 203.987 69.3132C201.673 69.3899 199.299 69.1811 197.002 69.1086L189.656 68.887L174.813 68.4609C169.81 68.3103 164.806 68.1555 159.8 67.9964L152.458 67.7493C150.753 67.6981 148.699 67.8515 147.161 66.9225C145.622 65.9935 145.456 63.9395 145.456 62.3586C145.456 60.1384 145.831 57.9267 146.048 55.7193C146.509 50.9806 146.756 46.2206 147.161 41.4776C147.48 37.7276 148.712 32.1366 144.604 29.9249C142.797 28.9491 140.615 28.8979 138.612 28.8297C136.24 28.7445 133.868 28.6707 131.496 28.6082C129.122 28.5485 126.744 28.5229 124.366 28.442C122.44 28.3738 120.459 28.2587 118.562 28.7147C117.657 28.9302 116.814 29.3492 116.095 29.94C115.377 30.5307 114.802 31.2776 114.416 32.1238C113.538 33.9434 113.346 35.9293 113.069 37.9023C111.888 46.3314 110.693 54.7576 109.486 63.181C108.233 71.9879 106.99 80.7849 105.757 89.572C105.216 93.4541 104.717 97.3448 104.201 101.235C104.086 102.118 105.638 102.339 105.774 101.449H105.787Z" fill="#1E22AA"/>
        <path d="M127.447 228.601C132.182 228.886 136.938 228.907 141.676 229.027L156.033 229.427L184.486 230.228L213.072 231.034L241.385 231.826L247.214 231.997C248.503 232.054 249.795 232.021 251.08 231.899C253.79 231.596 256.538 230.501 257.531 227.74C257.773 227.027 257.916 226.284 257.957 225.532C258.034 224.514 256.3 224.254 256.159 225.285C256.107 225.85 255.942 226.399 255.675 226.899C255.408 227.4 255.044 227.842 254.604 228.2C253.653 228.821 252.564 229.2 251.433 229.304C251.007 229.368 250.325 229.427 249.729 229.449C249.132 229.47 248.45 229.474 247.828 229.449C246.123 229.419 244.385 229.355 242.663 229.304L214.883 228.524L186.817 227.735L158.88 226.951L130.942 226.167C129.778 226.137 128.615 226.108 127.447 226.112C125.858 226.112 125.879 228.477 127.447 228.571V228.601Z" fill="#1E22AA"/>
        <path d="M155.014 40.7531C155.07 44.2048 155.245 47.6395 155.441 51.087C155.453 51.2294 155.518 51.362 155.624 51.4586C155.729 51.5552 155.867 51.6088 156.01 51.6088C156.152 51.6088 156.29 51.5552 156.395 51.4586C156.501 51.362 156.566 51.2294 156.578 51.087C156.578 47.6353 156.54 44.2006 156.382 40.7531C156.344 39.8752 154.993 39.8625 155.006 40.7531H155.014Z" fill="#1E22AA"/>
        <path d="M160.554 40.7574C160.418 42.3086 160.333 43.8597 160.252 45.4151C160.171 46.9705 160.039 48.5217 160.06 50.0729C160.06 50.8953 161.219 50.8527 161.309 50.0729C161.488 48.5302 161.513 46.9663 161.586 45.4151C161.658 43.864 161.735 42.3128 161.756 40.7574C161.756 39.9776 160.623 40.0031 160.554 40.7574Z" fill="#1E22AA"/>
        <path d="M165.915 41.1622C165.838 44.0642 165.847 46.9663 165.851 49.8683C165.851 50.057 165.926 50.238 166.06 50.3715C166.193 50.505 166.374 50.5799 166.563 50.5799C166.752 50.5799 166.933 50.505 167.066 50.3715C167.2 50.238 167.275 50.057 167.275 49.8683C167.275 46.9663 167.275 44.0642 167.211 41.1622C167.186 41.0106 167.108 40.8727 166.991 40.7733C166.874 40.6738 166.725 40.6192 166.571 40.6192C166.418 40.6192 166.269 40.6738 166.152 40.7733C166.035 40.8727 165.957 41.0106 165.932 41.1622H165.915Z" fill="#1E22AA"/>
        <path d="M171.404 41.3625C171.357 43.0159 171.31 44.6651 171.302 46.3185V48.7986C171.251 49.623 171.275 50.4503 171.374 51.2703C171.419 51.4133 171.508 51.5384 171.629 51.6272C171.75 51.7159 171.895 51.7638 172.045 51.7638C172.195 51.7638 172.341 51.7159 172.462 51.6272C172.583 51.5384 172.672 51.4133 172.717 51.2703C172.812 50.45 172.835 49.6229 172.785 48.7986V46.3185C172.785 44.6651 172.725 43.0159 172.682 41.3625C172.682 41.1929 172.615 41.0304 172.495 40.9105C172.375 40.7906 172.213 40.7233 172.043 40.7233C171.874 40.7233 171.711 40.7906 171.591 40.9105C171.471 41.0304 171.404 41.1929 171.404 41.3625Z" fill="#1E22AA"/>
        <path d="M80.2481 154.597C72.2409 156.523 66.1855 164.13 65.4099 172.214C64.613 180.412 69.7608 188.407 77.1245 191.816C81.0448 193.622 85.4571 194.063 89.6573 193.069C94.0839 192.029 98.0858 189.658 101.125 186.276C103.959 183.021 105.858 179.058 106.621 174.81C107.384 170.562 106.983 166.186 105.459 162.148C102.314 154.149 94.5409 148.482 86.0479 147.544C85.0021 147.422 83.9461 147.415 82.8987 147.523C82.7156 147.537 82.5446 147.62 82.4198 147.754C82.2951 147.889 82.2257 148.066 82.2257 148.249C82.2257 148.433 82.2951 148.61 82.4198 148.745C82.5446 148.879 82.7156 148.962 82.8987 148.976C84.8759 149 86.8447 149.237 88.771 149.683C90.6946 150.164 92.546 150.898 94.2767 151.865C97.7404 153.78 100.626 156.589 102.633 160C106.656 166.963 106.162 176.074 101.781 182.761C97.3194 189.579 88.4088 193.58 80.4058 191.283C73.285 189.259 67.4554 182.59 66.846 175.141C66.2238 167.522 71.0137 159.949 77.9257 156.817C78.7924 156.425 79.6886 156.101 80.6061 155.85C80.765 155.794 80.8967 155.68 80.9747 155.53C81.0527 155.381 81.0711 155.208 81.0262 155.045C80.9812 154.883 80.8764 154.744 80.7327 154.656C80.5891 154.568 80.4174 154.538 80.2524 154.571L80.2481 154.597Z" fill="#1E22AA"/>
        <path d="M207.238 187.729C208.565 186.801 209.81 185.761 210.958 184.619L214.41 181.457C216.762 179.3 219.115 177.143 221.467 174.983C226.112 170.722 230.754 166.445 235.393 162.152L239.301 158.539L241.329 156.664C242.031 156.064 242.695 155.422 243.32 154.742C243.839 154.12 243.149 152.982 242.382 153.527C241.065 154.461 239.919 155.679 238.73 156.77L235.283 159.936C232.93 162.093 230.581 164.252 228.234 166.414C223.541 170.743 218.853 175.076 214.171 179.411L210.268 183.025C208.934 184.261 207.524 185.454 206.433 186.907C206.062 187.397 206.774 188.032 207.255 187.729H207.238Z" fill="#1E22AA"/>
        <path d="M153.31 85.9284C152.125 87.6671 151.605 89.5975 151.345 91.741C151.026 94.2978 151.009 96.9016 150.945 99.4797C150.813 104.798 150.715 110.112 150.591 115.426C150.468 120.74 149.641 127.396 154.124 131.304C156.527 133.405 159.561 134.087 162.647 134.321C166.546 134.611 170.449 134.832 174.357 134.956C178.265 135.08 182.079 135.097 185.944 134.982C187.823 134.926 189.724 134.884 191.603 134.709C193.363 134.575 195.059 133.988 196.525 133.004C199.256 131.082 200.641 127.891 200.735 124.592C200.829 121.496 200.93 118.398 201.038 115.298C201.153 111.953 201.276 108.608 201.387 105.267C201.489 102.25 201.668 99.2198 201.605 96.2027C201.519 92.116 201.008 87.0918 197.599 84.3133C196.176 83.1925 194.493 82.448 192.707 82.1485C189.894 81.6201 186.971 81.7224 184.124 81.6372L172.644 81.3303L167.151 81.1812C165.446 81.1343 163.742 80.9894 162.063 81.0704C160.376 81.1486 158.713 81.5087 157.145 82.1357C156.868 82.2209 156.634 82.4086 156.491 82.6604C156.348 82.9122 156.306 83.2093 156.374 83.4909C156.453 83.7724 156.641 84.0112 156.895 84.1556C157.15 84.2999 157.451 84.3383 157.733 84.2622C159.19 83.654 160.745 83.3119 162.323 83.2522C163.972 83.2054 165.638 83.329 167.287 83.3716L178.103 83.6613C181.789 83.7594 185.475 83.8361 189.161 83.9639C189.673 83.9639 190.184 84.0108 190.691 84.0576L191.386 84.1301H191.352H191.509L191.91 84.194C192.751 84.3393 193.577 84.5633 194.377 84.8631C194.62 84.9568 194.309 84.8247 194.484 84.9057L194.722 85.0165C194.901 85.1017 195.08 85.1954 195.255 85.2935C195.43 85.3915 195.57 85.4852 195.724 85.5832L195.967 85.7537L196.069 85.8304C196.197 85.9199 195.924 85.7111 196.043 85.8091C196.346 86.0481 196.631 86.3088 196.896 86.5889L197.092 86.8148C197.117 86.8489 197.279 87.0449 197.198 86.9384C197.117 86.8318 197.288 87.0619 197.322 87.1088L197.497 87.3688C197.722 87.7171 197.924 88.0801 198.102 88.4554C198.153 88.5577 198.2 88.6642 198.242 88.7665C198.285 88.8688 198.242 88.7665 198.242 88.7324C198.242 88.7793 198.281 88.8219 198.298 88.8688C198.383 89.0946 198.468 89.3205 198.541 89.5506C198.872 90.57 199.105 91.6188 199.235 92.6827C199.568 95.2012 199.482 98.0607 199.401 100.711C199.313 103.771 199.211 106.831 199.095 109.89C198.984 113.072 198.874 116.255 198.766 119.44C198.72 120.898 198.673 122.351 198.63 123.808C198.654 125.237 198.401 126.656 197.884 127.989C197.346 129.298 196.437 130.421 195.268 131.219C193.956 132.039 192.45 132.496 190.904 132.544C187.218 132.77 183.523 132.855 179.824 132.834C176.126 132.812 172.341 132.689 168.608 132.489C166.745 132.386 164.884 132.266 163.026 132.126C161.548 132.061 160.085 131.809 158.671 131.376C157.416 130.977 156.275 130.284 155.342 129.354C154.41 128.425 153.713 127.286 153.31 126.033C152.513 123.399 152.645 120.591 152.713 117.876C152.833 112.907 152.897 107.939 152.978 102.961C153.012 100.771 153.053 98.582 153.101 96.3945C153.161 93.8802 153.233 91.3191 153.881 88.873C154.076 88.1188 154.388 87.3998 154.806 86.7423C155.372 85.8133 153.953 85.0122 153.361 85.8901L153.31 85.9284Z" fill="#00BFFF"/>
        <path d="M151.814 96.7566C151.708 100.021 152.5 103.375 153.604 106.426C154.762 109.564 156.304 112.547 158.194 115.307C161.984 120.869 166.731 125.716 172.214 129.621C175.363 131.932 178.878 133.699 182.612 134.849C183.975 135.241 184.508 133.196 183.191 132.744C180.061 131.688 177.082 130.23 174.327 128.406C171.734 126.631 169.309 124.621 167.083 122.402C162.493 117.915 158.53 112.733 155.901 106.852C154.431 103.566 153.672 100.123 153.174 96.5734C153.063 95.7808 151.844 96.0151 151.823 96.7566H151.814Z" fill="#00BFFF"/>
        <path d="M186.012 133.605C185.415 133.026 184.793 132.489 184.252 131.849C183.757 131.243 183.351 130.568 183.046 129.847C182.373 128.179 182.039 126.395 182.062 124.597C181.998 120.425 182.914 116.214 181.857 112.102C180.898 108.429 178.163 105.51 174.937 103.639C171.502 101.649 167.437 101.014 163.542 100.613C161.794 100.434 160.017 100.409 158.33 99.9826C157.585 99.8078 156.877 99.5035 156.238 99.0835C155.475 98.5764 154.959 97.805 154.171 97.3405C154.016 97.2546 153.84 97.2158 153.663 97.2289C153.487 97.242 153.318 97.3064 153.177 97.4142C153.037 97.5219 152.931 97.6684 152.873 97.8355C152.815 98.0026 152.807 98.1831 152.85 98.3547C153.276 100.004 155.087 101.125 156.591 101.734C158.096 102.343 159.613 102.467 161.151 102.586C164.884 102.919 168.847 103.221 172.32 104.755C175.499 106.162 178.52 108.731 179.565 112.136C180.809 116.133 179.795 120.386 179.842 124.473C179.814 126.664 180.259 128.836 181.146 130.84C181.942 132.544 183.319 134.406 185.224 134.909C185.391 134.951 185.567 134.937 185.726 134.87C185.885 134.803 186.018 134.687 186.104 134.538C186.191 134.389 186.228 134.216 186.208 134.045C186.188 133.874 186.113 133.713 185.995 133.588L186.012 133.605Z" fill="#00BFFF"/>
        <path d="M304.262 166.137C304.101 167.174 304.031 168.224 304.053 169.273C304.053 170.262 304.007 171.246 303.985 172.231C303.937 174.31 303.897 176.388 303.866 178.465C303.802 182.582 303.678 186.702 303.67 190.823C303.67 192.293 305.941 192.293 305.954 190.823C305.98 186.702 305.89 182.582 305.865 178.465C305.865 176.424 305.826 174.378 305.801 172.337C305.801 171.317 305.785 170.296 305.754 169.273C305.786 168.225 305.726 167.175 305.575 166.137C305.532 165.996 305.445 165.873 305.327 165.786C305.209 165.698 305.066 165.651 304.919 165.651C304.771 165.651 304.628 165.698 304.51 165.786C304.392 165.873 304.305 165.996 304.262 166.137Z" fill="#1E22AA"/>
        <path d="M304.727 191.722C305.498 192.195 306.516 192.251 307.386 192.408L310.211 192.928C311.119 193.09 312.026 193.261 312.934 193.418C313.886 193.618 314.85 193.76 315.819 193.844C316.914 193.896 317.068 192.293 316.07 191.986C315.18 191.752 314.277 191.573 313.364 191.449C312.418 191.279 311.472 191.126 310.526 190.968L307.799 190.508C306.866 190.35 305.856 190.056 304.918 190.252C304.219 190.397 304.177 191.369 304.727 191.709V191.722Z" fill="#1E22AA"/>
        <path d="M164.096 172.742C166.84 173.189 169.635 173.415 172.401 173.714C175.167 174.012 177.941 174.314 180.719 174.6C180.93 174.6 181.132 174.517 181.281 174.368C181.431 174.22 181.515 174.018 181.516 173.807C181.512 173.597 181.426 173.397 181.278 173.249C181.129 173.1 180.929 173.015 180.719 173.01C177.983 172.699 175.243 172.405 172.508 172.103C169.772 171.8 167.036 171.429 164.292 171.276C163.465 171.229 163.256 172.606 164.096 172.742Z" fill="#1E22AA"/>
        <path d="M181.393 174.174C181.84 173.22 182.18 172.22 182.407 171.191L183.234 168.331C183.788 166.391 184.34 164.449 184.891 162.506C186.008 158.59 187.192 154.686 188.19 150.74C188.218 150.64 188.226 150.536 188.213 150.433C188.201 150.33 188.168 150.23 188.117 150.14C188.067 150.05 187.998 149.97 187.917 149.906C187.835 149.842 187.742 149.795 187.642 149.767C187.542 149.739 187.438 149.731 187.335 149.743C187.232 149.755 187.132 149.788 187.042 149.839C186.951 149.89 186.872 149.958 186.808 150.039C186.744 150.121 186.696 150.214 186.668 150.314C185.428 154.192 184.367 158.134 183.259 162.046C182.705 163.985 182.143 165.928 181.589 167.867C181.305 168.822 181.033 169.776 180.775 170.731C180.416 171.729 180.173 172.766 180.05 173.82C180.055 173.979 180.111 174.131 180.209 174.256C180.307 174.38 180.443 174.469 180.596 174.51C180.749 174.552 180.911 174.542 181.059 174.484C181.206 174.426 181.331 174.321 181.414 174.187L181.393 174.174Z" fill="#1E22AA"/>
        <path d="M301.633 199.235C302.428 199.517 303.256 199.696 304.096 199.768C304.906 199.887 305.718 200.002 306.533 200.113C308.353 200.356 310.168 200.612 311.988 200.842C313.731 201.063 315.474 201.289 317.208 201.575C318.061 201.711 318.887 201.792 319.714 201.95C320.473 202.095 321.696 202.546 322.369 202.06C322.48 201.991 322.575 201.897 322.646 201.787C322.717 201.676 322.763 201.551 322.78 201.421C322.797 201.291 322.785 201.158 322.745 201.033C322.705 200.908 322.638 200.793 322.548 200.697C322.049 200.066 320.715 200.151 319.991 200.083C319.267 200.015 318.376 199.862 317.566 199.764C315.823 199.559 314.08 199.337 312.346 199.056C310.612 198.775 308.818 198.553 307.053 198.298L304.616 197.961C303.776 197.78 302.917 197.704 302.059 197.735C301.885 197.743 301.717 197.803 301.578 197.909C301.439 198.015 301.337 198.161 301.283 198.327C301.236 198.498 301.246 198.68 301.312 198.844C301.378 199.008 301.497 199.146 301.65 199.235H301.633Z" fill="#1E22AA"/>
        <path d="M276.686 203.045C285.198 202.581 293.648 201.334 301.931 199.32C302.962 199.078 302.523 197.475 301.505 197.731C293.358 199.713 285.061 201.02 276.699 201.639C275.804 201.711 275.783 203.092 276.699 203.045H276.686Z" fill="#1E22AA"/>
        <path d="M194.219 189.532C195.16 190.075 196.138 190.55 197.147 190.951C198.11 191.369 199.077 191.776 200.049 192.174C202.038 192.981 204.045 193.721 206.07 194.394C210.132 195.745 214.214 197.019 218.394 197.965C220.772 198.502 223.167 198.954 225.583 199.278C225.777 199.325 225.98 199.296 226.153 199.198C226.325 199.099 226.454 198.939 226.513 198.749C226.559 198.556 226.528 198.352 226.426 198.182C226.324 198.011 226.159 197.888 225.967 197.837C221.752 197.087 217.564 196.235 213.421 195.153C209.315 194.068 205.279 192.732 201.336 191.151C200.234 190.708 199.139 190.251 198.05 189.779C196.947 189.298 195.852 188.731 194.705 188.351C193.985 188.113 193.597 189.161 194.202 189.545L194.219 189.532Z" fill="#1E22AA"/>
        <path d="M163.354 178.576C168.09 179.38 172.824 180.177 177.557 180.967L179.045 181.209C179.398 181.309 179.768 181.332 180.131 181.278H179.705C179.917 181.331 180.142 181.3 180.332 181.192C180.523 181.084 180.664 180.907 180.728 180.698C180.781 180.486 180.751 180.261 180.643 180.071C180.535 179.88 180.358 179.739 180.148 179.675C180.553 179.739 180.195 179.675 180.046 179.641C179.937 179.608 179.826 179.584 179.714 179.569C179.313 179.492 178.913 179.432 178.512 179.364L174.617 178.725C171.688 178.248 168.76 177.773 165.834 177.302L163.806 176.978C163.594 176.925 163.369 176.955 163.179 177.063C162.988 177.171 162.847 177.348 162.783 177.557C162.731 177.769 162.762 177.993 162.87 178.182C162.978 178.371 163.154 178.512 163.363 178.576H163.354Z" fill="#1E22AA"/>
        <path d="M198.609 211.048C200.284 211.517 202.099 211.636 203.816 211.9C205.598 212.16 207.375 212.403 209.156 212.65L214.397 213.37C216.166 213.679 217.95 213.9 219.741 214.031C219.914 214.024 220.079 213.957 220.207 213.841C220.334 213.725 220.417 213.567 220.44 213.396C220.463 213.224 220.425 213.051 220.332 212.905C220.239 212.759 220.098 212.651 219.933 212.599C218.213 212.227 216.475 211.943 214.725 211.747L209.399 210.954C207.654 210.698 205.911 210.446 204.17 210.196C202.41 209.948 200.59 209.548 198.813 209.526C198.633 209.534 198.461 209.605 198.327 209.727C198.193 209.849 198.107 210.014 198.082 210.193C198.058 210.372 198.097 210.554 198.194 210.707C198.29 210.861 198.437 210.975 198.609 211.031V211.048Z" fill="#1E22AA"/>
        <path d="M259.044 219.375C260.749 219.801 262.5 220.018 264.23 220.304L269.438 221.156L274.649 222.008L277.147 222.434C278.037 222.637 278.942 222.767 279.853 222.822C280.025 222.817 280.189 222.75 280.317 222.635C280.445 222.52 280.528 222.364 280.551 222.193C280.575 222.023 280.537 221.849 280.445 221.704C280.353 221.559 280.213 221.45 280.049 221.399C279.163 221.165 278.259 221.004 277.347 220.917L274.846 220.517L269.638 219.664L264.422 218.812C262.718 218.535 260.966 218.215 259.219 218.062C258.469 217.998 258.32 219.2 259.044 219.375Z" fill="#1E22AA"/>
    </g>
    <defs>
        <clipPath id="clip0_38:13687">
            <rect width="296.701" height="213.774" fill="white" transform="translate(31.7744 28.378)"/>
        </clipPath>
    </defs>
</svg>
