<svg viewBox="0 0 360 271" fill="none" xmlns="http://www.w3.org/2000/svg">
    <g clip-path="url(#clip0_38:13582)">
        <path d="M290.547 213.422L288.587 221.359L288.344 222.354L288.219 222.856C288.169 223.044 288.11 223.23 288.042 223.412C287.621 224.506 286.848 225.429 285.845 226.035C284.841 226.641 283.665 226.896 282.5 226.759C282.308 226.737 282.117 226.703 281.928 226.657L281.423 226.536L280.431 226.293L278.432 225.791L274.462 224.823L266.526 222.864L258.585 220.904L254.615 219.932L254.368 219.873L254.086 219.795C253.897 219.74 253.711 219.673 253.53 219.595C253.164 219.441 252.817 219.247 252.495 219.015C251.848 218.552 251.313 217.951 250.927 217.255C250.343 216.206 250.128 214.992 250.316 213.806C250.343 213.618 250.398 213.414 250.434 213.246L250.555 212.748L251.539 208.825L253.498 200.889L269.042 137.398C269.067 137.267 269.119 137.143 269.193 137.033C269.268 136.924 269.364 136.83 269.476 136.758C269.587 136.687 269.712 136.639 269.843 136.617C269.974 136.595 270.108 136.6 270.237 136.632C270.366 136.664 270.487 136.721 270.593 136.801C270.7 136.881 270.788 136.982 270.854 137.097C270.92 137.212 270.962 137.339 270.977 137.471C270.992 137.603 270.981 137.737 270.943 137.864L255.023 201.273L253.036 209.201L252.04 213.164L251.919 213.661C251.876 213.834 251.848 213.947 251.825 214.096C251.709 214.804 251.792 215.529 252.066 216.192C252.339 216.854 252.792 217.427 253.373 217.847C253.603 218.016 253.851 218.158 254.114 218.27C254.243 218.325 254.38 218.376 254.506 218.419L254.717 218.474L254.964 218.537L258.938 219.521L266.867 221.508L274.791 223.491L278.758 224.486L280.717 224.984L281.709 225.231L282.199 225.352C282.34 225.388 282.485 225.414 282.63 225.431C283.507 225.54 284.395 225.354 285.155 224.902C285.914 224.45 286.502 223.757 286.823 222.934C286.877 222.797 286.923 222.657 286.961 222.515L287.086 222.033L287.333 221.041L289.292 213.113C289.341 212.962 289.445 212.835 289.584 212.758C289.722 212.68 289.885 212.658 290.039 212.696C290.193 212.734 290.327 212.829 290.414 212.961C290.5 213.094 290.534 213.254 290.507 213.41L290.547 213.422Z" fill="#1E22AA"/>
        <path d="M269.826 132.906L272.177 124.206L273.353 119.851L273.639 118.762L273.784 118.217L273.855 117.947L273.89 117.809L273.941 117.645C274.323 116.337 275.174 115.216 276.331 114.496C277.488 113.777 278.87 113.509 280.212 113.745C280.682 113.835 280.995 113.933 281.387 114.027L282.477 114.317L284.656 114.89L293.376 117.143L302.096 119.397L306.459 120.521L307.552 120.792L308.101 120.929C308.305 120.982 308.507 121.046 308.704 121.121C309.924 121.578 310.934 122.466 311.544 123.617C312.153 124.768 312.32 126.103 312.012 127.368C311.651 128.826 311.273 130.282 310.875 131.734L308.555 140.435C305.498 152.044 302.581 163.689 299.804 175.371C298.408 181.21 297.035 187.055 295.685 192.905C294.334 198.755 292.993 204.608 291.664 210.463C291.606 210.717 291.451 210.937 291.231 211.076C291.011 211.215 290.745 211.261 290.492 211.204C290.238 211.147 290.018 210.991 289.879 210.771C289.74 210.552 289.694 210.286 289.751 210.032C291.073 204.169 292.413 198.311 293.772 192.458C295.132 186.607 296.547 180.767 297.973 174.928C300.827 163.251 303.808 151.609 306.917 140L309.269 131.303C309.66 129.857 310.088 128.419 310.531 126.992C310.716 126.377 310.748 125.726 310.623 125.096C310.498 124.466 310.22 123.876 309.813 123.379C309.401 122.866 308.86 122.471 308.246 122.234C308.093 122.172 307.937 122.119 307.779 122.073L307.238 121.936L306.145 121.67L301.763 120.623L292.996 118.542L284.241 116.445L282.046 115.932L280.948 115.677C280.596 115.599 280.184 115.493 279.914 115.454C279.313 115.364 278.699 115.423 278.126 115.624C277.553 115.826 277.038 116.164 276.626 116.61C276.218 117.055 275.927 117.593 275.779 118.178L275.748 118.284L275.716 118.421L275.654 118.695L275.524 119.244L275.269 120.337L274.27 124.731L272.283 133.521C272.209 133.848 272.009 134.133 271.725 134.312C271.442 134.491 271.099 134.55 270.772 134.476C270.445 134.402 270.161 134.201 269.982 133.918C269.803 133.635 269.744 133.292 269.818 132.965L269.826 132.906Z" fill="#1E22AA"/>
        <path d="M287.298 119.075C287.831 119.886 289.132 120.302 290.433 120.643C291.734 120.984 293.176 121.278 294.552 121.65C295.234 121.823 295.904 121.999 296.555 122.128C297.16 122.262 297.781 122.318 298.401 122.293C298.897 122.277 299.367 122.069 299.714 121.713C300.086 121.272 300.354 120.752 300.497 120.192C300.562 120.006 300.694 119.851 300.868 119.757C301.042 119.664 301.244 119.64 301.435 119.689C301.626 119.739 301.791 119.858 301.897 120.024C302.004 120.19 302.044 120.39 302.01 120.584C301.866 121.417 301.519 122.202 300.999 122.869C300.698 123.238 300.321 123.537 299.894 123.747C299.483 123.949 299.042 124.081 298.589 124.139C297.791 124.221 296.985 124.184 296.198 124.029C295.453 123.904 294.748 123.731 294.054 123.559L292.001 123.045C291.315 122.881 290.621 122.708 289.912 122.501C289.172 122.29 288.454 122.01 287.768 121.662C287.39 121.468 287.04 121.226 286.725 120.941C286.384 120.636 286.105 120.267 285.906 119.855C285.828 119.677 285.819 119.476 285.881 119.292C285.943 119.107 286.071 118.953 286.24 118.857C286.41 118.762 286.609 118.733 286.798 118.776C286.988 118.82 287.155 118.932 287.266 119.091L287.298 119.075Z" fill="#1E22AA"/>
        <path d="M285.416 125.581C285.014 125.221 284.542 124.948 284.029 124.778C283.496 124.614 282.94 124.539 282.383 124.558C281.246 124.622 280.169 125.089 279.346 125.875C278.51 126.667 277.994 127.738 277.896 128.885C277.79 130.042 278.103 131.199 278.777 132.146C279.47 133.105 280.487 133.782 281.639 134.05C282.792 134.319 284.002 134.162 285.048 133.608C286.11 133.05 286.935 132.129 287.372 131.013C287.8 129.867 287.848 128.614 287.509 127.439C287.473 127.292 287.494 127.137 287.569 127.006C287.645 126.875 287.768 126.778 287.913 126.736C288.058 126.694 288.214 126.71 288.348 126.78C288.482 126.85 288.583 126.97 288.63 127.114C289.072 128.531 289.046 130.054 288.556 131.456C288.034 132.886 287.013 134.079 285.682 134.816C284.351 135.553 282.798 135.785 281.309 135.469C280.178 135.224 279.134 134.678 278.287 133.89C277.44 133.102 276.82 132.1 276.494 130.99C276.167 129.88 276.146 128.702 276.432 127.58C276.718 126.459 277.301 125.435 278.119 124.617C279.231 123.508 280.703 122.834 282.269 122.716C283.062 122.661 283.858 122.745 284.621 122.967C285.394 123.202 286.111 123.595 286.726 124.119C286.924 124.288 287.046 124.529 287.067 124.788C287.087 125.048 287.004 125.305 286.835 125.503C286.666 125.701 286.426 125.824 286.166 125.844C285.907 125.865 285.65 125.781 285.452 125.612L285.416 125.581Z" fill="#1E22AA"/>
        <path d="M294.865 135.258C295.109 135.826 295.462 136.341 295.904 136.772C296.347 137.204 296.87 137.544 297.444 137.774C298.036 138.005 298.667 138.117 299.302 138.103C299.937 138.089 300.562 137.95 301.143 137.692C301.724 137.435 302.247 137.065 302.684 136.604C303.121 136.143 303.462 135.6 303.688 135.007C304.03 134.09 304.094 133.092 303.87 132.14C303.645 131.187 303.144 130.322 302.428 129.654C301.713 128.986 300.815 128.546 299.849 128.388C298.883 128.23 297.892 128.362 297.001 128.767C296.399 129.04 295.857 129.429 295.407 129.913C294.957 130.396 294.607 130.965 294.379 131.585C294.15 132.205 294.047 132.864 294.075 133.524C294.104 134.184 294.263 134.832 294.544 135.43C294.614 135.58 294.622 135.751 294.566 135.907C294.51 136.062 294.394 136.189 294.244 136.259C294.095 136.329 293.923 136.337 293.768 136.281C293.612 136.225 293.485 136.109 293.415 135.959C292.715 134.444 292.646 132.713 293.222 131.147C293.798 129.581 294.973 128.307 296.488 127.607C298.003 126.907 299.734 126.838 301.3 127.414C302.867 127.99 304.14 129.165 304.84 130.68C305.557 132.202 305.643 133.947 305.079 135.532C304.503 137.14 303.314 138.454 301.772 139.188C300.23 139.923 298.46 140.017 296.849 139.451C295.204 138.875 293.854 137.672 293.094 136.104C292.982 135.87 292.967 135.6 293.054 135.355C293.14 135.11 293.32 134.909 293.554 134.797C293.789 134.685 294.058 134.67 294.303 134.757C294.548 134.843 294.749 135.023 294.862 135.258H294.865Z" fill="#1E22AA"/>
        <path d="M253.734 130.076C252.41 133.865 250.372 137.364 247.729 140.384C243.776 144.931 238.603 148.25 232.822 149.948C227.04 151.647 220.894 151.653 215.109 149.966C209.325 148.28 204.145 144.971 200.182 140.432C196.22 135.893 193.641 130.314 192.751 124.354C192.079 119.93 192.363 115.412 193.584 111.107C194.805 106.801 196.934 102.807 199.828 99.3931C202.722 95.9793 206.314 93.2253 210.362 91.3163C214.41 89.4073 218.82 88.3876 223.295 88.326C227.77 88.2644 232.206 89.1623 236.305 90.9591C240.404 92.756 244.07 95.4102 247.057 98.743C250.044 102.076 252.282 106.01 253.621 110.28C254.96 114.551 255.369 119.058 254.819 123.5C254.782 123.688 254.675 123.854 254.52 123.966C254.364 124.078 254.173 124.126 253.983 124.103C253.793 124.079 253.62 123.984 253.497 123.837C253.374 123.691 253.312 123.503 253.322 123.312C253.775 119.575 253.509 115.787 252.538 112.15C251.57 108.516 249.926 105.096 247.694 102.07C244.104 97.0553 239.042 93.2831 233.21 91.2773C227.378 89.2715 221.066 89.1317 215.152 90.8772C209.237 92.6227 204.012 96.1669 200.204 101.018C196.395 105.868 194.192 111.784 193.9 117.945C193.607 124.105 195.241 130.203 198.573 135.392C201.905 140.582 206.771 144.605 212.494 146.902C218.217 149.2 224.514 149.658 230.509 148.213C236.505 146.768 241.902 143.492 245.95 138.84C248.379 136.034 250.248 132.789 251.456 129.281C251.56 128.98 251.779 128.734 252.065 128.595C252.351 128.456 252.681 128.436 252.981 128.54C253.281 128.644 253.528 128.863 253.667 129.149C253.806 129.435 253.826 129.764 253.722 130.065L253.734 130.076Z" fill="#FF9900"/>
        <path d="M254.282 191.847C251.076 191.761 247.874 191.631 244.668 191.514L235.059 191.087C228.655 190.777 222.251 190.444 215.854 190.052L206.256 189.464L201.455 189.174L196.658 188.849L187.044 188.167C183.846 187.92 180.648 187.697 177.454 187.426C177.194 187.41 176.951 187.291 176.779 187.096C176.607 186.901 176.519 186.645 176.535 186.386C176.551 186.126 176.67 185.883 176.865 185.711C177.06 185.538 177.316 185.45 177.576 185.467C180.782 185.592 183.98 185.764 187.186 185.917L196.788 186.439L201.589 186.705L206.386 187.007L215.988 187.61C222.384 188.01 228.785 188.456 235.192 188.947L244.763 189.735C247.957 190.013 251.155 190.279 254.345 190.589C254.507 190.607 254.656 190.687 254.761 190.811C254.866 190.936 254.919 191.096 254.909 191.259C254.899 191.422 254.826 191.575 254.707 191.686C254.587 191.796 254.43 191.857 254.267 191.855L254.282 191.847Z" fill="#1E22AA"/>
        <path d="M328.782 196.617C325.933 196.581 323.088 196.48 320.238 196.393C317.389 196.307 314.548 196.221 311.702 196.092C308.857 195.962 306.016 195.817 303.178 195.606C300.341 195.394 297.503 195.19 294.666 194.924C294.507 194.914 294.352 194.873 294.209 194.803C294.066 194.733 293.938 194.636 293.833 194.517C293.727 194.398 293.646 194.259 293.595 194.108C293.543 193.958 293.521 193.799 293.531 193.64C293.541 193.481 293.582 193.326 293.652 193.183C293.721 193.04 293.819 192.912 293.938 192.807C294.057 192.702 294.196 192.621 294.346 192.569C294.497 192.517 294.656 192.496 294.815 192.505C297.664 192.592 300.505 192.752 303.347 192.878C306.188 193.003 309.03 193.219 311.867 193.446C314.705 193.673 317.542 193.936 320.376 194.199C323.209 194.461 326.047 194.712 328.88 195.029C329.088 195.042 329.282 195.137 329.42 195.294C329.558 195.45 329.628 195.654 329.615 195.862C329.602 196.07 329.507 196.264 329.351 196.402C329.195 196.54 328.99 196.61 328.782 196.597V196.617Z" fill="#1E22AA"/>
        <path d="M119.015 69.7482C119.211 61.8353 119.646 53.942 120.069 46.0448L120.112 45.3041V45.1199V45.0258V44.8965C120.133 44.6719 120.182 44.4507 120.257 44.2381C120.412 43.8107 120.673 43.4299 121.016 43.1316C121.359 42.8333 121.772 42.6274 122.217 42.5332C122.437 42.4844 122.662 42.4646 122.887 42.4744L123.279 42.498L124.02 42.5489L125.501 42.6508L131.415 43.1054C135.353 43.4294 139.295 43.7221 143.243 43.9833L166.915 45.551L178.751 46.3349L190.591 47.0677L214.306 48.5022L237.99 49.87L285.365 52.4645L309.049 53.8441C316.946 54.2948 324.836 54.8003 332.721 55.4117L333.462 55.4666H333.646C333.748 55.4666 333.866 55.4862 333.975 55.5097C334.199 55.5523 334.416 55.6234 334.622 55.7213C335.031 55.9166 335.385 56.2118 335.65 56.5796C335.915 56.9474 336.083 57.376 336.139 57.826C336.147 57.9382 336.147 58.0508 336.139 58.163V58.3276V58.4256L336.107 58.794L336.053 59.5347L335.939 61.0123L335.48 66.9263L335.018 72.8561L334.591 78.7702C334.042 86.6595 333.611 94.5567 333.137 102.45L331.883 126.138C331.683 130.088 331.44 134.035 331.208 137.982C330.977 141.928 330.762 145.875 330.491 149.821C329.468 165.604 328.434 181.387 327.168 197.154C327.153 197.393 327.043 197.616 326.863 197.774C326.684 197.933 326.449 198.013 326.209 197.998C325.97 197.983 325.747 197.874 325.589 197.694C325.43 197.514 325.35 197.279 325.365 197.04C326.07 181.238 327.007 165.451 327.959 149.665C328.183 145.714 328.465 141.771 328.72 137.825C328.974 133.878 329.233 129.935 329.531 125.993L331.236 102.336C331.745 94.447 332.302 86.5576 332.737 78.6644L333.05 72.7385L333.333 66.8166L333.615 60.8908L333.685 59.4093L333.721 58.6686V58.3002V58.21C333.721 58.21 333.721 58.1865 333.721 58.1787C333.713 58.136 333.694 58.0961 333.666 58.0631C333.637 58.03 333.601 58.005 333.56 57.9906H333.501H333.282L332.541 57.9553C324.64 57.5908 316.747 57.1205 308.857 56.5953L285.185 55.0276L237.849 51.7669L214.177 50.1992L190.501 48.7295L178.661 48.0005L166.817 47.3107L143.153 45.8998C139.203 45.6804 135.253 45.4857 131.306 45.3159L125.38 45.0376L123.898 44.9553L123.157 44.9161L122.809 44.8965H122.746C122.705 44.906 122.667 44.9256 122.635 44.9537C122.604 44.9818 122.58 45.0174 122.566 45.0572C122.562 45.0779 122.562 45.0992 122.566 45.1199C122.563 45.1368 122.563 45.154 122.566 45.1709V45.2649V45.4491L122.515 46.1898C121.962 54.0792 121.421 61.9686 120.637 69.8422C120.624 70.0527 120.528 70.2494 120.37 70.3891C120.212 70.5287 120.005 70.5999 119.795 70.5869C119.584 70.5739 119.388 70.4778 119.248 70.3198C119.108 70.1618 119.037 69.9547 119.05 69.7443L119.015 69.7482Z" fill="#1E22AA"/>
        <path d="M115.934 114.705L116.883 102.799C116.897 102.561 117.006 102.338 117.184 102.18C117.363 102.022 117.597 101.942 117.835 101.956C118.073 101.971 118.296 102.079 118.454 102.258C118.612 102.436 118.692 102.671 118.678 102.909L118.153 114.843C118.152 114.992 118.121 115.141 118.062 115.278C118.002 115.416 117.916 115.54 117.807 115.644C117.699 115.747 117.571 115.827 117.43 115.88C117.29 115.933 117.14 115.956 116.991 115.95C116.841 115.943 116.694 115.906 116.559 115.842C116.424 115.777 116.303 115.685 116.204 115.573C116.105 115.46 116.03 115.329 115.983 115.187C115.936 115.044 115.918 114.894 115.93 114.745C115.93 114.745 115.934 114.717 115.934 114.705Z" fill="#1E22AA"/>
        <path d="M258.201 185.717L249.924 185.075L241.639 184.487L225.068 183.401L208.486 182.437L200.197 182.002L191.9 181.61C191.64 181.598 191.396 181.483 191.22 181.291C191.045 181.099 190.953 180.845 190.965 180.585C190.977 180.325 191.092 180.081 191.284 179.906C191.476 179.73 191.73 179.638 191.99 179.65H192.022L200.299 180.293L208.584 180.881L225.155 181.967L241.733 182.931L250.026 183.37L258.323 183.762C258.583 183.774 258.827 183.888 259.002 184.081C259.178 184.273 259.269 184.527 259.257 184.787C259.246 185.046 259.131 185.291 258.939 185.466C258.746 185.641 258.492 185.733 258.233 185.721L258.201 185.717Z" fill="#1E22AA"/>
        <path d="M325.032 117.229L324.044 135.081L323.037 152.929C322.951 154.415 322.884 155.904 322.774 157.389C322.665 158.875 322.512 160.356 322.433 161.846L321.916 170.77L321.422 179.694L321.179 184.154C321.097 185.643 321.022 187.128 321.015 188.622C321.015 188.764 320.986 188.905 320.932 189.036C320.877 189.167 320.797 189.286 320.696 189.386C320.595 189.487 320.475 189.566 320.344 189.62C320.212 189.673 320.071 189.7 319.929 189.699H319.804L296.32 187.81C296.137 187.792 295.969 187.703 295.851 187.563C295.732 187.423 295.672 187.243 295.684 187.059C295.696 186.876 295.778 186.705 295.913 186.581C296.048 186.457 296.226 186.391 296.41 186.395L319.945 187.414L318.73 188.484C318.91 187.003 319.016 185.518 319.122 184.032L319.431 179.572L320.039 170.656L320.623 161.736C320.728 160.25 320.768 158.761 320.834 157.272C320.901 155.783 321.03 154.301 321.124 152.812L322.328 134.979L323.558 117.143C323.577 116.955 323.669 116.781 323.813 116.658C323.957 116.536 324.143 116.474 324.332 116.486C324.521 116.497 324.699 116.582 324.827 116.721C324.955 116.86 325.024 117.044 325.02 117.233L325.032 117.229Z" fill="#1E22AA"/>
        <path d="M126.144 69.0231L127.01 50.646C127.015 50.5195 127.046 50.3953 127.1 50.2807C127.153 50.166 127.229 50.0631 127.323 49.9779C127.416 49.8926 127.526 49.8268 127.645 49.784C127.764 49.7413 127.891 49.7225 128.017 49.7289H128.049C136.373 50.1482 144.693 50.6107 153.018 51.0653L177.983 52.4919L202.941 54.0086C211.257 54.5103 219.578 55.0119 227.898 55.5763C236.219 56.1407 244.531 56.6384 252.848 57.2145L277.797 58.9037L302.743 60.585C311.06 61.1494 319.38 61.6785 327.705 62.09C327.961 62.1022 328.201 62.2155 328.374 62.4051C328.547 62.5947 328.637 62.845 328.626 63.1012V63.1443L325.49 113.82C325.474 114.079 325.355 114.322 325.16 114.495C324.965 114.667 324.709 114.755 324.45 114.739C324.19 114.723 323.947 114.604 323.775 114.409C323.602 114.214 323.514 113.958 323.531 113.698L326.666 63.0228L327.571 64.0457C319.259 63.4226 310.938 62.9248 302.618 62.478L277.652 61.071L252.714 59.6719C244.39 59.2172 236.068 58.7352 227.749 58.2257C219.43 57.7162 211.111 57.2041 202.792 56.6894L177.838 55.1217L152.888 53.4599C144.572 52.8877 136.255 52.3195 127.943 51.7081L128.981 50.791L127.574 69.1328C127.555 69.3147 127.467 69.4823 127.327 69.6006C127.188 69.7189 127.008 69.7787 126.826 69.7675C126.643 69.7564 126.472 69.6752 126.348 69.5409C126.224 69.4065 126.156 69.2295 126.159 69.0466L126.144 69.0231Z" fill="#1E22AA"/>
        <path d="M123.318 110.367L124.439 95.9206C124.459 95.7272 124.552 95.5489 124.7 95.4229C124.848 95.2969 125.039 95.2331 125.233 95.2447C125.427 95.2564 125.609 95.3426 125.741 95.4854C125.873 95.6282 125.944 95.8164 125.94 96.0107L125.274 110.488C125.262 110.748 125.147 110.993 124.955 111.168C124.763 111.343 124.509 111.435 124.249 111.423C123.989 111.411 123.745 111.296 123.569 111.104C123.394 110.912 123.302 110.658 123.314 110.398C123.314 110.398 123.318 110.375 123.318 110.367Z" fill="#1E22AA"/>
        <path d="M217.21 189.221L215.725 193.058C215.604 193.379 215.439 193.736 215.294 194.073C215.149 194.41 214.949 194.732 214.777 195.061C214.604 195.39 214.385 195.692 214.169 195.997C213.954 196.303 213.73 196.601 213.483 196.879C212.273 198.305 210.762 199.445 209.059 200.218C207.357 200.991 205.504 201.378 203.634 201.351H203.078C202.894 201.351 202.729 201.331 202.556 201.324L201.53 201.257L197.418 201.002L189.188 200.485L172.763 199.438C171.395 199.368 170.019 199.152 168.663 199.047C168.322 199.019 167.97 199.003 167.64 198.992C167.311 198.98 166.998 198.992 166.68 198.992C166.038 199.021 165.4 199.103 164.771 199.235C162.239 199.757 159.871 200.885 157.87 202.523C157.747 202.618 157.594 202.665 157.438 202.655C157.283 202.645 157.137 202.578 157.028 202.468C156.919 202.357 156.854 202.21 156.846 202.055C156.838 201.9 156.887 201.747 156.984 201.625C158.888 199.37 161.545 197.881 164.462 197.432C165.185 197.315 165.916 197.26 166.649 197.267C167.013 197.267 167.378 197.267 167.742 197.291C168.107 197.314 168.432 197.346 168.777 197.353C170.149 197.428 171.52 197.385 172.896 197.479L189.337 198.482L197.567 198.984L201.679 199.235L202.705 199.297C202.874 199.297 203.054 199.321 203.211 199.325H203.681C205.257 199.345 206.817 199.018 208.252 198.368C209.688 197.718 210.962 196.76 211.986 195.562C212.198 195.331 212.378 195.069 212.57 194.826C212.762 194.583 212.911 194.3 213.087 194.042C213.264 193.783 213.389 193.493 213.526 193.211C213.664 192.929 213.781 192.65 213.918 192.329L215.419 188.496C215.514 188.254 215.701 188.059 215.939 187.955C216.177 187.85 216.447 187.845 216.689 187.94C216.931 188.034 217.126 188.221 217.23 188.459C217.335 188.697 217.34 188.967 217.246 189.209L217.21 189.221Z" fill="#1E22AA"/>
        <path d="M249.881 204.208L245.589 203.989C244.159 203.914 242.728 203.836 241.278 203.746L236.991 203.483L234.847 203.35C234.498 203.35 234.063 203.275 233.702 203.236C233.342 203.197 232.918 203.099 232.554 203.021C229.496 202.293 226.812 200.465 225.013 197.887C224.132 196.609 223.507 195.173 223.171 193.658C222.866 192.26 222.595 190.852 222.36 189.433C222.346 189.351 222.348 189.267 222.367 189.186C222.385 189.105 222.419 189.029 222.467 188.961C222.516 188.893 222.577 188.836 222.647 188.792C222.717 188.747 222.796 188.718 222.877 188.704C223.026 188.68 223.177 188.709 223.306 188.785C223.435 188.862 223.533 188.982 223.583 189.123C224.048 190.482 224.48 191.85 224.88 193.227C225.26 194.49 225.847 195.682 226.616 196.754C228.158 198.905 230.435 200.415 233.016 200.998C233.338 201.057 233.659 201.12 233.985 201.163C234.31 201.206 234.612 201.234 234.976 201.249L237.12 201.382L241.408 201.653C242.838 201.739 244.269 201.837 245.695 201.939L249.983 202.249C250.243 202.265 250.485 202.383 250.658 202.579C250.83 202.774 250.918 203.029 250.902 203.289C250.886 203.549 250.767 203.792 250.572 203.964C250.377 204.137 250.121 204.224 249.861 204.208H249.881Z" fill="#1E22AA"/>
        <path d="M154.343 203.397L166.559 204.004L178.775 204.655L190.987 205.349L197.093 205.701L203.196 206.093C211.332 206.642 219.46 207.269 227.608 207.696C235.756 208.123 243.893 208.59 252.009 209.452C252.092 209.457 252.173 209.479 252.248 209.515C252.322 209.552 252.389 209.602 252.444 209.665C252.499 209.727 252.541 209.799 252.568 209.878C252.595 209.956 252.606 210.039 252.601 210.122C252.596 210.205 252.574 210.286 252.538 210.361C252.502 210.435 252.451 210.502 252.388 210.557C252.326 210.612 252.254 210.654 252.175 210.681C252.097 210.708 252.014 210.719 251.931 210.714C243.767 210.569 235.631 210.056 227.498 209.448C219.366 208.841 211.218 208.488 203.074 208.033L196.972 207.661L190.87 207.269L178.665 206.454L166.461 205.596L154.264 204.69C154.095 204.678 153.938 204.6 153.827 204.472C153.716 204.344 153.661 204.177 153.672 204.008C153.682 203.839 153.757 203.68 153.882 203.565C154.008 203.451 154.173 203.39 154.343 203.397Z" fill="#1E22AA"/>
        <path d="M69.0646 223.808L80.4303 219.583C84.2163 218.176 88.0101 216.797 91.796 215.417L103.162 211.274L114.563 207.183L125.964 203.103L131.666 201.061L137.38 199.058L148.809 195.049L160.261 191.102L183.168 183.221L188.886 181.234L189.604 180.987L189.96 180.861L190.097 180.811L190.207 180.763C190.487 180.637 190.727 180.437 190.903 180.185C191.079 179.934 191.184 179.639 191.207 179.333C191.216 179.177 191.205 179.02 191.175 178.867C191.175 178.788 191.132 178.714 191.116 178.635L190.995 178.29C189.678 174.473 188.318 170.672 186.982 166.866C181.62 151.631 176.193 136.42 170.701 121.235C170.593 120.936 170.608 120.607 170.743 120.32C170.877 120.033 171.12 119.81 171.419 119.702C171.717 119.594 172.046 119.609 172.333 119.744C172.621 119.878 172.843 120.121 172.951 120.42C178.218 135.686 183.567 150.924 188.996 166.133C190.352 169.935 191.685 173.744 193.064 177.542L193.194 177.91C193.249 178.073 193.295 178.24 193.331 178.408C193.402 178.751 193.428 179.101 193.409 179.451C193.367 180.152 193.136 180.83 192.739 181.41C192.347 181.995 191.806 182.464 191.171 182.77L190.932 182.872L190.717 182.954L190.36 183.084L189.647 183.338L183.96 185.423L161.193 193.709L149.828 197.843L138.419 201.915L132.716 203.95L127.002 205.952L115.542 209.954L104.106 213.943L92.6504 217.882C88.8331 219.189 85.0132 220.495 81.1906 221.801L69.7074 225.658C69.465 225.735 69.2023 225.715 68.9745 225.602C68.7468 225.489 68.572 225.291 68.487 225.052C68.402 224.812 68.4135 224.549 68.5191 224.317C68.6247 224.086 68.8161 223.905 69.0529 223.812L69.0646 223.808Z" fill="#1E22AA"/>
        <path d="M42.2533 165.671C44.1502 170.864 46.0745 176.049 47.9479 181.253C49.8213 186.458 51.7221 191.651 53.572 196.864L59.1451 212.493C60.0857 215.092 60.9675 217.714 61.8885 220.332L62.5391 222.291L62.8644 223.275C62.9702 223.593 63.0917 223.984 63.1623 224.141C63.341 224.553 63.6645 224.885 64.0715 225.074C64.5005 225.265 64.9827 225.301 65.4354 225.176H65.4668C65.6881 225.116 65.9239 225.143 66.1258 225.252C66.3277 225.36 66.4804 225.542 66.5526 225.76C66.6247 225.977 66.611 226.214 66.514 226.422C66.417 226.63 66.2443 226.792 66.0311 226.877C65.1575 227.22 64.1872 227.226 63.3096 226.893C62.432 226.559 61.7102 225.911 61.285 225.074C61.121 224.724 60.9757 224.366 60.8499 224L60.4815 223.032L59.7486 221.072C58.8159 218.47 57.8517 215.88 56.9464 213.265L51.4595 197.612C49.6214 192.396 47.8303 187.16 46.0118 181.935C44.1933 176.711 42.4336 171.467 40.6386 166.235C40.6022 166.032 40.6393 165.823 40.7432 165.645C40.8471 165.467 41.0109 165.332 41.2054 165.264C41.3998 165.196 41.6121 165.2 41.8042 165.274C41.9962 165.349 42.1555 165.489 42.2533 165.671Z" fill="#1E22AA"/>
        <path d="M166.492 99.2833C162.89 107.87 158.728 116.183 154.319 124.366C154.221 124.551 154.054 124.689 153.855 124.75C153.655 124.812 153.439 124.791 153.255 124.693C153.07 124.596 152.932 124.429 152.871 124.229C152.81 124.03 152.83 123.814 152.928 123.629C157.207 115.434 161.233 107.106 164.685 98.5464C164.731 98.4244 164.801 98.3128 164.891 98.2182C164.981 98.1235 165.088 98.0477 165.208 97.9952C165.327 97.9427 165.455 97.9145 165.586 97.9124C165.716 97.9102 165.846 97.9341 165.967 97.9826C166.088 98.0311 166.198 98.1033 166.291 98.1949C166.383 98.2865 166.457 98.3957 166.507 98.5161C166.557 98.6365 166.582 98.7657 166.582 98.8961C166.581 99.0265 166.555 99.1554 166.504 99.2754L166.492 99.2833Z" fill="#1E22AA"/>
        <path d="M144.059 106.589C139.784 115.995 135.354 125.248 130.769 134.348" stroke="#1E22AA" stroke-width="1.9596" stroke-linecap="round" stroke-linejoin="round"/>
        <path d="M123.534 113.408L120.124 120.631L116.718 127.835L113.305 135.046C112.148 137.445 110.996 139.843 109.777 142.21C109.706 142.337 109.59 142.433 109.452 142.48C109.314 142.526 109.163 142.521 109.029 142.463C108.895 142.406 108.787 142.301 108.726 142.169C108.664 142.037 108.653 141.887 108.696 141.748C109.562 139.212 110.565 136.735 111.615 134.274C112.666 131.813 113.794 129.394 114.962 126.988C116.13 124.582 117.341 122.203 118.595 119.843C119.85 117.484 121.159 115.14 122.515 112.855C122.554 112.789 122.606 112.73 122.668 112.684C122.73 112.637 122.8 112.603 122.875 112.584C122.95 112.564 123.028 112.56 123.105 112.571C123.182 112.582 123.255 112.608 123.322 112.648C123.444 112.727 123.533 112.848 123.572 112.988C123.611 113.128 123.597 113.277 123.534 113.408Z" fill="#1E22AA"/>
        <path d="M102.315 121.231C97.935 128.997 93.9595 136.985 90.4047 145.161C90.3465 145.301 90.2353 145.411 90.0957 145.469C89.956 145.526 89.7993 145.525 89.66 145.467C89.5207 145.409 89.4103 145.298 89.3529 145.158C89.2956 145.018 89.2961 144.862 89.3543 144.723C92.6762 136.391 96.428 128.237 100.595 120.294C100.654 120.18 100.736 120.079 100.835 119.997C100.933 119.914 101.048 119.852 101.17 119.813C101.293 119.775 101.422 119.761 101.551 119.773C101.679 119.784 101.803 119.821 101.917 119.881C102.031 119.94 102.132 120.022 102.215 120.121C102.297 120.219 102.36 120.334 102.398 120.456C102.436 120.579 102.45 120.708 102.439 120.837C102.427 120.965 102.391 121.089 102.331 121.203L102.315 121.231Z" fill="#1E22AA"/>
        <path d="M60.3797 151.593C61.1539 151.182 61.7404 150.488 62.018 149.657C62.1646 149.238 62.2246 148.794 62.1943 148.352C62.154 147.875 62.0444 147.406 61.869 146.96L60.8226 143.856C60.4699 142.822 60.1054 141.795 59.737 140.768C59.6731 140.59 59.6826 140.393 59.7634 140.222C59.8443 140.051 59.9898 139.919 60.1681 139.855C60.3464 139.791 60.5427 139.8 60.714 139.881C60.8852 139.962 61.0173 140.108 61.0813 140.286C61.4418 141.317 61.8063 142.344 62.1826 143.37L63.323 146.439C63.5657 147.003 63.7306 147.598 63.8129 148.207C63.8838 148.855 63.8319 149.51 63.6601 150.139C63.3116 151.426 62.5045 152.541 61.3909 153.274H61.3713C61.1535 153.417 60.8881 153.467 60.6334 153.413C60.3788 153.36 60.1557 153.208 60.0133 152.99C59.8709 152.772 59.8208 152.507 59.8741 152.252C59.9274 151.998 60.0797 151.775 60.2974 151.632L60.3797 151.593Z" fill="#1E22AA"/>
        <path d="M58.714 138.679C58.221 137.4 57.2617 136.355 56.0293 135.755L51.6594 133.741L47.266 131.699L42.8882 129.63L40.6857 128.595L39.5922 128.078L39.0474 127.815C38.9684 127.778 38.8873 127.745 38.8044 127.717L38.5928 127.635C38.0324 127.432 37.4271 127.389 36.8435 127.508C36.2599 127.628 35.7206 127.906 35.285 128.313C34.8362 128.716 34.5045 129.234 34.3248 129.81C34.1561 130.392 34.1561 131.011 34.3248 131.593C34.3483 131.675 34.3483 131.734 34.3836 131.836L34.4816 132.122L34.6697 132.698L35.0616 133.847L35.818 136.151C36.8213 139.22 37.8403 142.285 38.9024 145.334L40.5367 149.896L42.222 154.438C42.4979 155.192 43.0247 155.828 43.714 156.24C44.4033 156.652 45.2132 156.814 46.0079 156.7C46.1625 156.672 46.3155 156.637 46.4665 156.594L46.6938 156.523L46.9564 156.421L49.2413 155.618C52.2878 154.536 55.3435 153.491 58.4083 152.483C58.6221 152.419 58.8522 152.44 59.0511 152.541C59.25 152.642 59.4024 152.816 59.4768 153.026C59.5513 153.236 59.5421 153.467 59.4512 153.671C59.3603 153.875 59.1946 154.036 58.9883 154.121C55.9653 155.263 52.9332 156.373 49.8919 157.452L47.6109 158.263L47.3483 158.381L46.9995 158.487C46.7609 158.55 46.5188 158.6 46.2744 158.636C45.7855 158.702 45.2898 158.702 44.8008 158.636C43.827 158.496 42.9114 158.087 42.1569 157.456C41.4023 156.824 40.8386 155.995 40.5289 155.061L38.9847 150.468L37.3857 145.894C36.2909 142.858 35.1635 139.833 34.0034 136.817L33.1451 134.552L32.714 133.42L32.4984 132.851L32.3926 132.569C32.3573 132.483 32.3182 132.342 32.2829 132.228C31.963 131.26 31.9317 130.22 32.1927 129.234C32.4565 128.245 32.9855 127.347 33.7225 126.637C34.4595 125.927 35.3766 125.432 36.3745 125.205C37.383 124.991 38.4312 125.065 39.4002 125.417L39.749 125.554C39.8571 125.594 39.9631 125.64 40.0664 125.691L40.6151 125.95L41.7086 126.471L43.8955 127.509L48.2693 129.59L52.6275 131.707L54.8065 132.761L55.8922 133.298L56.433 133.565C56.6211 133.659 56.7779 133.733 57.0013 133.851C58.6838 134.729 59.9606 136.225 60.5638 138.025C60.6506 138.27 60.6364 138.54 60.5243 138.774C60.4123 139.009 60.2115 139.19 59.9662 139.277C59.7209 139.364 59.4511 139.349 59.2163 139.237C58.9815 139.125 58.8008 138.924 58.714 138.679Z" fill="#1E22AA"/>
        <path d="M157.599 77.8413L128.899 69.3014C128.728 69.2377 128.586 69.1119 128.503 68.9488C128.42 68.7858 128.401 68.5975 128.451 68.4213C128.5 68.2451 128.614 68.094 128.77 67.9978C128.925 67.9016 129.111 67.8675 129.291 67.9022L158.129 75.9562C158.379 76.0258 158.592 76.1921 158.72 76.4185C158.847 76.6449 158.88 76.9128 158.811 77.1633C158.741 77.4138 158.575 77.6264 158.348 77.7543C158.122 77.8822 157.854 77.9149 157.603 77.8452L157.599 77.8413Z" fill="#1E22AA"/>
        <path d="M138.144 88.7132L106.716 79.9969C106.466 79.9273 106.253 79.761 106.125 79.5346C105.997 79.3082 105.965 79.0403 106.034 78.7898C106.104 78.5393 106.27 78.3267 106.497 78.1988C106.723 78.0709 106.991 78.0382 107.241 78.1078H107.261L138.509 87.4434C138.593 87.4673 138.671 87.5075 138.739 87.5616C138.807 87.6157 138.864 87.6827 138.906 87.7588C138.948 87.8348 138.975 87.9185 138.985 88.0049C138.995 88.0913 138.987 88.1789 138.964 88.2625C138.94 88.3461 138.899 88.4242 138.845 88.4923C138.791 88.5605 138.724 88.6172 138.648 88.6595C138.572 88.7017 138.488 88.7285 138.402 88.7384C138.316 88.7483 138.228 88.7411 138.144 88.7171V88.7132Z" fill="#1E22AA"/>
        <path d="M117.929 100.087C115.66 99.5106 113.406 98.8796 111.149 98.2525C108.891 97.6255 106.646 96.967 104.408 96.2929C102.17 95.6188 99.9165 94.9604 97.6825 94.2589C95.4486 93.5573 93.2029 92.8636 90.9846 92.1464C90.8853 92.1176 90.7926 92.0695 90.7119 92.0049C90.6311 91.9402 90.5639 91.8603 90.5141 91.7697C90.4642 91.6791 90.4327 91.5795 90.4213 91.4767C90.4099 91.3739 90.4189 91.2699 90.4477 91.1706C90.4765 91.0712 90.5246 90.9785 90.5893 90.8978C90.6539 90.8171 90.7338 90.7498 90.8244 90.7C90.9151 90.6501 91.0146 90.6186 91.1174 90.6072C91.2202 90.5958 91.3243 90.6048 91.4236 90.6336C93.6967 91.198 95.9633 91.7859 98.2234 92.3973C100.489 92.9891 102.738 93.6318 105 94.2471C107.261 94.8624 109.503 95.5248 111.752 96.1636C114.002 96.8024 116.244 97.4961 118.474 98.2134C118.724 98.2856 118.935 98.4542 119.061 98.682C119.186 98.9099 119.216 99.1783 119.144 99.4283C119.072 99.6783 118.903 99.8893 118.675 100.015C118.448 100.141 118.179 100.171 117.929 100.098V100.087Z" fill="#1E22AA"/>
        <path d="M97.5336 110.484L68.8607 102.728C68.7364 102.695 68.62 102.637 68.518 102.558C68.4161 102.479 68.3307 102.381 68.2666 102.27C68.1373 102.044 68.1028 101.776 68.1709 101.525C68.239 101.274 68.404 101.06 68.6297 100.931C68.8553 100.802 69.1231 100.767 69.3741 100.835H69.4055L97.7844 109.595C97.8895 109.636 97.9754 109.714 98.0253 109.815C98.0752 109.916 98.0854 110.032 98.0539 110.141C98.0225 110.249 97.9516 110.341 97.8552 110.4C97.7589 110.459 97.6441 110.479 97.5336 110.457V110.484Z" fill="#1E22AA"/>
        <path d="M148.856 58.3981L131.396 67.8473L113.975 77.3044L96.5891 86.8319C90.7939 90.0065 85.0026 93.1902 79.2153 96.383C67.6379 102.763 56.1272 109.262 44.5695 115.673L35.9041 120.482C33.0157 122.085 30.0802 123.618 27.1565 125.146L26.6078 125.436L26.3334 125.581L26.1963 125.652L26.0944 125.714C25.837 125.874 25.6166 126.086 25.4477 126.338C25.2822 126.587 25.1741 126.87 25.1314 127.166C25.0887 127.462 25.1124 127.764 25.2008 128.05C25.2469 128.193 25.3073 128.331 25.3811 128.462L25.6789 128.995L26.2903 130.073L27.517 132.232L28.1441 133.298C28.3199 133.617 28.5232 133.92 28.7516 134.203C29.2021 134.759 29.7524 135.225 30.3741 135.579C30.6825 135.753 31.0066 135.897 31.3422 136.01C31.6636 136.112 32.0829 136.222 32.4827 136.335L34.8734 137.006C34.9974 137.04 35.1135 137.099 35.2149 137.178C35.3163 137.257 35.401 137.356 35.4644 137.468C35.5277 137.58 35.5683 137.703 35.5839 137.831C35.5995 137.959 35.5898 138.089 35.5553 138.213C35.5209 138.337 35.4623 138.453 35.3829 138.554C35.3036 138.656 35.2051 138.74 35.093 138.804C34.9809 138.867 34.8575 138.908 34.7297 138.923C34.6019 138.939 34.4723 138.929 34.3482 138.895H34.3247L31.9732 138.174C31.5813 138.048 31.1893 137.942 30.7386 137.782C30.2929 137.621 29.8637 137.417 29.4571 137.174C28.6494 136.69 27.9396 136.058 27.3642 135.312C27.0827 134.943 26.8336 134.549 26.6195 134.137L26.0317 133.043L24.8559 130.86L24.2719 129.771L23.978 129.214C23.8534 128.982 23.7535 128.738 23.6801 128.485C23.5341 127.977 23.5006 127.443 23.5818 126.921C23.663 126.398 23.8571 125.9 24.1505 125.46C24.4404 125.023 24.8181 124.652 25.2596 124.37L25.4242 124.264L25.5574 124.186L25.824 124.033L26.3609 123.723C29.2297 122.081 32.0829 120.416 34.9831 118.832L43.6877 114.094C55.2924 107.76 66.9482 101.517 78.5333 95.1524C84.3377 91.9896 90.1185 88.7876 95.9032 85.5935L113.261 76.0032L130.592 66.3659L147.891 56.6776C148.119 56.5503 148.387 56.5184 148.638 56.5889C148.888 56.6595 149.101 56.8267 149.228 57.0538C149.355 57.2809 149.387 57.5493 149.317 57.8C149.246 58.0506 149.079 58.2629 148.852 58.3903L148.856 58.3981Z" fill="#1E22AA"/>
        <path d="M55.1553 133.514C65.4942 127.925 75.8017 122.254 86.117 116.587L117.016 99.5929C122.166 96.7632 127.312 93.9218 132.454 91.0686L147.833 82.4463L155.55 78.1744L156.032 77.9079C156.064 77.893 156.094 77.8746 156.122 77.853L156.192 77.8021C156.244 77.7668 156.292 77.7275 156.337 77.6845C156.535 77.5141 156.698 77.308 156.819 77.077C157.068 76.6235 157.133 76.0915 157 75.5917C156.966 75.4684 156.92 75.3489 156.863 75.235L156.823 75.1488L156.757 75.0312L156.62 74.7961L156.067 73.8398L154.962 71.9311C152.02 66.844 149.117 61.7307 146.253 56.5914C146.175 56.4573 146.153 56.2975 146.192 56.1472C146.231 55.9969 146.329 55.8684 146.463 55.7899C146.597 55.7114 146.757 55.6894 146.907 55.7287C147.057 55.7681 147.186 55.8655 147.264 55.9996C150.366 61.0005 153.42 66.0275 156.428 71.0807L157.556 72.9775L158.121 73.926L158.262 74.1611L158.336 74.2826L158.418 74.4433C158.53 74.657 158.619 74.8816 158.685 75.1135C158.947 76.0467 158.843 77.0447 158.395 77.904C158.177 78.3271 157.883 78.707 157.529 79.0249C157.435 79.0993 157.36 79.1777 157.251 79.2522L157.094 79.3659C157.048 79.3984 157.001 79.4285 156.953 79.456L156.471 79.7225L148.742 83.9827L133.238 92.4207C128.077 95.2425 122.929 98.0879 117.792 100.957L56.092 135.234C55.8649 135.36 55.5969 135.391 55.347 135.32C55.0971 135.249 54.8858 135.081 54.7595 134.854C54.6332 134.627 54.6023 134.359 54.6736 134.109C54.7449 133.859 54.9125 133.648 55.1396 133.521L55.1553 133.514Z" fill="#1E22AA"/>
        <path d="M38.926 143.88C37.3348 144.385 35.7319 144.938 34.1642 145.448C33.8977 145.533 33.6604 145.692 33.479 145.905C33.2976 146.118 33.1793 146.378 33.1373 146.655C33.1157 146.795 33.1157 146.938 33.1373 147.078C33.1626 147.243 33.2046 147.404 33.2628 147.56L33.6547 148.736C34.7181 151.91 35.8155 155.073 36.9468 158.224L38.6399 162.951L39.0632 164.126L39.1651 164.413C39.1964 164.479 39.2199 164.55 39.2591 164.616C39.3318 164.748 39.4214 164.869 39.5256 164.977C39.7349 165.193 40.0003 165.345 40.2919 165.418C40.5835 165.491 40.8896 165.481 41.1756 165.388L50.5817 161.955C63.1467 157.319 75.7665 152.839 88.3707 148.32L107.285 141.552L126.215 134.866L145.152 128.176C148.315 127.074 151.478 125.981 154.66 124.934C157.842 123.888 161.017 122.834 164.223 121.846C164.387 121.803 164.562 121.824 164.712 121.903C164.862 121.983 164.976 122.116 165.033 122.276C165.09 122.436 165.084 122.612 165.018 122.768C164.951 122.924 164.828 123.05 164.674 123.12C161.562 124.37 158.434 125.562 155.299 126.737C152.164 127.913 149.028 129.061 145.869 130.198L126.94 136.908L108.002 143.613L89.0448 150.249C76.4053 154.666 63.7738 159.118 51.0912 163.417L41.5597 166.674C40.9088 166.868 40.211 166.83 39.5846 166.568C38.9581 166.306 38.4416 165.835 38.1226 165.236C38.0598 165.117 38.0048 164.993 37.958 164.867L37.8482 164.565L37.4328 163.39L35.775 158.651C34.6776 155.49 33.5423 152.341 32.3692 149.206L31.9224 148.03C31.8281 147.796 31.756 147.553 31.7068 147.305C31.6611 147.032 31.6506 146.754 31.6755 146.478C31.732 145.919 31.94 145.386 32.277 144.937C32.614 144.487 33.0673 144.138 33.588 143.927C35.1557 143.284 36.7234 142.681 38.248 142.03C38.3666 141.979 38.4942 141.951 38.6235 141.949C38.7528 141.947 38.8813 141.97 39.0016 142.017C39.1218 142.065 39.2316 142.136 39.3245 142.226C39.4175 142.316 39.4918 142.423 39.5433 142.541C39.5947 142.66 39.6223 142.788 39.6245 142.917C39.6266 143.046 39.6033 143.175 39.5558 143.295C39.5083 143.415 39.4376 143.525 39.3477 143.618C39.2578 143.711 39.1505 143.785 39.0318 143.837L38.926 143.88Z" fill="#1E22AA"/>
        <path d="M127.214 112.793L62.4058 135.387C62.2156 135.454 62.0065 135.443 61.8246 135.356C61.6427 135.269 61.5029 135.113 61.4358 134.923C61.3688 134.732 61.38 134.523 61.4671 134.341C61.5542 134.159 61.71 134.02 61.9002 133.953L126.493 110.755C126.628 110.699 126.773 110.67 126.92 110.672C127.066 110.674 127.211 110.705 127.345 110.765C127.479 110.824 127.6 110.91 127.7 111.017C127.799 111.124 127.876 111.251 127.926 111.389C127.975 111.527 127.996 111.673 127.987 111.82C127.978 111.966 127.94 112.109 127.874 112.24C127.808 112.371 127.716 112.487 127.604 112.581C127.492 112.676 127.362 112.746 127.222 112.789L127.214 112.793Z" fill="#1E22AA"/>
        <path d="M164.031 121.313L168.236 119.863L170.341 119.138L170.866 118.954L171.128 118.864L171.258 118.813C171.505 118.693 171.701 118.488 171.808 118.234C171.914 117.981 171.925 117.698 171.838 117.437L171.113 115.332L169.663 111.123L166.762 102.728L166.037 100.624L165.947 100.369C165.929 100.321 165.908 100.274 165.884 100.228C165.842 100.133 165.785 100.046 165.716 99.9691C165.581 99.8076 165.409 99.6812 165.214 99.6007C165.018 99.5222 164.806 99.4913 164.595 99.5105C164.544 99.5105 164.493 99.5301 164.438 99.534L164.27 99.585L163.745 99.7692L161.64 100.494L127.998 112.126C127.826 112.176 127.641 112.158 127.482 112.076C127.323 111.994 127.201 111.855 127.141 111.686C127.082 111.517 127.089 111.332 127.161 111.168C127.234 111.005 127.366 110.875 127.531 110.806L161.005 98.6718L163.098 97.9154L163.619 97.7234C163.709 97.692 163.862 97.645 163.98 97.6136C164.564 97.4696 165.176 97.4888 165.75 97.6692C166.323 97.8496 166.836 98.1842 167.233 98.6365C167.411 98.8374 167.564 99.0599 167.687 99.2989C167.75 99.4165 167.797 99.5419 167.848 99.6634L167.946 99.9338L168.706 102.023L171.744 110.39L173.264 114.572L174.025 116.661C174.211 117.19 174.27 117.755 174.197 118.311C174.118 118.87 173.905 119.401 173.575 119.859C173.245 120.317 172.809 120.689 172.304 120.941C172.183 121 172.042 121.054 171.912 121.101L171.65 121.199L171.128 121.388L169.039 122.148L164.854 123.665C164.699 123.72 164.535 123.745 164.371 123.738C164.207 123.73 164.046 123.691 163.898 123.621C163.749 123.551 163.616 123.453 163.505 123.332C163.394 123.21 163.309 123.068 163.253 122.914C163.197 122.76 163.172 122.596 163.18 122.432C163.187 122.268 163.227 122.107 163.296 121.958C163.366 121.809 163.464 121.676 163.586 121.565C163.707 121.455 163.849 121.369 164.003 121.313H164.031Z" fill="#1E22AA"/>
        <path d="M173.598 170.871L71.9571 207.089C71.7123 207.176 71.4429 207.163 71.208 207.051C70.9732 206.94 70.7922 206.74 70.7049 206.495C70.6176 206.25 70.6311 205.981 70.7424 205.746C70.8538 205.511 71.0539 205.33 71.2987 205.243L173.096 169.468C173.281 169.408 173.481 169.423 173.655 169.509C173.829 169.595 173.963 169.745 174.028 169.928C174.092 170.111 174.083 170.311 174.002 170.488C173.921 170.664 173.775 170.802 173.594 170.871H173.598Z" fill="#1E22AA"/>
        <path d="M61.0342 176.225L162.624 139.867C162.745 139.823 162.874 139.804 163.002 139.81C163.131 139.816 163.257 139.848 163.373 139.903C163.49 139.958 163.594 140.035 163.681 140.13C163.768 140.226 163.834 140.337 163.878 140.458C163.921 140.58 163.941 140.708 163.934 140.837C163.928 140.966 163.897 141.092 163.842 141.208C163.787 141.325 163.71 141.429 163.614 141.516C163.519 141.602 163.407 141.669 163.286 141.713L61.4339 177.354C61.2884 177.391 61.1344 177.372 61.0022 177.3C60.8701 177.229 60.7694 177.111 60.7202 176.969C60.6709 176.827 60.6767 176.672 60.7363 176.535C60.7959 176.397 60.9049 176.286 61.042 176.225H61.0342Z" fill="#1E22AA"/>
        <path d="M138.368 182.065L127.057 149.422C126.99 149.235 127.001 149.029 127.086 148.849C127.171 148.67 127.324 148.532 127.512 148.465C127.699 148.399 127.905 148.409 128.084 148.495C128.263 148.58 128.401 148.733 128.468 148.92L140.225 181.414C140.273 181.536 140.297 181.666 140.293 181.797C140.29 181.928 140.261 182.057 140.207 182.177C140.153 182.296 140.076 182.403 139.979 182.492C139.883 182.581 139.77 182.65 139.647 182.695C139.524 182.739 139.393 182.759 139.262 182.752C139.131 182.745 139.003 182.712 138.886 182.655C138.768 182.597 138.663 182.517 138.576 182.418C138.49 182.32 138.424 182.205 138.383 182.08L138.368 182.065Z" fill="#1E22AA"/>
        <path d="M96.0639 164.464L105.223 190.957C105.259 191.142 105.228 191.333 105.134 191.496C105.041 191.66 104.893 191.784 104.715 191.847C104.538 191.909 104.344 191.906 104.169 191.838C103.994 191.77 103.849 191.641 103.761 191.475L94.2141 165.118C94.1701 164.997 94.1503 164.869 94.156 164.74C94.1616 164.612 94.1925 164.485 94.2469 164.369C94.3013 164.252 94.3782 164.147 94.4731 164.06C94.568 163.973 94.6791 163.906 94.8 163.862C94.921 163.818 95.0494 163.798 95.178 163.804C95.3066 163.809 95.4328 163.84 95.5494 163.895C95.666 163.949 95.7708 164.026 95.8578 164.121C95.9447 164.216 96.0121 164.327 96.0561 164.448L96.0639 164.464Z" fill="#1E22AA"/>
        <path d="M225.672 116.054C224.543 115.191 222.984 115.313 221.804 116.03C221.14 116.445 220.603 117.036 220.253 117.736C219.902 118.436 219.752 119.22 219.817 120C219.898 120.75 220.183 121.463 220.641 122.062C221.099 122.662 221.713 123.124 222.415 123.398C223.102 123.643 223.842 123.697 224.557 123.555C225.272 123.412 225.935 123.079 226.476 122.591C227.953 121.341 228.184 119.299 227.361 117.609C226.946 116.759 225.621 117.515 226.084 118.358C226.36 118.826 226.478 119.371 226.42 119.912C226.362 120.453 226.132 120.961 225.762 121.36C225.44 121.707 225.033 121.964 224.582 122.107C224.131 122.249 223.65 122.273 223.187 122.175C222.708 122.045 222.27 121.794 221.915 121.447C221.56 121.1 221.299 120.668 221.157 120.192C221.022 119.652 221.047 119.084 221.229 118.558C221.412 118.032 221.743 117.57 222.184 117.229C222.607 116.897 223.112 116.687 223.645 116.622C224.178 116.556 224.719 116.637 225.21 116.857C225.314 116.895 225.428 116.895 225.532 116.858C225.637 116.82 225.724 116.746 225.78 116.65C225.835 116.554 225.854 116.441 225.835 116.332C225.815 116.223 225.758 116.124 225.672 116.054Z" fill="#FF9900"/>
        <path d="M211.249 99.0677C210.49 99.6394 209.813 100.312 209.235 101.067C208.69 101.802 208.275 102.625 208.008 103.5C207.514 105.213 207.672 107.047 208.451 108.65C210.101 112.032 214.463 113.263 217.896 112.224C219.47 111.773 220.874 110.866 221.931 109.616C222.987 108.366 223.65 106.831 223.834 105.205C223.99 103.611 223.632 102.008 222.814 100.631C221.995 99.2531 220.759 98.1729 219.284 97.5471C217.627 96.828 215.789 96.6391 214.02 97.0062C212.241 97.3511 210.262 98.2486 209.235 99.8006C208.921 100.279 209.572 100.976 210.054 100.62C211.191 99.7536 212.261 98.9423 213.656 98.5465C214.952 98.1668 216.325 98.1344 217.638 98.4524C220.177 99.1069 222.309 101.255 222.486 103.939C222.556 105.276 222.23 106.604 221.547 107.756C220.864 108.907 219.856 109.831 218.649 110.41C215.988 111.75 212.319 111.351 210.34 108.991C207.918 106.103 209.431 102.035 211.935 99.7575C212.406 99.3303 211.724 98.6876 211.249 99.0717V99.0677Z" fill="#FF9900"/>
        <path d="M229.074 126.173C225.911 127.474 224.038 131.127 224.477 134.466C224.712 136.178 225.485 137.771 226.686 139.013C227.886 140.256 229.451 141.084 231.154 141.378C232.857 141.672 234.609 141.416 236.156 140.648C237.704 139.879 238.967 138.638 239.762 137.104C241.361 134.027 240.655 130.049 238.225 127.6C236.808 126.212 234.924 125.402 232.942 125.33C231.108 125.24 228.749 125.722 227.479 127.165C227.381 127.271 227.324 127.409 227.317 127.554C227.311 127.699 227.356 127.842 227.445 127.957C227.533 128.071 227.66 128.151 227.801 128.182C227.943 128.213 228.091 128.193 228.22 128.125C228.845 127.735 229.5 127.395 230.179 127.11C230.858 126.874 231.569 126.742 232.288 126.718C233.762 126.652 235.217 127.065 236.438 127.894C238.79 129.512 239.797 132.753 238.962 135.442C238.104 138.185 235.282 140.145 232.421 140.145C229.56 140.145 226.934 138.072 226.052 135.391C225.018 132.189 226.695 128.846 229.431 127.121C229.885 126.835 229.591 125.981 229.039 126.208L229.074 126.173Z" fill="#FF9900"/>
        <path d="M245.448 113.573C246.397 110.355 245.542 106.804 242.76 104.778C241.48 103.852 239.958 103.321 238.38 103.252C236.802 103.182 235.239 103.576 233.883 104.386C232.564 105.195 231.504 106.365 230.831 107.758C230.157 109.151 229.897 110.708 230.082 112.245C230.267 113.781 230.889 115.232 231.873 116.425C232.858 117.619 234.165 118.504 235.638 118.977C237.302 119.505 239.094 119.467 240.733 118.868C242.356 118.28 243.971 117.202 244.79 115.646C245.135 114.995 244.245 114.208 243.724 114.823C242.928 115.846 241.904 116.668 240.733 117.225C239.883 117.612 238.959 117.809 238.025 117.805C237.091 117.801 236.169 117.595 235.322 117.201C234.476 116.807 233.724 116.235 233.119 115.524C232.514 114.812 232.07 113.978 231.817 113.079C231.48 111.872 231.491 110.594 231.849 109.394C232.208 108.193 232.899 107.119 233.843 106.295C235.78 104.559 238.676 104.304 241.008 105.358C242.371 105.975 243.471 107.055 244.112 108.407C244.781 109.954 244.912 111.68 244.484 113.31C244.46 113.434 244.484 113.563 244.55 113.67C244.617 113.777 244.721 113.856 244.843 113.889C244.965 113.923 245.095 113.909 245.207 113.852C245.319 113.794 245.405 113.695 245.448 113.577V113.573Z" fill="#FF9900"/>
        <path d="M205.915 121.932C207.175 121.058 208.697 120.645 210.226 120.763C211.754 120.881 213.196 121.522 214.306 122.579C216.544 124.656 217.003 128.125 215.596 130.809C214.99 132.009 214.035 132.997 212.857 133.644C211.679 134.291 210.333 134.566 208.996 134.435C206.593 134.231 204.203 132.757 203.415 130.402C202.999 129.13 202.989 127.761 203.383 126.482C203.811 125.087 204.704 124.08 205.711 123.069C205.81 122.962 205.867 122.824 205.873 122.679C205.879 122.534 205.834 122.392 205.745 122.277C205.657 122.162 205.531 122.082 205.389 122.051C205.247 122.021 205.099 122.041 204.971 122.109C203.599 122.763 202.686 124.166 202.145 125.542C201.603 126.946 201.468 128.474 201.753 129.951C202.325 133.004 204.916 135.211 207.898 135.798C209.485 136.138 211.137 135.997 212.644 135.395C214.151 134.793 215.444 133.756 216.36 132.416C218.437 129.41 218.378 125.177 216.05 122.328C214.801 120.809 213.039 119.801 211.096 119.495C210.07 119.34 209.023 119.399 208.02 119.669C207.018 119.939 206.083 120.413 205.273 121.062C204.783 121.454 205.429 122.289 205.943 121.928L205.915 121.932Z" fill="#FF9900"/>
        <path d="M292.471 150.151C291.79 148.566 290.63 147.234 289.154 146.342C287.678 145.45 285.96 145.043 284.24 145.177C282.586 145.291 280.998 145.874 279.663 146.858C278.336 147.892 277.354 149.304 276.845 150.907C276.314 152.507 276.261 154.227 276.692 155.857C277.123 157.487 278.019 158.957 279.271 160.086C281.732 162.241 285.365 163.1 288.45 161.838C290.061 161.155 291.422 159.991 292.347 158.505C293.271 157.019 293.714 155.284 293.615 153.537C293.568 152.553 292.071 152.537 292.075 153.537C292.075 156.116 291.048 158.632 288.763 159.98C286.412 161.383 283.41 161.077 281.156 159.588C279.999 158.833 279.087 157.758 278.53 156.494C277.973 155.229 277.796 153.83 278.021 152.467C278.176 151.385 278.581 150.355 279.202 149.457C279.824 148.558 280.646 147.816 281.603 147.29C282.56 146.763 283.626 146.466 284.718 146.422C285.81 146.377 286.897 146.587 287.893 147.035C289.471 147.811 290.721 149.122 291.42 150.735C291.738 151.432 292.741 150.825 292.439 150.139L292.471 150.151Z" fill="#1E22AA"/>
        <path d="M281.023 140.447C277.989 140.913 275.285 142.998 273.435 145.365C271.483 147.819 270.334 150.815 270.147 153.944C269.834 160.215 274.176 165.988 279.914 168.191C286.678 170.785 294.728 167.474 298.083 161.136C299.701 158.073 300.252 154.558 299.651 151.146C299.02 147.948 297.374 145.038 294.958 142.849C292.542 140.66 289.484 139.309 286.239 138.997C282.841 138.715 279.444 139.568 276.582 141.423C275.886 141.865 275.256 142.405 274.713 143.026C274.258 143.559 274.862 144.534 275.497 144.068C276.716 143.128 278.029 142.318 279.416 141.65C280.805 141.045 282.284 140.673 283.794 140.549C286.764 140.299 289.733 141.057 292.22 142.7C294.721 144.314 296.612 146.716 297.592 149.526C298.573 152.336 298.587 155.393 297.632 158.212C295.61 164.483 288.81 168.673 282.289 167.274C276.978 166.137 272.428 161.477 271.77 156.022C271.092 150.417 274.486 144.871 279.471 142.426C280.082 142.128 280.698 141.838 281.329 141.583C281.475 141.538 281.597 141.438 281.671 141.304C281.744 141.17 281.762 141.012 281.722 140.865C281.681 140.717 281.584 140.592 281.452 140.514C281.32 140.437 281.164 140.414 281.015 140.451L281.023 140.447Z" fill="#1E22AA"/>
        <path d="M265.225 180.242C265.558 179.315 265.836 178.369 266.055 177.409C266.424 175.939 266.675 174.418 267.745 173.27C268.225 172.725 268.817 172.289 269.48 171.993C270.143 171.697 270.863 171.547 271.589 171.553C272.271 171.601 272.932 171.808 273.518 172.158C274.105 172.508 274.602 172.991 274.968 173.568C275.932 175.136 275.567 176.958 275.14 178.635C274.631 180.642 274.109 182.649 273.572 184.655C273.181 186.184 272.832 187.924 271.64 189.053C270.743 189.903 269.41 190.087 268.227 189.931C267.5 189.856 266.805 189.595 266.209 189.173C265.612 188.752 265.134 188.184 264.821 187.524C264.084 185.925 264.429 184.032 264.856 182.398C265.146 181.222 263.343 180.732 263.053 181.9C262.591 183.758 262.269 185.819 262.881 187.673C263.159 188.518 263.622 189.29 264.237 189.932C264.852 190.574 265.603 191.071 266.436 191.385C268.052 191.992 269.84 191.948 271.425 191.263C273.161 190.507 274.121 188.849 274.689 187.12C275.391 184.988 275.865 182.758 276.406 180.583C276.943 178.483 277.75 176.088 276.978 173.944C276.664 173.12 276.177 172.373 275.551 171.752C274.924 171.132 274.172 170.652 273.345 170.346C272.512 170.043 271.621 169.931 270.738 170.021C269.856 170.111 269.005 170.399 268.25 170.864C267.337 171.392 266.554 172.118 265.957 172.988C265.373 173.842 265.174 174.826 264.942 175.81C264.552 177.214 264.264 178.644 264.08 180.089C264.006 180.795 265.009 180.811 265.228 180.242H265.225Z" fill="#1E22AA"/>
        <path d="M291.409 182.084C291.217 182.625 290.997 183.162 290.852 183.715C290.707 184.267 290.582 184.914 290.46 185.51C290.339 186.105 290.194 186.729 290.068 187.336C289.731 188.782 289.567 190.409 288.744 191.682C288.365 192.249 287.85 192.711 287.246 193.027C286.642 193.343 285.968 193.502 285.287 193.489C283.837 193.517 282.41 193.003 281.685 191.679C280.8 190.064 281.105 188.034 281.364 186.294C281.658 184.315 282.092 182.36 282.661 180.442C283.112 178.933 283.661 177.338 284.875 176.264C285.496 175.748 286.257 175.428 287.06 175.348C287.863 175.268 288.672 175.43 289.383 175.814C290.069 176.218 290.623 176.814 290.977 177.528C291.331 178.242 291.47 179.043 291.377 179.835C291.378 180.083 291.477 180.32 291.653 180.496C291.828 180.671 292.066 180.77 292.314 180.771C292.561 180.766 292.796 180.666 292.971 180.491C293.146 180.317 293.246 180.082 293.251 179.835C293.344 178.893 293.205 177.942 292.847 177.066C292.49 176.189 291.923 175.414 291.198 174.806C290.472 174.198 289.609 173.776 288.683 173.578C287.758 173.379 286.798 173.409 285.887 173.666C283.927 174.187 282.547 175.7 281.732 177.495C280.895 179.479 280.284 181.551 279.91 183.672C279.126 187.505 278.154 193.238 282.834 194.951C283.706 195.263 284.633 195.394 285.558 195.334C286.483 195.275 287.385 195.027 288.211 194.606C288.96 194.168 289.61 193.578 290.119 192.874C290.628 192.17 290.984 191.368 291.166 190.518C291.82 187.802 292.494 185.032 292.698 182.261C292.757 181.477 291.64 181.422 291.409 182.084Z" fill="#1E22AA"/>
    </g>
    <defs>
        <clipPath id="clip0_38:13582">
            <rect width="312.623" height="184.661" fill="white" transform="translate(23.5234 42.4744)"/>
        </clipPath>
    </defs>
</svg>
