<svg height="26" viewBox="0 0 95 27" fill="none" xmlns="http://www.w3.org/2000/svg">
    <g clip-path="url(#clip0_38:13524)">
        <mask id="mask0_38:13524" style="mask-type:alpha" maskUnits="userSpaceOnUse" x="0" y="3" width="20" height="21">
            <circle cx="10" cy="13.11" r="10" fill="white"/>
        </mask>
        <g mask="url(#mask0_38:13524)">
            <path d="M4.04643 5.0753C5.5268 3.97836 7.27646 3.31526 9.1 3.15049V6.168C7.92123 6.32083 6.79547 6.77213 5.8325 7.48568C4.62673 8.37915 3.74001 9.63648 3.30315 11.0722C2.86629 12.5079 2.90241 14.0461 3.40618 15.4597C3.90995 16.8734 4.8547 18.0877 6.10109 18.9236C7.34747 19.7594 8.82949 20.1726 10.3286 20.1022C11.8276 20.0318 13.2644 19.4814 14.4269 18.5323C15.5894 17.5833 16.4161 16.2857 16.7851 14.831C17.0425 13.8164 17.0677 12.7628 16.866 11.747L19.4 9.70991L19.3983 9.69349C20.0823 11.5751 20.1868 13.622 19.693 15.5687C19.1659 17.6467 17.9849 19.5004 16.3241 20.8562C14.6634 22.212 12.6109 22.9983 10.4694 23.0989C8.32785 23.1995 6.21067 22.6092 4.43012 21.4151C2.64958 20.221 1.29993 18.4863 0.580258 16.4668C-0.139415 14.4473 -0.191013 12.25 0.433076 10.1989C1.05716 8.14786 2.3239 6.35168 4.04643 5.0753Z" fill="#FCCA00"/>
            <path d="M17.4892 6.48339L17.4999 6.50999L15.8065 9.19941C15.1907 8.28688 14.3655 7.52733 13.3999 6.98971V13.11C13.3999 14.9878 11.8776 16.51 9.99985 16.51C8.12209 16.51 6.59985 14.9878 6.59985 13.11C6.59985 11.2322 8.12209 9.70999 9.99985 9.70999C10.7036 9.70999 11.3574 9.9238 11.8999 10.29V3.29026C14.1073 3.71484 16.0564 4.86525 17.4892 6.48339Z" fill="#FC3F1D"/>
        </g>
    </g>
    <path d="M30.8871 20.76H33.1751L36.2991 9.21V20.76H38.9171V5.47H35.3531L32.2731 16.8L29.1931 5.47H25.5851V20.76H27.7631V9.21L30.8871 20.76ZM42.5263 24.17C44.9683 24.17 45.8703 22.432 46.6183 20.166L50.0723 9.694H47.5423L45.1003 18.01L42.6583 9.694H39.9083L43.7143 21.244C43.4283 21.772 43.0103 22.102 42.2843 22.102C41.8003 22.102 41.3823 21.948 41.0963 21.662V23.796C41.0963 23.796 41.4923 24.17 42.5263 24.17ZM53.8842 18.912C52.5422 18.912 51.2222 18.428 50.5182 17.9V20.034C51.0242 20.452 52.3002 20.98 54.1922 20.98C56.9862 20.98 58.4602 19.726 58.4602 17.504C58.4602 16.206 57.6462 15.326 56.1942 15.018C57.5582 14.578 58.1302 13.61 58.1302 12.378C58.1302 10.508 56.6562 9.474 54.2802 9.474C52.5642 9.474 51.4422 10.002 50.8042 10.398V12.532C51.5082 12.07 52.4762 11.542 53.9062 11.542C54.8742 11.542 55.4902 12.004 55.4902 12.818C55.4902 13.676 54.9622 14.138 53.8842 14.138H52.2342V16.118H53.8842C55.2262 16.118 55.7542 16.514 55.7542 17.482C55.7542 18.362 55.1162 18.912 53.8842 18.912ZM60.2179 9.694V20.76H64.1999C66.7739 20.76 68.5999 19.44 68.5999 16.844C68.5999 14.38 66.9719 13.082 64.2439 13.082H62.8359V9.694H60.2179ZM69.5679 9.694V20.76H72.1859V9.694H69.5679ZM64.0459 18.692H62.8359V15.15H64.1119C65.2339 15.15 65.8939 15.656 65.8939 16.932C65.8939 18.208 65.1679 18.692 64.0459 18.692ZM80.8661 20.76H83.8361L79.6341 14.798L83.3301 9.694H80.6901L76.9941 14.798V9.694H74.3761V20.76H76.9941V15.326L80.8661 20.76ZM92.7458 13.214C92.7458 10.53 91.3818 9.518 88.6098 9.518C86.8718 9.518 85.5078 10.068 84.7158 10.53V12.708C85.4198 12.18 86.9598 11.608 88.3018 11.608C89.5558 11.608 90.1278 12.048 90.1278 13.236V13.852H89.7098C85.7058 13.852 83.9238 15.172 83.9238 17.416C83.9238 19.66 85.2878 20.914 87.3118 20.914C88.8518 20.914 89.5118 20.408 90.0178 19.88H90.1278C90.1498 20.166 90.2378 20.54 90.3258 20.76H92.8778C92.7898 19.858 92.7458 18.956 92.7458 18.054V13.214ZM90.1278 18.12C89.7978 18.604 89.1818 19 88.2578 19C87.1578 19 86.6078 18.34 86.6078 17.35C86.6078 16.052 87.5098 15.59 89.7538 15.59H90.1278V18.12Z" fill="black"/>
    <defs>
        <clipPath id="clip0_38:13524">
            <rect width="20" height="20" fill="white" transform="translate(0 3.11)"/>
        </clipPath>
    </defs>
</svg>
